<svg width="220" height="254" viewBox="0 0 220 254" xmlns="http://www.w3.org/2000/svg" xmlns:xlink="http://www.w3.org/1999/xlink"><title>attack</title><defs><linearGradient x1="69.75%" y1="100%" x2="33.51%" y2="24.737%" id="e"><stop stop-color="#58544F" offset="0%"/><stop stop-color="#8A847E" offset="100%"/></linearGradient><ellipse id="a" cx="84" cy="84" rx="84" ry="84"/><mask id="f" x="-4" y="-4" width="176" height="176"><path fill="#fff" d="M-4-4h176v176H-4z"/><use xlink:href="#a"/></mask><radialGradient fx="50%" fy="50%" r="50.107%" id="g"><stop stop-color="#FFD500" offset="0%"/><stop stop-color="#F7CB01" offset="79.819%"/><stop stop-color="#AF7B0C" offset="100%"/></radialGradient><path d="M53.383 0c14.496 0 19.739 13.206 19.739 13.206.485.99-.016 1.794-1.127 1.794h-36.99c-1.107 0-1.643-.817-1.147-1.81 0 0 5.029-13.19 19.525-13.19z" id="b"/><mask id="h" x="-3" y="-3" width="45.635" height="21"><path fill="#fff" d="M30.672-3h45.635v21H30.672z"/><use xlink:href="#b"/></mask><path d="M64.177 80H75v48l-19.5 16.496L34 128V80h10.417c.468-12.402.692-37.121-3.417-59 0 0 17.8 4.465 28.3-3-7.835 16.744-6.37 47.48-5.123 62z" id="c"/><mask id="i" x="0" y="0" width="41" height="126.496" fill="#fff"><use xlink:href="#c"/></mask><linearGradient x1="95.719%" y1="53.506%" x2="8.219%" y2="50%" id="j"><stop stop-color="#D0D0C7" offset="0%"/><stop stop-color="#A3A296" offset="45.015%"/><stop stop-color="#5F5B56" offset="100%"/></linearGradient><path d="M0 13.325S12.258 10.805 21.5 0C31.574 10.806 41 13.325 41 13.325v19.333S33.059 48.82 21.5 57.565C6.64 48.82 0 32.658 0 32.658V13.325z" id="d"/><mask id="k" x="0" y="0" width="41" height="57.565" fill="#fff"><use xlink:href="#d"/></mask></defs><g fill="none" fill-rule="evenodd" opacity=".698"><g transform="translate(48 82)"><use fill="url(#e)" xlink:href="#a"/><use stroke="#000" mask="url(#f)" stroke-width="8" xlink:href="#a"/><path d="M161 84.5c0-33.51-21.545-61.987-51.54-72.335-7.822-2.7 6.057 20.335-2.683 20.335-10.112 0 2.002 11.273-6.834 14.838C91.816 58.94 43 39.258 43 54.5c0 39.488 32.012 71.5 71.5 71.5 15.242 0 29.37-4.77 40.973-12.897C159.038 104.267 161 94.613 161 84.5z" fill="#EEE" opacity=".186"/><ellipse fill="#48443E" cx="83.5" cy="84.5" rx="71.5" ry="71.5"/><ellipse fill="#000" cx="84" cy="84" rx="67" ry="67"/><path d="M84.5 147.5c34.794 0 63-28.206 63-63s-28.206-63-63-63-63 28.206-63 63 28.206 63 63 63z" fill="url(#g)"/><path d="M79.886 130.152c20.454 0 35.458-16.358 35.458-33.971 0-17.614-11.026-51.751-35.458-51.751-24.433 0-36.32 39.093-36.32 56.707 0 17.613 15.865 29.015 36.32 29.015z" fill="#D68807" opacity=".641"/><path d="M138.434 87.332a48.656 48.656 0 0 0 1.214-10.832c0-26.786-21.714-48.5-48.5-48.5a48.395 48.395 0 0 0-17.027 3.073A62.524 62.524 0 0 1 77.148 31c32.225 0 58.661 24.785 61.286 56.332z" fill="#FFF4C2"/><path d="M75.401 126.887a48.415 48.415 0 0 0 14.627 2.248 48.22 48.22 0 0 0 28.472-9.247c-8.849 9.562-21.506 15.548-35.56 15.548-26.753 0-48.44-21.687-48.44-48.44 0-16.111 7.867-30.386 19.968-39.192-7.993 8.638-12.879 20.194-12.879 32.891 0 8.01 1.944 15.566 5.386 22.22 3.015-7.094 14.606-9.278 26.13-4.855 11.683 4.485 18.873 14.064 16.059 21.394-1.778 4.631-7.122 7.257-13.763 7.433z" fill="#FFE884"/><ellipse fill="#FFF" transform="rotate(21 62.571 114.321)" cx="62.571" cy="114.321" rx="15.168" ry="9.517"/></g><g transform="rotate(-37 44.268 66.323)"><use fill="#8A847E" xlink:href="#b"/><use stroke="#000" mask="url(#h)" stroke-width="6" xlink:href="#b"/><use stroke="#000" mask="url(#i)" stroke-width="4" fill="#504B47" xlink:href="#c"/><path fill="#A3A296" d="M57 109.99h15.832v15.853L57 139.28z"/><rect stroke="#000" stroke-width="4" fill="#A3A296" x="33" y="14" width="41" height="19" rx="2"/><rect stroke="#000" stroke-width="3" fill="url(#j)" y="88" width="108" height="19" rx="3"/><path d="M55.28 2.492c4.692.052 11.878 3.61 13.945 7.744 2.066 4.135-16.73 0-16.73 0s-1.909-7.796 2.784-7.744z" fill="#FFF"/></g><use mask="url(#k)" xlink:href="#d" stroke="#000" stroke-width="4" fill="#504B47" transform="rotate(-37 400.353 -110.98)"/><path d="M168.035 208.856c11.813 2.084 19.156-.888 19.156-.888l9.446 12.536s2.748 14.36-.474 25.679l-28.128-37.327z" fill="#A3A296"/><path fill="#FFF" d="M106.652 53.89l-78.276 56.447 76.428-58.83 2.531-1.949 8.231 9.982-79.706 60.254 75.125-60.154z"/><path d="M11.485 32.896l24.097-19.2 7.486 7.939L17.66 40.94s16.5-15.7 14.74-17.993c-1.762-2.295-20.916 9.95-20.916 9.95z" fill="#FFF" opacity=".583"/><path d="M32.464 35.139s1.981-1.028 7.295-5.033c10.217 21.291 26.593 37.315 26.593 37.315l-6.24 4.075L32.465 35.14z" fill="#A3A296"/><path fill="#FFF" opacity=".379" d="M177.127 218.154l18.962 25.163.892-20.398-4.216 10.67z"/></g></svg>