<svg width="194" height="169" viewBox="0 0 194 169" xmlns="http://www.w3.org/2000/svg" xmlns:xlink="http://www.w3.org/1999/xlink"><title>cristal--active</title><defs><path id="a" d="M115 27.512l79.674 46v92l-79.674 46-79.674-46v-92z"/><mask id="d" x="-4" y="-4" width="167.349" height="192"><path fill="#fff" d="M31.326 23.512h167.349v192H31.326z"/><use xlink:href="#a"/></mask><radialGradient cx="46.767%" fx="46.767%" fy="50%" r="51.355%" id="e"><stop stop-color="#3AA6FF" offset="0%"/><stop stop-color="#009FFF" offset="100%"/></radialGradient><path id="b" d="M115 27.512l79.674 46v92l-79.674 46-79.674-46v-92z"/><mask id="f" x="-4" y="-4" width="167.349" height="192"><path fill="#fff" d="M31.326 23.512h167.349v192H31.326z"/><use xlink:href="#b"/></mask><linearGradient x1="82.89%" y1="112.643%" x2="39.279%" y2="14.599%" id="g"><stop stop-color="#2AB7EC" offset="0%"/><stop stop-color="#1A3459" offset="100%"/></linearGradient><linearGradient x1="43.663%" y1="-3.518%" x2="67.411%" y2="92.265%" id="h"><stop stop-color="#0C2242" offset="0%"/><stop stop-color="#303F54" offset="100%"/></linearGradient><linearGradient x1="0%" y1="0%" x2="50%" y2="100%" id="i"><stop stop-color="#FFF" offset="0%"/><stop stop-color="#354666" offset="100%"/></linearGradient><linearGradient x1="92.504%" y1="100%" x2="39.156%" y2="0%" id="j"><stop stop-color="#72ADDF" offset="0%"/><stop stop-color="#1351A3" offset="100%"/></linearGradient><path id="c" d="M115 27.512l79.674 46v92l-79.674 46-79.674-46v-92z"/><mask id="k" x="0" y="0" width="159.349" height="184" fill="#fff"><use xlink:href="#c"/></mask></defs><g transform="translate(-18 -35)" fill="none" fill-rule="evenodd"><g transform="rotate(30 115 119.512)"><use fill="#1E2129" xlink:href="#a"/><use stroke="#000" mask="url(#d)" stroke-width="8" xlink:href="#a"/></g><g transform="rotate(30 115 119.512)"><use fill="url(#e)" xlink:href="#b"/><use stroke="#000" mask="url(#f)" stroke-width="8" xlink:href="#b"/></g><path fill="url(#g)" opacity=".812" d="M70.664 198.98l45.573-80.967 45.134 81.01z"/><path fill="url(#h)" opacity=".625" transform="rotate(180 116.018 79.518)" d="M70.664 119.98l45.573-80.967 45.134 81.01z"/><path fill="#FFF" opacity=".625" d="M206.736 118.564l-90.907 1.017 45.59-79.593z"/><path fill="url(#i)" opacity=".625" transform="scale(-1 1) rotate(60 0 -120.32)" d="M104.414 178.681l44.573-79.235 46.134 79.278z"/><path fill="url(#j)" opacity=".387" transform="rotate(60 80.768 140.085)" d="M35.414 179.681l44.573-79.235 46.134 79.278z"/><path opacity=".625" d="M24.8 118.564l90.906 1.017-45.59-79.593z"/><path fill="#FFF" opacity=".616" d="M142.697 102.06l14.027-50.607-32.449 64.188H192.2z"/><path fill="#16D3FF" opacity=".756" d="M94.102 131.389l-20.498 53.913 35.956-63.481-77.562 1.353z"/><path fill="#02070B" opacity=".166" d="M115.184 91.425L79.53 46.088l35.895 63.515 38.787-67.181z"/><path fill="#87EDFF" opacity=".21" d="M105.472 174.1l10.228-50.541-32.316 65.257 44.891-.222z"/><path fill="#000" opacity=".09" d="M84.458 100.479L69.003 51.284l38.96 61.521-44.668 4.472z"/><path fill="#242E3C" opacity=".162" d="M160.713 161.527l-37.441-35.457 38.216 61.987 23.6-38.187z"/><use stroke="#FFF" mask="url(#k)" stroke-width="8" opacity=".477" transform="rotate(30 115 119.512)" xlink:href="#c"/></g></svg>