<svg width="63" height="63" viewBox="0 0 63 63" xmlns="http://www.w3.org/2000/svg"><title>epic</title><defs><linearGradient x1="28.706%" y1="13.365%" x2="68.838%" y2="91.378%" id="a"><stop stop-color="#983FA9" offset="0%"/><stop stop-color="#49045A" offset="100%"/></linearGradient><linearGradient x1="78.578%" y1="97.172%" x2="6.506%" y2="22.664%" id="b"><stop stop-color="#FFF" offset="0%"/><stop stop-color="#D420FF" offset="100%"/></linearGradient></defs><g fill="none" fill-rule="evenodd"><path d="M29.614 59.225c16.355 0 29.613-13.258 29.613-29.613C59.227 13.258 45.97 0 29.614 0 13.258 0 0 13.258 0 29.612c0 16.355 13.258 29.613 29.614 29.613z" stroke="#000" stroke-width="3" fill="url(#a)" transform="translate(1.515 2.007)"/><path d="M11.24 13.314a26.922 26.922 0 0 0-7.283 18.451c0 14.458 11.356 26.263 25.635 26.983-12.3-5.562-20.858-17.94-20.858-32.317 0-4.634.889-9.06 2.506-13.117z" fill="#A628C8"/><path d="M46.307 53.725c7.112-4.866 11.78-13.044 11.78-22.312 0-14.922-12.098-27.018-27.02-27.018-7.587 0-14.443 3.127-19.351 8.163a34.262 34.262 0 0 1 1.725-.043c18.615 0 33.705 15.09 33.705 33.704 0 2.58-.29 5.092-.839 7.506z" fill="#320C3B"/><path d="M34.322 58.236C47.71 56.63 58.086 45.232 58.086 31.413c0-14.922-12.097-27.018-27.019-27.018a26.93 26.93 0 0 0-18.814 7.627C26.05 18.112 35.68 31.914 35.68 47.964c0 3.554-.472 6.998-1.357 10.272z" fill="#320C3B" opacity=".41"/><path d="M19.969 6.729A26.925 26.925 0 0 1 30.97 4.395c14.922 0 27.019 12.096 27.019 27.017 0 6.476-2.279 12.42-6.078 17.074-12.546-5.337-31.925-8.797-31.943-41.757z" fill="#A628C8" opacity=".628"/><path d="M56.475 45.747c-1.7.335-3.457.51-5.254.51-14.922 0-27.019-12.096-27.019-27.017A26.903 26.903 0 0 1 30.1 2.388c-11.279 34.296 20.93.228 24.166 35.75.282 3.094 1.044 5.611 2.209 7.609z" fill="url(#b)" opacity=".375" transform="rotate(-180 41.096 25.326)"/><path d="M46.89 19.792a11.448 11.448 0 0 0-9.074-8.71c.02.128.037.26.054.393 1.356 10.999 5.925 8.831 9.02 8.317z" fill="#FFF"/><path d="M5.465 29.23a27.343 27.343 0 0 0-.129 2.653c0 14.264 11.054 25.946 25.063 26.948-13.57-3.452-23.808-15.246-24.934-29.6z" fill="#F8D9FF"/></g></svg>