<svg width="170" height="257" viewBox="0 0 170 257" xmlns="http://www.w3.org/2000/svg" xmlns:xlink="http://www.w3.org/1999/xlink"><title>health</title><defs><linearGradient x1="69.75%" y1="100%" x2="33.51%" y2="24.737%" id="b"><stop stop-color="#58544F" offset="0%"/><stop stop-color="#8A847E" offset="100%"/></linearGradient><path d="M81 245.782c44.5 0 80.575-36.075 80.575-80.575S81 .261 81 .261.425 120.706.425 165.207c0 44.5 36.075 80.575 80.575 80.575z" id="a"/><mask id="c" x="-4" y="-4" width="169.151" height="253.521"><path fill="#fff" d="M-3.575-3.739h169.151v253.521H-3.575z"/><use xlink:href="#a"/></mask><linearGradient x1="79.142%" y1="40.338%" x2="30.339%" y2="83.623%" id="d"><stop stop-color="#5A2018" offset="0%"/><stop stop-color="#BB1A1D" offset="100%"/></linearGradient></defs><g transform="translate(4 7)" fill="none" fill-rule="evenodd" opacity=".698"><use fill="url(#b)" xlink:href="#a"/><use stroke="#000" mask="url(#c)" stroke-width="8" xlink:href="#a"/><path d="M158 166.5c0-33.51-21.545-61.987-51.54-72.335-7.822-2.7 6.057 20.335-2.683 20.335-10.112 0 2.002 11.273-6.834 14.838C88.816 140.94 40 121.258 40 136.5c0 39.488 32.012 71.5 71.5 71.5 15.242 0 29.37-4.77 40.973-12.897 3.565-8.836 5.527-18.49 5.527-28.603z" fill="#EEE" opacity=".186"/><path d="M80.5 238c39.488 0 71.5-32.012 71.5-71.5S80.5 13.754 80.5 13.754 9 127.012 9 166.5C9 205.988 41.012 238 80.5 238z" fill="#48443E"/><path d="M81 233c37.003 0 67-29.997 67-67S81 22.2 81 22.2 14 128.996 14 166c0 37.003 29.997 67 67 67z" fill="#000"/><path d="M81.5 229.5c34.794 0 63-28.206 63-63s-63-133.465-63-133.465-63 98.671-63 133.465 28.206 63 63 63z" fill="url(#d)"/><path d="M73.464 213.15c20.454 0 37.036-14.278 37.036-31.892 0-17.613-22.572-67.237-37.036-67.237-14.464 0-37.036 49.624-37.036 67.237 0 17.614 16.581 31.893 37.036 31.893z" fill="#E42F33" opacity=".641"/><path d="M137.648 163.5c0-27.902-18.039-57.68-49.949-106.605 0 0-5.2 25.859 10.985 45.125 16.184 19.265 50.09 61.48 29.535 96.222 0 0 9.43-6.84 9.43-34.742z" fill="#AAD8E6"/><path d="M123.64 200.215c-8.848 9.561-26.714 18.035-40.769 18.035-36.896 0-60.632-31.02-55.773-56.7C32.62 132.36 78.87 47.833 78.87 47.833 64.855 78.584 39.38 133.041 39.38 169.207c0 8.01 21.202 3.43 32.725 7.853 11.684 4.485 18.874 22.064 16.06 29.394-1.778 4.631 27.485-.423 35.477-6.24z" fill="#F75841"/><ellipse fill="#FFF299" opacity=".568" transform="rotate(13 60.571 192.321)" cx="60.571" cy="192.321" rx="15.168" ry="9.517"/></g></svg>