<svg width="58" height="19" viewBox="0 0 58 19" xmlns="http://www.w3.org/2000/svg"><title>powered-by-algolia</title><g fill="#FFF" fill-rule="evenodd"><path d="M34.728 7.25l-.763 2.695 2.459-1.342a2.812 2.812 0 0 0-1.696-1.353zM30.042 5.04a1.006 1.006 0 0 0-1.374 0l-.172.165a.896.896 0 0 0 0 1.31l.183.173a6.172 6.172 0 0 1 1.461-1.553l-.098-.094zM35.63 4.197c0-.02.005-.04.005-.062v-.488c0-.539-.42-.976-.94-.976h-1.646c-.519 0-.94.437-.94.976v.48a5.887 5.887 0 0 1 3.52.07"/><path d="M33.965 6.296c2.047 0 3.712 1.712 3.712 3.816s-1.665 3.815-3.712 3.815-3.712-1.711-3.712-3.815 1.665-3.816 3.712-3.816zm-5.197 3.816c0 2.95 2.326 5.342 5.197 5.342 2.87 0 5.197-2.392 5.197-5.342 0-2.95-2.326-5.342-5.197-5.342-2.87 0-5.197 2.392-5.197 5.342zM10.243 15.263a63.975 63.975 0 0 1-.606-1.73c-.19-.567-.385-1.144-.587-1.73H3.105l-1.193 3.46H0c.505-1.433.978-2.76 1.42-3.978.442-1.218.874-2.375 1.297-3.47.423-1.094.842-2.14 1.259-3.137.416-.997.852-1.984 1.306-2.96h1.685c.455.976.89 1.963 1.307 2.96.416.997.836 2.043 1.259 3.138.422 1.094.855 2.25 1.297 3.47a465.02 465.02 0 0 1 1.42 3.977h-2.007zM8.52 10.239a225.054 225.054 0 0 0-1.202-3.293 59.992 59.992 0 0 0-1.24-3.06 49.683 49.683 0 0 0-1.26 3.06 134.32 134.32 0 0 0-1.183 3.293H8.52zM16.65 15.263c-1.058-.026-1.809-.265-2.251-.719-.444-.452-.665-1.158-.665-2.116V.31L15.45 0v12.137c0 .298.025.544.074.738.05.194.13.35.24.466.11.116.259.204.443.262.185.058.412.107.683.146l-.24 1.514M24.992 14.036c-.149.104-.438.236-.866.397-.43.161-.93.242-1.501.242a4.663 4.663 0 0 1-1.65-.29 3.572 3.572 0 0 1-1.352-.9c-.385-.407-.69-.912-.913-1.519-.223-.606-.336-1.328-.336-2.166 0-.735.106-1.41.317-2.022a4.52 4.52 0 0 1 .923-1.586 4.227 4.227 0 0 1 1.482-1.045c.584-.251 1.243-.377 1.976-.377.808 0 1.513.061 2.116.184.603.122 1.11.235 1.52.338v8.977c0 1.547-.386 2.669-1.156 3.365-.771.697-1.94 1.045-3.505 1.045a9.612 9.612 0 0 1-3.132-.522l.317-1.567c.348.141.774.267 1.277.377.503.11 1.028.165 1.575.165 1.032 0 1.774-.213 2.228-.639.454-.425.68-1.103.68-2.031v-.426zm-.717-7.612a8.164 8.164 0 0 0-1.184-.068c-.932 0-1.65.316-2.153.948-.503.632-.755 1.47-.755 2.515 0 .58.071 1.077.214 1.49.143.413.336.754.578 1.025.242.27.522.47.839.6.317.129.643.193.979.193.46 0 .882-.068 1.267-.203.385-.136.69-.293.914-.474V6.569a5.578 5.578 0 0 0-.7-.145zM43.748 15.263c-1.059-.026-1.809-.265-2.252-.719-.442-.452-.664-1.158-.664-2.116V.31L42.548 0v12.136c0 .299.025.544.074.738.05.195.13.35.24.467.11.116.258.204.443.262.184.058.412.106.682.145l-.24 1.515M46.957 3.135a1.08 1.08 0 0 1-.789-.32c-.216-.215-.325-.503-.325-.866s.109-.651.325-.865c.216-.214.48-.32.789-.32.31 0 .572.106.789.32.216.214.325.502.325.865s-.109.651-.325.865c-.217.214-.48.321-.79.321zm-.854 1.828h1.726v10.11h-1.726V4.962zM53.964 4.77c.702 0 1.293.095 1.776.285.482.19.87.458 1.164.805.295.347.505.76.63 1.237a6.24 6.24 0 0 1 .188 1.581v6.383l-.63.108c-.269.046-.573.088-.91.128-.339.039-.706.075-1.1.108-.395.032-.786.049-1.174.049a6.168 6.168 0 0 1-1.522-.177 3.338 3.338 0 0 1-1.203-.56 2.542 2.542 0 0 1-.789-1.011c-.188-.42-.282-.923-.282-1.512 0-.563.11-1.048.33-1.454.218-.405.516-.733.892-.982a4.038 4.038 0 0 1 1.315-.55 6.871 6.871 0 0 1 1.578-.176c.175 0 .357.01.545.029.188.02.366.046.535.079.17.032.317.062.442.088.125.026.213.046.263.059v-.51c0-.302-.031-.6-.094-.895a2.095 2.095 0 0 0-.338-.785 1.73 1.73 0 0 0-.667-.55c-.282-.137-.649-.206-1.1-.206-.576 0-1.08.043-1.512.128-.432.085-.754.173-.967.265l-.207-1.513c.225-.104.601-.206 1.127-.304a9.305 9.305 0 0 1 1.71-.147zm.15 9.152c.414 0 .78-.01 1.1-.03.32-.02.585-.055.798-.108V10.74c-.125-.065-.329-.12-.61-.167a6.502 6.502 0 0 0-1.025-.069c-.263 0-.541.02-.836.06-.294.039-.564.12-.808.245a1.744 1.744 0 0 0-.61.51c-.163.216-.245.501-.245.855 0 .655.2 1.11.602 1.365.4.255.945.383 1.634.383z"/></g></svg>