<svg width="120" height="19" viewBox="0 0 120 19" xmlns="http://www.w3.org/2000/svg"><title>powered-by-algolia</title><g fill="#FFF" fill-rule="evenodd"><path d="M96.728 7.25l-.763 2.695 2.459-1.342a2.812 2.812 0 0 0-1.696-1.353zM92.042 5.04a1.006 1.006 0 0 0-1.374 0l-.172.165a.896.896 0 0 0 0 1.31l.183.173a6.172 6.172 0 0 1 1.461-1.553l-.098-.094zM97.63 4.197c0-.02.005-.04.005-.062v-.488c0-.539-.42-.976-.94-.976h-1.646c-.519 0-.94.437-.94.976v.48a5.887 5.887 0 0 1 3.52.07"/><path d="M95.965 6.296c2.047 0 3.712 1.712 3.712 3.816s-1.665 3.815-3.712 3.815-3.712-1.711-3.712-3.815 1.665-3.816 3.712-3.816m-5.197 3.816c0 2.95 2.326 5.342 5.197 5.342 2.87 0 5.197-2.392 5.197-5.342 0-2.95-2.326-5.342-5.197-5.342-2.87 0-5.197 2.392-5.197 5.342zM72.243 15.263a63.975 63.975 0 0 1-.606-1.73c-.19-.567-.385-1.144-.587-1.73h-5.945l-1.193 3.46H62c.505-1.433.978-2.76 1.42-3.978.442-1.218.874-2.375 1.297-3.47.423-1.094.842-2.14 1.259-3.137.416-.997.852-1.984 1.306-2.96h1.685c.455.976.89 1.963 1.307 2.96.416.997.836 2.043 1.259 3.138.422 1.094.855 2.25 1.297 3.47a465.02 465.02 0 0 1 1.42 3.977h-2.007zm-1.723-5.024a225.054 225.054 0 0 0-1.202-3.293 59.992 59.992 0 0 0-1.24-3.06 49.683 49.683 0 0 0-1.26 3.06 134.32 134.32 0 0 0-1.183 3.293h4.885zM78.65 15.263c-1.058-.026-1.809-.265-2.251-.719-.444-.452-.665-1.158-.665-2.116V.31L77.45 0v12.137c0 .298.025.544.074.738.05.194.13.35.24.466.11.116.259.204.443.262.185.058.412.107.683.146l-.24 1.514M86.992 14.036c-.149.104-.438.236-.866.397-.43.161-.93.242-1.501.242a4.663 4.663 0 0 1-1.65-.29 3.572 3.572 0 0 1-1.352-.9c-.385-.407-.69-.912-.913-1.519-.223-.606-.336-1.328-.336-2.166 0-.735.106-1.41.317-2.022a4.52 4.52 0 0 1 .923-1.586 4.227 4.227 0 0 1 1.482-1.045c.584-.251 1.243-.377 1.976-.377.808 0 1.513.061 2.116.184.603.122 1.11.235 1.52.338v8.977c0 1.547-.386 2.669-1.156 3.365-.771.697-1.94 1.045-3.505 1.045a9.612 9.612 0 0 1-3.132-.522l.317-1.567c.348.141.774.267 1.277.377.503.11 1.028.165 1.575.165 1.032 0 1.774-.213 2.228-.639.454-.425.68-1.103.68-2.031v-.426zm-.717-7.612a8.164 8.164 0 0 0-1.184-.068c-.932 0-1.65.316-2.153.948-.503.632-.755 1.47-.755 2.515 0 .58.071 1.077.214 1.49.143.413.336.754.578 1.025.242.27.522.47.839.6.317.129.643.193.979.193.46 0 .882-.068 1.267-.203.385-.136.69-.293.914-.474V6.569a5.578 5.578 0 0 0-.7-.145zM105.748 15.263c-1.059-.026-1.809-.265-2.252-.719-.442-.452-.664-1.158-.664-2.116V.31L104.548 0v12.136c0 .299.025.544.074.738.05.195.13.35.24.467.11.116.258.204.443.262.184.058.412.106.682.145l-.24 1.515M108.957 3.135a1.08 1.08 0 0 1-.789-.32c-.216-.215-.325-.503-.325-.866s.109-.651.325-.865c.216-.214.48-.32.789-.32.31 0 .572.106.789.32.216.214.325.502.325.865s-.109.651-.325.865c-.217.214-.48.321-.79.321zm-.854 1.828h1.726v10.11h-1.726V4.962zM115.964 4.77c.702 0 1.293.095 1.776.285.482.19.87.458 1.164.805.295.347.505.76.63 1.237a6.24 6.24 0 0 1 .188 1.581v6.383l-.63.108c-.269.046-.573.088-.91.128-.339.039-.706.075-1.1.108-.395.032-.786.049-1.174.049a6.168 6.168 0 0 1-1.522-.177 3.338 3.338 0 0 1-1.203-.56 2.542 2.542 0 0 1-.789-1.011c-.188-.42-.282-.923-.282-1.512 0-.563.11-1.048.33-1.454.218-.405.516-.733.892-.982a4.038 4.038 0 0 1 1.315-.55 6.871 6.871 0 0 1 1.578-.176c.175 0 .357.01.545.029.188.02.366.046.535.079.17.032.317.062.442.088.125.026.213.046.263.059v-.51c0-.302-.031-.6-.094-.895a2.095 2.095 0 0 0-.338-.785 1.73 1.73 0 0 0-.667-.55c-.282-.137-.649-.206-1.1-.206-.576 0-1.08.043-1.512.128-.432.085-.754.173-.967.265l-.207-1.513c.225-.104.601-.206 1.127-.304a9.305 9.305 0 0 1 1.71-.147zm.15 9.152c.414 0 .78-.01 1.1-.03.32-.02.585-.055.798-.108V10.74c-.125-.065-.329-.12-.61-.167a6.502 6.502 0 0 0-1.025-.069c-.263 0-.541.02-.836.06-.294.039-.564.12-.808.245a1.744 1.744 0 0 0-.61.51c-.163.216-.245.501-.245.855 0 .655.2 1.11.602 1.365.4.255.945.383 1.634.383z"/><path d="M5.956 12c0 .686-.25 1.212-.75 1.578-.499.366-1.214.549-2.145.549-.935 0-1.686-.142-2.253-.425v-1.289c.825.38 1.593.571 2.304.571.918 0 1.377-.277 1.377-.831a.659.659 0 0 0-.152-.445c-.102-.118-.269-.24-.501-.368a8.63 8.63 0 0 0-.972-.431c-.808-.313-1.355-.627-1.64-.94C.937 9.656.794 9.25.794 8.75c0-.6.242-1.067.727-1.4.484-.331 1.143-.497 1.977-.497a5.6 5.6 0 0 1 2.342.501L5.36 8.478c-.758-.314-1.394-.47-1.91-.47-.788 0-1.181.224-1.181.673 0 .22.102.406.308.558.205.153.652.362 1.342.629.58.224 1 .43 1.263.615.263.187.457.401.584.645.127.243.19.534.19.872zm4.353 2.127c-1.092 0-1.946-.318-2.561-.955-.616-.637-.924-1.514-.924-2.631 0-1.147.286-2.049.857-2.705.571-.656 1.356-.983 2.355-.983.927 0 1.659.28 2.196.844.538.563.806 1.337.806 2.323v.806H8.36c.021.681.205 1.205.552 1.571.347.366.836.55 1.467.55.414 0 .8-.04 1.158-.118a6.072 6.072 0 0 0 1.152-.39v1.212a4.58 4.58 0 0 1-1.104.368 6.773 6.773 0 0 1-1.276.108zm-.273-6.145c-.474 0-.854.15-1.14.451-.285.3-.455.739-.51 1.314h3.186c-.008-.58-.148-1.019-.419-1.317-.27-.298-.643-.448-1.117-.448zM18.8 14l-.299-.978h-.05c-.339.428-.68.719-1.022.873-.343.155-.783.232-1.32.232-.69 0-1.229-.186-1.616-.559-.387-.372-.58-.899-.58-1.58 0-.724.268-1.27.805-1.638.538-.368 1.357-.57 2.457-.603l1.212-.038v-.375c0-.448-.105-.783-.314-1.006-.21-.222-.534-.333-.974-.333-.36 0-.705.053-1.035.159-.33.106-.648.23-.952.374l-.483-1.066c.381-.199.798-.35 1.25-.454.454-.104.881-.155 1.283-.155.893 0 1.567.194 2.022.584.455.389.682 1 .682 1.834V14h-1.066zm-2.222-1.016c.542 0 .977-.15 1.305-.453.328-.303.491-.727.491-1.273v-.61l-.9.039c-.703.025-1.214.142-1.534.352-.32.21-.48.53-.48.961 0 .314.094.556.28.727.186.172.466.257.838.257zm8.606-6.131c.3 0 .548.02.743.063l-.146 1.39a2.82 2.82 0 0 0-.66-.076c-.597 0-1.08.195-1.45.584-.37.39-.556.895-.556 1.517V14h-1.492V6.98h1.168l.197 1.237h.076c.233-.419.537-.75.911-.996a2.165 2.165 0 0 1 1.21-.368zm4.29 7.274c-1.062 0-1.87-.31-2.422-.93-.552-.62-.828-1.51-.828-2.67 0-1.18.289-2.088.866-2.722.578-.635 1.413-.952 2.505-.952.74 0 1.407.137 2 .412l-.452 1.2c-.63-.246-1.15-.368-1.561-.368-1.215 0-1.822.806-1.822 2.418 0 .787.151 1.379.454 1.774.303.396.746.594 1.33.594.664 0 1.293-.165 1.885-.495v1.301a2.946 2.946 0 0 1-.854.336c-.302.068-.67.102-1.101.102zM38.932 14h-1.498V9.684c0-.542-.11-.946-.327-1.213-.218-.266-.564-.4-1.038-.4-.626 0-1.087.188-1.38.562-.295.375-.442 1.002-.442 1.882V14h-1.492V4.123h1.492V6.63c0 .402-.025.832-.076 1.289h.095c.203-.339.486-.601.848-.787.361-.186.784-.28 1.266-.28 1.701 0 2.552.857 2.552 2.571V14zm8.389-7.147c.876 0 1.558.317 2.047.952.489.634.733 1.525.733 2.672 0 1.151-.247 2.047-.743 2.688-.495.641-1.182.962-2.063.962-.888 0-1.578-.32-2.069-.959h-.101l-.273.832h-1.118V4.123h1.492v2.349c0 .173-.008.431-.025.774s-.03.56-.038.654h.063c.474-.698 1.172-1.047 2.095-1.047zm-.387 1.218c-.601 0-1.034.177-1.299.53-.264.354-.4.945-.409 1.774v.102c0 .855.135 1.474.406 1.857s.713.574 1.327.574c.529 0 .93-.21 1.203-.628.273-.42.41-1.024.41-1.816 0-1.595-.547-2.393-1.638-2.393zm3.248-1.092h1.625l1.429 3.98c.215.568.36 1.1.431 1.6h.051c.038-.233.108-.515.21-.847.101-.333.638-1.91 1.612-4.733h1.612l-3.002 7.954c-.546 1.46-1.456 2.19-2.73 2.19-.33 0-.652-.036-.965-.108v-1.18c.225.05.48.076.768.076.72 0 1.225-.417 1.517-1.25L53 14l-2.818-7.02z" opacity=".563"/></g></svg>