<svg width="63" height="63" viewBox="0 0 63 63" xmlns="http://www.w3.org/2000/svg"><title>rare</title><defs><linearGradient x1="28.706%" y1="13.365%" x2="68.838%" y2="91.378%" id="a"><stop stop-color="#364B9F" offset="0%"/><stop stop-color="#4799E9" offset="100%"/></linearGradient><linearGradient x1="78.578%" y1="97.172%" x2="6.506%" y2="22.664%" id="b"><stop stop-color="#FFF" offset="0%"/><stop stop-color="#1577FF" offset="100%"/></linearGradient></defs><g fill="none" fill-rule="evenodd"><path d="M29.614 59.225c16.355 0 29.613-13.258 29.613-29.613C59.227 13.258 45.97 0 29.614 0 13.258 0 0 13.258 0 29.612c0 16.355 13.258 29.613 29.614 29.613z" stroke="#000" stroke-width="3" fill="url(#a)" transform="translate(1.795 2)"/><path d="M11.52 13.307a26.922 26.922 0 0 0-7.283 18.451c0 14.458 11.356 26.263 25.635 26.983-12.3-5.562-20.858-17.94-20.858-32.317 0-4.634.889-9.06 2.506-13.117z" fill="#4799EA"/><path d="M46.587 53.718c7.112-4.866 11.78-13.044 11.78-22.312 0-14.922-12.098-27.018-27.02-27.018-7.587 0-14.443 3.127-19.351 8.163a34.262 34.262 0 0 1 1.725-.043c18.615 0 33.705 15.09 33.705 33.704 0 2.58-.29 5.092-.839 7.506z" fill="#320C3B"/><path d="M34.602 58.23c13.388-1.608 23.764-13.005 23.764-26.824 0-14.922-12.097-27.018-27.019-27.018a26.93 26.93 0 0 0-18.814 7.627C26.33 18.105 35.96 31.907 35.96 47.957c0 3.554-.472 6.998-1.357 10.272z" fill="#320C3B" opacity=".41"/><path d="M20.249 6.722A26.925 26.925 0 0 1 31.25 4.388c14.922 0 27.019 12.096 27.019 27.018 0 6.476-2.279 12.42-6.078 17.073-12.546-5.337-31.925-8.797-31.943-41.757z" fill="#286FC8" opacity=".628"/><path d="M56.475 45.747c-1.7.335-3.457.51-5.254.51-14.922 0-27.019-12.096-27.019-27.017A26.903 26.903 0 0 1 30.1 2.388c-11.279 34.296 20.93.228 24.166 35.75.282 3.094 1.044 5.611 2.209 7.609z" fill="url(#b)" opacity=".375" transform="rotate(-180 41.236 25.323)"/><path d="M47.17 19.785a11.448 11.448 0 0 0-9.075-8.71c.02.129.038.26.054.393 1.357 11 5.925 8.832 9.022 8.317z" fill="#FFF"/><path d="M5.745 29.224a27.343 27.343 0 0 0-.129 2.652c0 14.264 11.054 25.946 25.063 26.948-13.57-3.452-23.808-15.246-24.934-29.6z" fill="#C6E5FF"/></g></svg>