<svg width="1186" height="290" viewBox="0 0 1186 290" xmlns="http://www.w3.org/2000/svg"><title>searchstone</title><defs><radialGradient cx="40.855%" cy="0%" fx="40.855%" fy="0%" r="53.142%" id="a"><stop stop-color="#635884" offset="0%"/><stop stop-color="#5B4E66" offset="100%"/></radialGradient><linearGradient x1="48.366%" y1="-15.293%" x2="50.583%" y2="77.867%" id="b"><stop stop-color="#BD6901" offset="0%"/><stop stop-color="#965656" offset="100%"/></linearGradient></defs><g fill="none" fill-rule="evenodd"><path fill="#3D2666" d="M136.281 86.951l-64.126 5.252-57.842 53.625v102.287l6.9 23.162 67.005-3.1 35.574-16.721 22.034 6.594 135.49-42.346h116.803l71.245 16.251 38.74-27.627 131.758-7.609 72.855 7.61 33.1-16.092 16.408 22.031 75.306-5.94 52.63 27.627h55.104l19.56 13.51 59.852-20.01 31.79 38.787 108.689 25.63 10.561-16.141V140.31l-130.512-48.108-27.473 14.757-72.467-33.14-90.251-12.001-92.79-11.095-82.826-25.405-59.177 18.132H499.288L439.056 61.82 390.71 50.724 320.175 61.82 306.79 81.143l-11.41-13.316-57.796 13.316-13.66 25.817-8.374-20.009-51.3 12.456z"/><path fill="url(#a)" d="M136.281 62.413l-64.126 5.252L.672 121.29l13.64 124.802h66.539l38.03-19.174 24.49 6.594 137.945-42.346h116.803l71.245 16.252 38.74-27.627 131.758-7.61 72.855 7.61 33.1-16.092 16.408 22.031 75.306-5.94 52.63 27.628h55.104l19.56 13.509 59.852-20.01 31.79 38.787 119.25 31.252 9.767-149.666-140.279-53.625-27.473 14.757-72.467-33.14-90.251-12-92.79-11.096L679.399.781 620.22 18.913H499.288l-60.232 18.368-48.346-11.095-70.535 11.095-13.386 19.324-11.41-13.316-57.796 13.316-13.66 25.817-8.374-20.009-51.3 12.456z"/><g fill="#3E3731"><path d="M54.613 183.2c2.21 0 4.39-.172 6.48-.514 10.211-1.66 19.924-4.76 27.728-7.25 2.89-.923 5.673-1.811 7.969-2.452.002.336-.005.71-.027 1.124-.17 3.192-.894 5.725-2.156 7.528-.217.19-1.543 1.25-5.511 2.322-4.673 1.26-10.253 1.901-16.58 1.901-2.953 0-6.116-.14-9.406-.417-9.145-.765-15.039-2.115-18.799-3.423 3.419.768 6.92 1.18 10.302 1.18m22.369-54.586a87.422 87.422 0 0 1 7.082-2.327c5.408-1.511 10.38-2.277 14.779-2.277 6.684.003 12.114 1.76 16.529 5.364-12.954 3.477-31.733 8.23-38.65 8.23a8.03 8.03 0 0 1-.501-.012 7.856 7.856 0 0 1-.639-.066c-.042-.41-.064-.994-.017-1.787.125-2.164.6-4.549 1.417-7.125m51.464-51.04c-.786 0-1.577.074-2.36.23-21.5 4.207-31.958 6.413-53.293 11.245a12.28 12.28 0 0 0-5.182 2.569 3383.253 3383.253 0 0 0-29.942 25.367c-.437.373-.847.778-1.226 1.207-6.736 7.636-10.591 18.723-11.453 32.95-.192 3.153-.25 8.112-.182 15.162a12.263 12.263 0 0 0 5.906 10.37 40.83 40.83 0 0 0 4.887 2.517 12.287 12.287 0 0 0-6.542 1.637 12.271 12.271 0 0 0-6.124 10.08l-.978 22.005a12.269 12.269 0 0 0 7.443 11.83c8.374 3.57 17.959 5.383 28.494 5.383 10.184 0 21.617-1.702 33.984-5.062a133.46 133.46 0 0 0 9.047-2.802 12.267 12.267 0 0 0 4.705-2.979 394.675 394.675 0 0 0 10.223-10.757c7.826-8.623 13.56-15.471 17.551-20.965 8.708-11.82 13.207-22.43 13.703-32.373.55-10.976-3.627-20.224-11.778-26.133a12.247 12.247 0 0 0 2.274-6.024l3.065-32.022a12.26 12.26 0 0 0-3.978-10.257 12.28 12.28 0 0 0-8.244-3.177m0 12.269c-1.225 12.806-1.837 19.21-3.065 32.02-6.969-6.717-15.817-10.12-26.536-10.123-5.53 0-11.559.906-18.086 2.731-4.317 1.208-8.772 2.8-13.36 4.783-2.445 5.678-3.813 10.944-4.093 15.775-.533 9.224 3.576 14.232 12.092 14.801.41.03.852.042 1.324.042 8.091 0 25.136-4.027 51.022-11.152 5.078 3.491 7.453 8.784 7.102 15.854-.371 7.407-4.158 15.979-11.38 25.779-3.745 5.155-9.305 11.773-16.684 19.905a382.047 382.047 0 0 1-9.904 10.421 122.06 122.06 0 0 1-8.222 2.545c-11.308 3.072-21.566 4.633-30.762 4.633-8.875 0-16.765-1.453-23.67-4.4l.977-22.006c6.176 3.205 15.127 5.232 26.885 6.218 3.634.305 7.111.46 10.43.46 7.4 0 14.001-.766 19.782-2.327 5.94-1.605 10.041-3.9 12.21-6.907 2.72-3.782 4.219-8.527 4.516-14.142.243-4.605-.51-8.34-2.284-11.032-1.648-2.495-4.015-3.781-6.94-3.781-.692 0-1.417.074-2.17.218-8.257 1.593-23.077 7.909-38.51 10.42a27.967 27.967 0 0 1-4.507.352c-6.665 0-13.273-2.164-17.529-4.745-.064-6.716-.01-11.484.162-14.3.695-11.482 3.5-20.016 8.409-25.582a3443.277 3443.277 0 0 1 29.851-25.29c21.107-4.778 31.696-7.014 52.94-11.17"/><path d="M180.658 114.275c3.54-.594 6.65-.893 9.297-.893 4.275 0 5.638.797 5.653.805a12.155 12.155 0 0 0 4.29 2.223c-.636.08-1.27.213-1.893.397-4.98 1.463-10.845 3.023-17.924 4.766l.577-7.298zM204.1 75.787c-.835 0-1.675.084-2.507.258-25.667 5.347-38.155 8.174-63.627 14.392a12.268 12.268 0 0 0-9.217 13.805c2.13 13.687 2.792 29.128 1.972 45.89-.808 16.453-2.807 32.245-5.945 46.939a12.27 12.27 0 0 0 12.01 14.828c1.182 0 2.373-.17 3.535-.518 14.746-4.432 28.373-8.034 40.506-10.708 10.27-2.265 15.86-3.04 18.74-3.293a12.273 12.273 0 0 0 11.198-11.697l.216-5.065.31-7.202a12.272 12.272 0 0 0-12.27-12.794c-1.021 0-2.05.128-3.062.388a1598.434 1598.434 0 0 0-18.813 4.932l.467-6.952c9.184-2.142 17.558-3.916 24.986-5.292a12.271 12.271 0 0 0 9.995-11.03l1.105-13.057a12.262 12.262 0 0 0-4.47-10.536 12.306 12.306 0 0 0-4.42-2.302 12.42 12.42 0 0 0 3.456-.974c4.206-1.875 6.964-5.982 7.21-10.58l.886-16.507c.204-3.801-1.37-7.484-4.263-9.965a12.277 12.277 0 0 0-7.998-2.96zm0 12.27c-.354 6.6-.53 9.903-.887 16.506-2.838-2.284-7.261-3.45-13.258-3.45-5.577 0-12.517 1.006-20.814 3.057-1.049 13.285-1.575 19.928-2.626 33.215 14.106-3.222 25.768-6.11 34.95-8.807l-1.105 13.057c-9.275 1.717-20.746 4.186-34.392 7.523l-1.773 26.363c-.084 1.794.606 3.163 2.065 4.106a5.52 5.52 0 0 0 3.062.895c.651 0 1.336-.1 2.056-.304a1650.194 1650.194 0 0 1 27.643-7.327c-.208 4.908-.314 7.361-.525 12.266-4.543.398-11.318 1.551-20.316 3.534-11.954 2.638-25.758 6.242-41.396 10.939 3.296-15.437 5.359-31.732 6.201-48.897.87-17.726.157-33.854-2.105-48.378 25.213-6.154 37.86-9.016 63.22-14.299z"/><path d="M287.221 55.03c-.89 0-1.792.099-2.69.3-13.23 2.964-19.676 4.468-32.856 7.658a12.274 12.274 0 0 0-9.238 10.016 12.262 12.262 0 0 0 5.714 12.367c.911.56 1.606 1.046 2.132 1.448-9.97 23.127-20.429 46.853-34.522 68.583-5.145 8.034-10.194 14.924-15.046 20.539a12.258 12.258 0 0 0-1.123 14.516 12.28 12.28 0 0 0 13.549 5.364c12.096-3.19 18.012-4.701 30.143-7.697a12.273 12.273 0 0 0 9.26-10.606c.49-4.566 2.44-12.862 8.694-27.143a1411.947 1411.947 0 0 1 21.617-3.7c3.104 7.903 5.67 15.446 7.657 22.515a12.281 12.281 0 0 0 11.812 8.957c.658 0 1.326-.054 1.997-.165 12.067-1.975 17.97-2.895 30.072-4.682a12.268 12.268 0 0 0 7.846-19.738c-2.917-3.693-10.24-15.228-26.517-51.014-5.331-11.658-11.095-25.065-17.136-39.876a12.282 12.282 0 0 0-11.365-7.642m-28.375 71.805c10.67-1.891 16.011-2.8 26.7-4.537-3.877-8.266-7.646-15.647-11.313-22.142-2.45 3.862-7.566 12.732-15.387 26.68m28.37-59.534c6.17 15.125 11.952 28.57 17.328 40.323 12.92 28.402 22.34 46.305 28.056 53.539-12.116 1.789-18.17 2.73-30.266 4.711-2.876-10.24-6.822-21.203-11.824-32.863-15.137 2.42-22.698 3.705-37.796 6.429-7.288 15.608-11.426 27.887-12.377 36.772-12.143 3-18.211 4.55-30.33 7.747 5.245-6.071 10.601-13.366 16.058-21.886 15.151-23.36 26.148-48.69 37.118-74.165.14-.58.226-1.208.25-1.882.133-3.698-2.829-7.418-8.865-11.116 13.047-3.158 19.577-4.68 32.649-7.61"/><path d="M379.136 93.745a87.84 87.84 0 0 1 .621-5.151c.916-5.995 3.254-7.457 7.497-7.98.3.84.44 1.89.413 3.134-.047 2.21-.656 4.326-1.86 6.45-.616.472-2.416 1.682-6.671 3.547m-9.113-49.663c-.862 0-1.732.091-2.591.278-13.138 2.834-19.547 4.272-32.658 7.327a12.28 12.28 0 0 0-8.433 6.97 12.261 12.261 0 0 0 .481 10.923c2.198 3.965 5.766 14.948 4.975 43.957-.378 13.915-1.846 29.88-4.361 47.453a12.268 12.268 0 0 0 12.153 14.007c.865 0 1.734-.091 2.596-.278 12.052-2.603 17.944-3.828 30.013-6.242 6.383-1.276 10.66-7.305 9.75-13.746-.678-4.8-1.258-9.484-1.74-14.043 10.553 12.318 22.26 24.091 35.736 32.574 15.535 9.778 29.903 14.948 41.548 14.948.884 0 1.766-.032 2.62-.09 1.732-.12 3.23-.366 4.583-.751a12.274 12.274 0 0 0 8.658-9.342 12.26 12.26 0 0 0-4.3-11.99c-4.24-3.432-8.454-6.89-12.524-10.276-9.466-8.203-17.835-16.482-24.87-24.611-6.803-7.864-12.228-15.42-16.208-22.56 4.587-3.853 8.457-8.242 11.566-13.13 4.403-6.925 6.495-13.11 6.395-18.907-.165-9.314-1.137-14.744-3.343-18.626-3.35-6.125-10.913-13.288-27.955-13.288h-.15c-.098 0-.197-.02-.295-.017-1.805.047-3.671.16-5.547.354-5.43.56-10.813 1.972-16.12 4.232a12.29 12.29 0 0 0-9.98-5.126m0 12.27c-.132 5.43-.198 8.143-.333 13.574 9.13-7.536 18.351-11.771 27.695-12.735 1.596-.167 3.133-.283 4.607-.283h.123c9.005 0 14.754 2.351 17.234 7.003 1.073 1.797 1.667 6.08 1.785 12.866.059 3.337-1.47 7.376-4.48 12.107-3.955 6.22-9.537 11.478-16.776 15.665 4.454 10.911 11.937 22.422 22.496 34.63 7.522 8.691 16.257 17.319 26.207 25.934 4.178 3.477 8.426 6.961 12.745 10.458-.503.145-1.193.25-2.062.309-.575.042-1.164.061-1.77.061-8.878 0-21.07-4.289-35.004-13.061-20.21-12.723-36.64-34.265-51.558-53.282 4.214-1.27 7.937-2.53 11.171-3.78 7.709-3.196 12.33-6.07 13.865-8.682 2.554-4.172 3.878-8.542 3.976-13.128.083-3.916-.707-7.322-2.365-10.218-1.658-2.898-3.83-4.654-6.517-5.26-.649-.197-1.476-.293-2.476-.293-.685 0-1.456.045-2.306.138-10.7 1.168-16.978 7.38-18.66 18.364-.762 4.969-1.189 10.855-1.356 17.569-.383 15.334.78 32.709 3.526 52.14-12.084 2.415-18.125 3.671-30.2 6.28 2.6-18.158 4.089-34.442 4.482-48.858.668-24.469-1.513-41.223-6.508-50.233 12.979-3.026 19.469-4.483 32.46-7.286"/><path d="M512.549 34.824h-.003c-3.627 0-7.333.55-11.014.726-9.643.461-18.422 1.81-25.39 3.467-2.686.638-8.97 2.25-38.232 23.134-.044.03-.086.118-.128.15-4.132 3.03-7.128 7.94-9.427 15.39-1.9 6.154-2.922 12.838-3.043 19.841-.316 18.58 5.292 33.868 16.675 45.42 12.55 12.742 31.214 19.206 55.469 19.206 3.099 0 6.345-.103 9.648-.31a12.292 12.292 0 0 0 7.608-3.273c5.12-4.772 7.679-7.15 12.79-11.888a12.263 12.263 0 0 0 2.96-13.756 12.284 12.284 0 0 0-11.922-7.49 105.2 105.2 0 0 1-5.12.13c-6.657 0-12.48-.716-17.302-2.13-13.345-3.773-19.52-10.914-20.758-23.909-.388-3.972-.56-7.55-.516-10.661.11-7.828 1.542-11.904 2.689-13.543 1.144-.238 3.48-.606 7.745-.849 1.871-.105 3.72-.16 5.496-.16 9.877 0 18.312 1.657 25.073 4.92a12.282 12.282 0 0 0 12.114-.81 12.262 12.262 0 0 0 5.493-10.818l-.95-20.035c-.302-6.37-5.435-11.908-11.812-12.141-2.687-.101-5.427-.611-8.143-.611m-.003 13.191c2.586 0 5.15.047 7.694.14.378 8.016.567 12.024.95 20.04-8.418-4.066-18.555-6.144-30.416-6.144-2.016 0-4.079.059-6.193.179-7.53.43-12.166 1.347-13.907 2.682-5.233 4.017-7.94 11.957-8.109 23.782-.051 3.575.138 7.575.573 12.001 1.718 18.058 11.544 29.438 29.524 34.52 6.012 1.762 12.934 2.626 20.758 2.626 1.86 0 3.767-.05 5.727-.148-5.118 4.749-7.681 7.131-12.811 11.911-3.055.192-6.017.29-8.88.29-20.736 0-36.384-5.05-46.72-15.54-9.044-9.182-13.405-21.42-13.148-36.598.101-5.914.948-11.396 2.5-16.419 1.442-4.672 3.087-7.714 4.958-9.086 18.578-13.26 29.928-20.114 33.938-21.068 5.749-1.367 13.516-2.459 23.133-2.918 3.516-.166 6.991-.25 10.43-.25"/><path d="M561.511 32.584a12.2 12.2 0 0 0-1.368.076c-12.057 1.35-17.946 2.054-29.994 3.592a12.268 12.268 0 0 0-8.604 5.281 12.244 12.244 0 0 0-1.734 9.938c2.372 9.246 3.526 21.775 3.43 37.24-.11 17.56-2.057 36.773-5.785 57.11a12.265 12.265 0 0 0 3.234 10.723 12.293 12.293 0 0 0 10.601 3.63c9.25-1.338 16.805-2.388 22.661-3.203 3.637-.505 6.626-.92 8.969-1.259 6.215-.895 10.753-6.333 10.517-12.602-.66-17.623-1.053-28.712-1.603-43.552 4.496-.24 8.845-.935 13.008-.935h.874c2.463 0 4.604.589 6.463.662-.268 10.834-1.574 25.566-3.9 43.349-.459 3.511.624 7.562 2.972 10.217 2.33 2.64 5.682 4.662 9.204 4.662h.069c4.87 0 8.892-.105 12.656-.105 6.677 0 12.718.105 22.29.105h.158c4.626 0 8.865-2.91 10.955-7.042 2.116-4.179 1.667-9.351-1.157-13.088-1.23-1.63-5.253-9.17-5.358-36.893-.057-14.52 1.151-32.09 3.59-52.145a12.304 12.304 0 0 0-2.917-9.54c-2.274-2.621-5.553-3.846-9.023-3.917-12.28-.248-18.275-.064-30.551-.064h-.052c-3.504 0-6.844 1.176-9.174 3.794-2.343 2.63-3.44 5.977-3.016 9.474.771 6.343 1.322 10.787 1.906 15.579-5.557.577-11.24.856-16.993.913-.384.005-.764-.015-1.145-.012l1.076-19.02a12.275 12.275 0 0 0-3.821-9.606 12.288 12.288 0 0 0-8.438-3.362m0 12.269c-.71 12.593-1.066 18.89-1.78 31.484 3.948.324 8.096.484 12.438.484.594 0 1.19-.003 1.792-.01 10.486-.103 20.663-1.009 30.522-2.734-1.35-11.051-2.026-16.575-3.367-27.624 12.141.051 18.212.127 30.353.373-2.503 20.585-3.738 38.465-3.679 53.635.086 22.645 2.692 37.351 7.839 44.16-9.172-.118-15.356-.17-22.448-.17-3.786 0-7.828.016-12.725.043 2.726-20.845 4.069-37.124 4.054-48.836-.005-2.674-.071-5.506-.194-7.403-4.187-.885-10.387-1.901-18.6-1.901h-.925c-7.937 0-16.49.996-25.662 1.828.81 21.937 1.218 33.177 2.04 55.114-6.114.881-16.656 2.434-31.636 4.599 3.887-21.206 5.871-40.878 5.987-59.173.103-16.62-1.176-30.047-3.816-40.333 11.925-1.522 17.885-2.201 29.807-3.536"/><path d="M702.985 120.249c-.506 0-1.034-.017-1.587-.047-7.15-.402-16.463-2.853-27.68-7.282-4.045-1.595-7.74-3.198-11.08-4.8 9.835 1.49 19.68 1.624 27.604 1.735 4.764.064 9.266.127 11.989.486.142.017.378.049.882.868.844 1.372 1.286 3.274 1.32 5.651.02 1.563-.117 2.643-.274 3.355-.327.02-.717.034-1.174.034m-24.35-60.888h.336c1.176 0 2.357-.368 3.511-.312 14.533.69 26.104 5.273 35.227 14.39-12.877-.857-27.921-2.33-33.47-4.435-4.821-1.83-5.752-3.74-5.78-7.263-.007-.89.052-2.38.175-2.38m-1.994-40.58c-1.972 0-3.922.475-5.682 1.393a2653.164 2653.164 0 0 0-29.744 15.714c-.734.393-1.429.861-2.07 1.396-7.824 6.525-11.588 17.17-11.51 32.547.017 3.139.297 8.144.855 15.302a12.27 12.27 0 0 0 4.216 8.328 69.742 69.742 0 0 0 4.762 3.747 12.266 12.266 0 0 0-9.25 12.163l.486 21.93a12.261 12.261 0 0 0 5.193 9.749c16.918 11.932 38.292 18.683 63.532 20.064a123.077 123.077 0 0 0 9.35.16 12.272 12.272 0 0 0 6.874-2.29c3.64-2.6 7.06-5.187 10.167-7.687 7.787-6.314 13.492-11.548 17.475-16.03 8.87-9.777 13.322-20.124 13.148-30.668-.167-10.294-4.42-19.66-12.299-27.087a12.294 12.294 0 0 0-2.143-1.62 12.267 12.267 0 0 0 2.389-6.888l1-31.366c.2-6.319-4.436-11.754-10.71-12.559-22.013-2.822-32.774-4.046-54.823-6.237a11.86 11.86 0 0 0-1.216-.062m0 12.27c21.797 2.166 32.693 3.405 54.477 6.197-.398 12.547-.599 18.818-1.002 31.365-11.672-13.773-27.33-21.28-47.05-22.214a86.935 86.935 0 0 0-4.094-.096 93.87 93.87 0 0 0-9.583.5c-2.175 4.933-3.246 9.8-3.207 14.596.074 9.147 4.688 15.559 13.698 18.977 7.839 2.974 25.91 4.665 53.839 6.058 5.515 5.202 8.332 11.334 8.447 18.367.12 7.366-3.219 14.789-10.048 22.317-3.539 3.98-8.865 8.839-16 14.625a214.102 214.102 0 0 1-9.608 7.265 111.216 111.216 0 0 1-8.408-.142c-22.804-1.249-41.878-7.084-57.122-17.837l-.49-21.929c6.737 5.3 16.304 10.333 28.715 15.23 12.414 4.903 22.922 7.64 31.504 8.123.794.044 1.552.066 2.277.066 4.855 0 8.207-.999 9.987-3.018 2.574-2.915 3.814-7.227 3.738-12.806-.062-4.574-1.098-8.594-3.134-11.906-2.347-3.818-5.68-6.078-9.744-6.613-8.477-1.114-24.329.13-39.605-2.223-8.873-1.367-17.772-6.834-23.496-11.774-.53-6.814-.804-11.618-.818-14.41-.06-11.376 2.31-19.074 7.1-23.064A2637.04 2637.04 0 0 1 676.64 31.05"/><path d="M745.728 39.811a12.291 12.291 0 0 0-8.737 3.65 12.258 12.258 0 0 0-3.455 10.052l2.586 21.952a12.269 12.269 0 0 0 7.603 9.94 12.278 12.278 0 0 0 12.377-1.892c3.565-2.922 7.985-4.343 13.508-4.343.467 0 .946.012 1.432.032.646 7.592 1.041 14.833 1.183 21.618.49 23.208-1.434 40.215-5.716 50.553a12.272 12.272 0 0 0 11.053 16.958c13.754.328 20.465.547 34.195 1.123a12.285 12.285 0 0 0 10.498-5.116 12.27 12.27 0 0 0 1.466-11.58c-4.204-10.828-6.534-24.902-6.927-41.836-.206-8.897.086-17.778.867-26.533 9.454 1.279 13.982 2.218 15.74 2.633a12.283 12.283 0 0 0 13.953-6.76l5.723-12.291a12.261 12.261 0 0 0-.41-11.15 12.288 12.288 0 0 0-9.28-6.206 7254.262 7254.262 0 0 0-96.38-10.737 12.447 12.447 0 0 0-1.279-.067m0 12.27c32.106 3.356 64.16 6.929 96.215 10.72-2.284 4.907-3.429 7.364-5.72 12.281-5.174-1.222-14.943-2.753-29.33-4.38-1.896 13.265-2.692 26.768-2.373 40.505.428 18.425 3.001 33.749 7.753 45.988-13.754-.576-20.64-.802-34.42-1.128 4.971-12.002 7.176-30.491 6.648-55.505-.208-9.935-.925-20.592-2.146-31.97a51.048 51.048 0 0 0-8.14-1.465 48.733 48.733 0 0 0-4.605-.226c-8.42 0-15.517 2.39-21.296 7.126-1.036-8.78-1.552-13.17-2.586-21.947"/><path d="M883.093 130.084c-4.777-8.107-7.21-15.837-7.441-23.623-.182-6.1.808-11.545 3.008-16.484 2.981.206 6.007.55 9.047 1.028 15.974 2.518 25.932 7.496 28.044 14.019 3.612 11.164 5.604 21.043 5.913 29.364.236 6.318-.324 14.121-3.904 17.971a49 49 0 0 1-3.62-.485c-13.383-2.253-23.538-9.381-31.047-21.79m5.542-75.63h-.002c-2.26 0-4.501-.452-6.663-.238-8.346.822-17.354 4.242-25.303 7.508-3.703 1.521-7.205 2.817-9.916 3.661-7.095 2.174-12.507 8.152-16.046 17.886-2.8 7.697-4.088 16.352-3.833 25.791.479 17.707 6.039 33.261 16.524 46.264 12.672 15.712 31.57 25.696 56.177 29.696 3.9.633 7.964 1.119 12.08 1.45a12.315 12.315 0 0 0 4.906-.604c21.06-7.081 28.65-8.88 30.937-9.324 3.3-.64 6.196-2.606 8.005-5.438 9.376-14.668 13.799-30.468 13.14-46.963-.731-18.41-8.113-34.458-21.938-48.8-8.549-8.964-33.523-20.89-58.068-20.89m31.794 110.31c.364 0 .722-.005 1.073-.017 8.895-4.682 13.025-14.924 12.433-30.814-.35-9.403-2.507-20.34-6.502-32.685-3.662-11.312-16.272-19.434-37.813-22.83-5.97-.942-11.81-1.88-17.526-1.88h-.43c-5.845 9.816-8.612 18.75-8.286 29.819.293 9.835 3.343 19.903 9.17 29.78 9.44 15.635 22.656 24.875 39.551 27.72 3.112.522 5.89.907 8.33.907m-31.796-99.16c21.264 0 43.188 11.36 49.227 17.692 11.723 12.161 17.904 25.998 18.513 41.337.558 13.996-3.16 27.261-11.22 39.869-4.97.964-15.768 4.107-32.51 9.739-3.817-.31-7.518-.756-11.1-1.337-21.377-3.475-37.688-11.779-48.587-25.292-8.82-10.939-13.405-23.941-13.81-38.914-.214-7.933.82-15.037 3.101-21.306 2.161-5.95 4.88-9.428 8.15-10.431 9.21-2.861 22.686-10.1 32.78-11.094 1.804-.179 3.629-.262 5.456-.262"/><path d="M953.227 69.75c-4.641 0-8.936 2.63-11.016 6.859a12.262 12.262 0 0 0 2.117 13.859c8.472 8.914 13.256 17.971 14.213 26.923.374 3.491.604 6.512.73 9.508.614 14.853.108 33.124-1.503 54.307-.494 6.463 4.13 12.195 10.557 13.084 8.663 1.2 12.892 1.81 21.534 3.111.609.09 1.22.135 1.83.135a12.265 12.265 0 0 0 12.24-13.223c-.942-12.044-1.66-21.201-2.361-30.236 21.863 21.387 43.696 43.619 59.614 68.33a12.281 12.281 0 0 0 22.58-7.407c-.218-3.458-.444-6.923-.67-10.39-1.412-21.691-2.873-44.121-2.073-65.7.197-5.337 1.154-11.481 2.846-18.258a114.18 114.18 0 0 1 2.446-8.324 12.27 12.27 0 0 0-8.801-15.841c-11.156-2.65-16.613-3.902-27.808-6.385a12.286 12.286 0 0 0-11.54 3.504 12.262 12.262 0 0 0-2.971 11.678c2.826 10.445 4.914 20.084 6.242 28.82-6.802-6.722-14.815-15.025-24.002-24.882-8.727-9.47-18.287-20.109-29.183-32.476a12.29 12.29 0 0 0-7.79-4.08 1572.741 1572.741 0 0 0-25.971-2.852 12.814 12.814 0 0 0-1.26-.064m.005 12.27a1529.04 1529.04 0 0 1 25.8 2.831c10.623 12.06 20.429 22.982 29.414 32.733 21.62 23.194 37.14 38.28 46.46 44.794.525-3.86.653-8.424.387-13.702-.668-13.24-3.428-28.785-8.25-46.595a1534.624 1534.624 0 0 1 27.628 6.344 126.306 126.306 0 0 0-2.72 9.258c-1.867 7.491-2.967 14.447-3.203 20.773-.95 25.647 1.15 51.616 2.758 77.312-22.494-34.918-55.538-64.334-84.717-93.318 1.952 25.125 2.932 37.688 4.897 62.817a1561.71 1561.71 0 0 0-21.677-3.128c1.665-21.846 2.164-40.426 1.53-55.748-.16-3.8-.464-7.27-.79-10.303-1.216-11.366-6.928-22.928-17.517-34.069"/><path d="M1126.468 152.393l-.147-6.046c7.183 3.276 10.604 6.372 12.185 8.32.361.445.749.86 1.16 1.24a716.443 716.443 0 0 1-13.198-3.514m-41.793-52.096c-3.158 0-6.24 1.217-8.56 3.474a12.258 12.258 0 0 0-3.387 11.634c3.651 15.338 5.967 31.685 6.888 48.584.891 16.424.508 31.505-1.142 44.831-.78 6.326 3.413 12.195 9.653 13.51 14.577 3.07 28.032 6.398 39.994 9.887 10.179 2.969 15.807 5.077 18.734 6.323a12.29 12.29 0 0 0 11.886-1.264 12.275 12.275 0 0 0 5.179-10.767l-.368-6.07-.379-6.253a12.274 12.274 0 0 0-9.223-11.15c-10.417-2.65-15.773-3.975-25.736-6.357l-.248-6.792a535.428 535.428 0 0 1 17.227 5.297 12.279 12.279 0 0 0 11.124-1.793 12.26 12.26 0 0 0 4.978-10.1l-.05-2.62-.198-10.218a12.268 12.268 0 0 0-9.592-11.734 12.267 12.267 0 0 0 8.845-12.399l-.145-2.896-.68-13.594a12.268 12.268 0 0 0-8.683-11.123c-25.176-7.665-37.528-11.196-62.945-17.993a12.303 12.303 0 0 0-3.172-.417m-.003 12.269c25.107 6.716 37.62 10.29 62.54 17.878l.827 16.49c-5.965-7.338-17.408-13.418-34.424-17.92.322 13.1.481 19.65.8 32.747 13.966 3.96 25.41 6.984 34.356 8.93.1 5.133.15 7.7.248 12.835-9.14-2.996-20.444-6.355-33.933-9.96.38 10.461.572 15.692.953 26.153.1 1.801.943 3.558 2.52 5.28 1.573 1.718 3.322 2.803 5.24 3.24a1538.53 1538.53 0 0 1 27.118 6.688c.3 4.93.447 7.394.747 12.323-4.526-1.923-11.223-4.22-20.103-6.809-11.802-3.445-25.424-6.856-40.9-10.114 1.752-14.149 2.15-29.814 1.214-47.003-.965-17.75-3.374-34.676-7.203-50.758"/></g><path d="M945.149 171.706c2.703-4.193 4.918-8.457 6.646-12.8a65.257 65.257 0 0 0 3.577-12.37v-.005a64.506 64.506 0 0 0 1.058-11.7v-14.95c0 3.96-.352 7.862-1.059 11.705v.004a65.257 65.257 0 0 1-3.577 12.364v.003c-1.728 4.34-3.943 8.607-6.646 12.8-4.974.964-15.759 4.078-32.51 9.665v14.953c16.752-5.59 27.538-8.7 32.51-9.668v-.001zM806.883 78.617c14.388 1.622 24.157 3.134 29.35 4.339V68.005c-5.193-1.205-14.962-2.719-29.35-4.34v.001a243.537 243.537 0 0 0-2.43 34.48v14.95c0-11.667.814-23.17 2.43-34.479zM866.69 94.58a46.122 46.122 0 0 1 4.717-8.863v-14.95a46.175 46.175 0 0 0-4.718 8.862v.003l.001-.003V94.58zm0 .001v-14.95 14.95zm-262.365 1.987c-4.172-.86-10.311-1.34-18.46-1.34-.355 0-.714.002-1.077.005-7.935.02-16.488.437-25.66 1.27V81.55l.597-.053V69.253c.729-12.492 1.083-18.74 1.79-31.256v14.95c-.654 11.574-1.006 17.788-1.631 28.536 8.886-.787 17.188-1.182 24.904-1.204.363-.002.722-.002 1.078-.002 8.148 0 14.287.478 18.46 1.34v.004c.11 1.884.176 4.162.176 6.813v14.95c0-2.65-.066-4.93-.177-6.816zM367.778 93.59c.344-1.872.83-3.596 1.458-5.174V73.466c-.629 1.578-1.115 3.305-1.46 5.18v.004c-.055.305-.106.615-.155.927-.752 4.932-1.194 10.785-1.348 17.45-.052 1.928-.077 3.888-.077 5.88v14.954c0-1.995.025-3.955.077-5.884.154-6.662.596-12.514 1.348-17.446.049-.317.1-.626.157-.935v-.005zm2.062-21.508l.19-7.715V49.417l-.332 13.481v9.487c-.162.352-.316.712-.462 1.08v14.953a20.415 20.415 0 0 1 2.08-3.958V69.51c-.546.8-1.038 1.658-1.476 2.573zm21.23-10.588v14.95c2.674.616 4.862 2.346 6.52 5.24 1.554 2.728 2.35 5.91 2.35 9.547v-14.95c0-3.637-.796-6.82-2.35-9.548-1.658-2.893-3.846-4.626-6.52-5.24-.65-.18-1.471-.277-2.463-.277-.693 0-1.471.047-2.333.145-6.773.724-11.775 3.465-14.958 8.147v14.953c3.183-4.682 8.185-7.425 14.958-8.146.862-.101 1.64-.148 2.333-.148.992 0 1.812.098 2.463.278V61.495zm29.847 25.57c.142-.769.213-1.506.213-2.214v-14.95c0 .706-.071 1.447-.214 2.218v.002c-.204 1.113-.557 2.29-1.05 3.532v14.951c.494-1.244.847-2.422 1.051-3.536v-.002zm44.257-21.463c.604-1.513 1.31-2.868 2.121-4.062.977-1.439 2.105-2.644 3.384-3.618 1.746-1.337 6.365-2.235 13.902-2.675 2.097-.115 4.142-.174 6.139-.174 11.888 0 22.04 2.059 30.46 6.093v14.95c-8.42-4.033-18.572-6.092-30.46-6.092-1.997 0-4.042.059-6.14.177-7.536.436-12.155 1.337-13.901 2.672-1.28.974-2.406 2.18-3.383 3.616-.81 1.195-1.518 2.55-2.121 4.063-.732 1.843-1.312 3.919-1.737 6.233V71.834c.425-2.313 1.004-4.391 1.736-6.231zM240.339 183.343c.126-1.159.305-2.377.54-3.654v-.006c1.01-5.476 3.028-12.016 6.052-19.614 1.635-4.106 3.563-8.52 5.785-13.24v-14.951c-2.222 4.72-4.15 9.135-5.786 13.24-3.025 7.6-5.043 14.141-6.052 19.62v.007a49.215 49.215 0 0 0-.54 3.65c-12.155 2.96-18.21 4.516-30.322 7.674v14.95c12.112-3.155 18.167-4.713 30.323-7.672v-.004zm45.197-57.048v-11.427c-3.867-8.198-7.647-15.517-11.293-21.963v14.953c3.154 5.573 6.407 11.804 9.731 18.688a1527.083 1527.083 0 0 0-22.907 3.851c6.577-11.598 10.963-19.1 13.176-22.541v-14.95c-2.454 3.812-7.581 12.624-15.405 26.478v11.405c-1.913.338-3.939.698-6.122 1.088v14.953c15.095-2.697 22.654-3.968 37.793-6.38V125.5c-1.751.278-3.4.542-4.973.795zM167.03 141.3v-11.55c1.038-13.192 1.569-19.769 2.63-32.963v-.003c8.29-2.037 15.222-3.038 20.797-3.038 5.997 0 10.42 1.16 13.26 3.433v14.95c-2.84-2.272-7.263-3.43-13.26-3.43-5.575 0-12.507.999-20.797 3.038-.964 11.986-1.49 18.51-2.357 29.497 13.296-3.21 24.49-5.599 33.564-7.275v14.951c-9.26 1.71-20.731 4.167-34.39 7.477v-14.954l.553-.133zm-70.15 61.29c3.536-3.574 6.85-7.016 9.9-10.346 7.383-8.068 12.952-14.644 16.687-19.75a98.802 98.802 0 0 0 2.406-3.381c2.886-4.247 5.073-8.244 6.571-12.003.935-2.345 1.598-4.593 1.996-6.75v-.005a26.376 26.376 0 0 0 .444-4.778v14.951c0 .44-.012.886-.034 1.337a26.322 26.322 0 0 1-.41 3.435v.005c-.397 2.159-1.06 4.412-1.996 6.757-1.498 3.758-3.685 7.757-6.57 12.002a98.86 98.86 0 0 1-2.407 3.383c-3.735 5.106-9.304 11.682-16.686 19.748-3.05 3.332-6.365 6.772-9.9 10.344a126.254 126.254 0 0 1-8.222 2.546c-11.309 3.042-21.564 4.59-30.758 4.59-8.88 0-16.772-1.442-23.678-4.372v-14.951c6.906 2.927 14.798 4.37 23.678 4.37 9.194 0 19.45-1.546 30.758-4.59 2.784-.766 5.524-1.6 8.22-2.543zm31.56-119.922v14.95c-1.215 12.694-1.834 19.05-3.05 31.763V114.43c1.216-12.713 1.835-19.071 3.05-31.762zm-3.05 31.761v14.951c-6.968-6.65-15.816-10.031-26.538-10.031-5.53 0-11.556.898-18.084 2.711-4.331 1.183-8.774 2.783-13.37 4.734v-14.951c4.596-1.95 9.039-3.55 13.37-4.736 6.528-1.81 12.554-2.711 18.084-2.709 10.722 0 19.57 3.379 26.539 10.031zm-57.993-2.586v14.95c-.265.616-.52 1.225-.759 1.829v-14.954c.239-.603.494-1.212.76-1.825zm-.76 1.825v14.951c-1.309 3.288-2.232 6.424-2.782 9.413V123.08c.55-2.987 1.473-6.122 2.782-9.41zm-2.782 9.411v14.95a37.432 37.432 0 0 0-.548 4.437c-.029.523-.044 1.033-.044 1.529v-14.95c0-.497.015-1.007.044-1.53.089-1.44.27-2.92.548-4.436zm-26.759 35.342v14.951c-.02-1.94-.03-3.72-.03-5.334v-14.951c0 1.612.01 3.39.03 5.334zm71.962 6.874v14.951c0-3.815-.768-6.959-2.32-9.305-1.64-2.475-3.998-3.751-6.91-3.751-.703 0-1.435.073-2.196.22-8.266 1.58-23.074 7.848-38.523 10.326a28.295 28.295 0 0 1-4.53.356c-6.645 0-13.237-2.15-17.482-4.719v-14.95c4.245 2.568 10.837 4.718 17.482 4.718 1.515 0 3.035-.113 4.53-.358 15.45-2.476 30.257-8.746 38.523-10.323.761-.15 1.493-.224 2.195-.224 2.913 0 5.27 1.279 6.91 3.752 1.553 2.348 2.321 5.49 2.321 9.307zm95.544-84.512v14.95l-.884 16.397V97.18l.884-16.396zm-60.755 48.05v14.95c0-12.116-.82-23.406-2.456-33.845V94.99c1.636 10.438 2.456 21.728 2.456 33.845zm58.125-7.828v14.95c-.442 5.198-.663 7.784-1.105 12.957V133.96c.442-5.173.663-7.76 1.105-12.954zm-35.495 20.429v14.95l-1.768 26.173v-14.951l1.768-26.172zm-1.768 26.172v14.95a6.342 6.342 0 0 0-.007.302v-14.953c0-.098.002-.199.007-.3zm34.832-2.609v14.951c-.221 4.868-.332 7.3-.53 12.166v-14.951c.198-4.866.309-7.3.53-12.166zm-.53 12.166v14.95c-4.554.395-11.317 1.536-20.312 3.51-11.957 2.63-25.77 6.202-41.396 10.87v-14.951c15.626-4.67 29.44-8.243 41.396-10.873 8.995-1.973 15.758-3.111 20.311-3.506zm64.428-98.524v14.95c0-3.602-2.961-7.206-8.867-10.808V67.828c5.906 3.605 8.867 7.207 8.867 10.812zm69.151 74.806v14.951c-12.112 1.777-18.167 2.72-30.257 4.67v-14.951c12.09-1.95 18.145-2.893 30.257-4.67zm-30.257 4.67v14.95c-2.873-10.146-6.829-21.041-11.824-32.615V125.5c4.995 11.572 8.951 22.466 11.824 32.615zm161.105-86.282v14.95c-.525 2.87-.817 6.101-.871 9.698-.003.349-.005.702-.005 1.06V82.59c0-.358.002-.712.005-1.06.054-3.595.346-6.827.871-9.695zm-43.573 3.818v14.951c-.746 1.872-1.817 3.892-3.202 6.054-.209.326-.422.65-.64.971v-14.95c.218-.322.431-.646.64-.975 1.385-2.161 2.456-4.178 3.202-6.05zm-3.843 7.024v14.951c-3.912 5.76-9.29 10.647-16.156 14.57V97.246c6.866-3.924 12.244-8.812 16.156-14.569zM344.2 98.348v14.95c0-19.885-2.223-33.793-6.636-41.696V56.65c4.413 7.901 6.636 21.812 6.636 41.697zm174.948 31.798v14.951a3311.266 3311.266 0 0 0-12.819 11.837v-14.95c5.128-4.758 7.691-7.124 12.819-11.838zm-12.819 11.837v14.95c-3.043.19-5.992.285-8.843.285-20.74 0-36.406-5.005-46.742-15.429-8.8-8.858-13.162-20.568-13.162-35.033v-14.95c0 14.462 4.361 26.174 13.162 35.03 10.336 10.426 26.001 15.43 46.742 15.43 2.851 0 5.8-.094 8.843-.283zm-136.541 6.795v14.95c-12.09 2.39-18.123 3.64-30.19 6.226v-14.951c12.067-2.586 18.1-3.835 30.19-6.225zm91.543 18.96v14.95c-.508.156-1.194.266-2.078.33-.567.039-1.151.059-1.748.059-8.865 0-21.072-4.263-35.006-12.969-20.223-12.624-36.644-34.019-51.562-52.89v-14.954c14.918 18.874 31.34 40.266 51.562 52.894 13.934 8.706 26.14 12.968 35.006 12.968.597 0 1.181-.02 1.748-.06.884-.065 1.57-.173 2.078-.328zm143.15-100.72V81.97c-1.348-10.98-2.011-16.46-3.36-27.42V39.596c1.349 10.959 2.012 16.44 3.36 27.421zm-68.95 12.647v14.951c0-15.608-1.284-28.306-3.83-38.117V41.55c2.546 9.807 3.83 22.508 3.83 38.116zm95.936-39.695v14.95c-2.434 19.91-3.672 37.281-3.672 52.07V92.037c0-14.79 1.238-32.157 3.672-52.067zm4.155 97.059v14.95c-9.371-.114-15.619-.164-22.914-.164-3.647 0-7.557.013-12.25.035v-14.954c4.693-.022 8.603-.031 12.25-.031 7.295 0 13.543.046 22.914.164zm-74.46-1.052v14.95c-6.1.88-16.642 2.28-31.626 4.43v-14.954c14.984-2.147 25.527-3.55 31.627-4.426zm108.23-96.03V54.9c-.24.537-.466 1.074-.68 1.61V41.556c.214-.537.44-1.072.68-1.61zm-.68 1.61v14.95a36.315 36.315 0 0 0-1.997 6.854V48.407a36.293 36.293 0 0 1 1.997-6.85zm-1.997 6.851v14.95a31.698 31.698 0 0 0-.528 5.743V54.15c0-1.907.175-3.82.528-5.742zm64.406-17.951v14.95l-.994 31.127V61.583l.994-31.126zm-.994 31.125v14.951c-11.692-13.655-27.34-21.107-47.054-22.05a89.438 89.438 0 0 0-3.988-.088c-3.17 0-6.4.167-9.693.506V39.947a93.312 93.312 0 0 1 13.68-.417c19.715.945 35.363 8.397 47.055 22.052zm-89.4 15.453v14.951c-.53-6.75-.796-11.527-.818-14.29V62.745c.022 2.76.288 7.54.818 14.29zm75.987 32.687v14.95c0-.137 0-.279-.003-.419-.066-4.537-1.105-8.527-3.138-11.815-2.343-3.79-5.68-6.026-9.747-6.554-8.465-1.116-24.311.133-39.605-2.213-8.863-1.36-17.77-6.773-23.494-11.683V77.035c5.724 4.91 14.631 10.326 23.494 11.682 15.294 2.346 31.14 1.097 39.605 2.216 4.067.525 7.404 2.76 9.747 6.554 2.033 3.288 3.072 7.276 3.138 11.813.003.142.003.282.003.422zm-75.744 13.805v14.95c-.177-8.7-.287-13.041-.486-21.742v-14.951c.199 8.7.31 13.042.486 21.743zm101.205-25.668v14.95c0 1.427-.13 2.852-.393 4.28v-14.95c.262-1.431.393-2.857.393-4.28zm-.394 4.28v14.95a26.666 26.666 0 0 1-1.471 5.052v-14.95a26.666 26.666 0 0 0 1.47-5.053zm-1.472 5.051v14.951c-.891 2.236-2.1 4.48-3.63 6.73v-14.95c1.53-2.253 2.739-4.495 3.63-6.73zm-3.63 6.73v14.951c-1.291 1.905-2.814 3.811-4.562 5.728-3.537 3.967-8.863 8.789-16.002 14.533a211.015 211.015 0 0 1-9.614 7.212V141.39a207.446 207.446 0 0 0 9.614-7.212c7.139-5.742 12.465-10.564 16.002-14.531 1.748-1.917 3.27-3.826 4.562-5.728zM706.5 141.391v14.951a120.634 120.634 0 0 1-8.398-.152c-22.809-1.227-41.882-7.038-57.132-17.712v-14.95c15.25 10.673 34.323 16.482 57.132 17.708a118.11 118.11 0 0 0 8.398.155zm75.852-79.83v14.95a53.45 53.45 0 0 0-8.133-1.445 48.55 48.55 0 0 0-4.595-.223c-8.43 0-15.522 2.368-21.308 7.062V66.95c5.786-4.691 12.878-7.06 21.308-7.06 1.488 0 3.02.075 4.595.222 2.696.265 5.415.746 8.133 1.447zm-34.036 5.392v14.95c-1.039-8.7-1.547-13.063-2.586-21.764V45.188c1.039 8.7 1.547 13.064 2.586 21.765zm93.621-11.135v14.95c-2.276 4.869-3.426 7.323-5.702 12.188v-14.95l5.702-12.188zm29.726 14.576v14.95l-.255.374V70.767c.083-.125.17-.25.255-.373zm-7.483 17.992v14.951a51.817 51.817 0 0 0-.832 9.396V97.779c0-3.246.277-6.377.832-9.393zm-79.607 11.939v14.95c0-2.279-.025-4.62-.076-7.024-.2-9.862-.929-20.428-2.144-31.738V61.56c1.215 11.312 1.945 21.875 2.144 31.74.051 2.402.076 4.743.076 7.025zm149.424 28.921v14.951c0-.92-.017-1.862-.052-2.824-.353-9.34-2.52-20.19-6.52-32.442-3.646-11.223-16.266-18.827-37.793-22.204-5.984-.922-11.841-1.381-17.57-1.381h-.398V70.395c.133-.003.265-.003.398-.003 5.729 0 11.586.462 17.57 1.382 21.527 3.376 34.147 10.983 37.793 22.207 4 12.251 6.167 23.102 6.52 32.439.035.964.052 1.906.052 2.826zm37.81 3.168v14.95c0-4.74-.089-9.23-.268-13.466a147.546 147.546 0 0 0-.796-10.237c-1.215-11.287-6.917-22.751-17.504-33.82V74.887c10.587 11.07 16.289 22.533 17.504 33.823.332 3.001.641 6.444.796 10.235.18 4.235.268 8.725.268 13.469zm102.856-31.31v14.95a132.99 132.99 0 0 0-2.718 9.185 128.714 128.714 0 0 0-1.729 7.933v-14.954a129.04 129.04 0 0 1 1.729-7.93 132.59 132.59 0 0 1 2.718-9.185zm-4.447 17.115v14.951c-.82 4.466-1.321 8.704-1.476 12.696a355.112 355.112 0 0 0-.238 13.248v-14.953c0-4.425.073-8.841.238-13.248.155-3.99.656-8.23 1.476-12.694zm-14.78 27.843v14.95c0-1.585-.045-3.25-.133-4.998-.686-13.152-3.448-28.584-8.266-46.249V94.812c4.818 17.667 7.58 33.099 8.266 46.251.088 1.745.132 3.411.132 4.999zm-243.159 3.44v14.95c-13.747-.57-20.642-.787-34.434-1.116v-14.954c13.792.33 20.687.55 34.434 1.12zm100.362 16.92v14.952a145.149 145.149 0 0 1-11.095-1.313c-21.372-3.465-37.683-11.707-48.579-25.122-8.818-10.848-13.415-23.76-13.813-38.62-.02-.692-.03-1.377-.03-2.054V99.312c0 .68.01 1.364.03 2.054.398 14.862 4.995 27.772 13.813 38.622 10.896 13.415 27.207 21.657 48.579 25.12 3.58.569 7.293 1.008 11.095 1.315zm79.056 10.96v14.952c-8.664-1.294-12.995-1.93-21.681-3.112v-14.95c8.686 1.182 13.017 1.817 21.681 3.11zm79.808 30.271v14.951c-22.5-34.652-55.54-63.85-84.715-92.63v-14.953c29.174 28.78 62.216 57.978 84.715 92.632zm76.536-68.322v14.95c-5.967-7.275-17.416-13.326-34.433-17.797v-14.953c17.017 4.473 28.466 10.522 34.433 17.8zm-55.673 33.572v14.95c0-5.584-.162-11.356-.486-17.306-.972-17.623-3.381-34.414-7.205-50.371v-14.951c3.824 15.957 6.233 32.745 7.205 50.371.324 5.95.486 11.72.486 17.307zm56.646 2.748v14.95c-9.128-2.978-20.444-6.31-33.925-9.883v-14.953c13.481 3.572 24.797 6.905 33.925 9.886zm2.652 43.4v14.951c-4.53-1.928-11.228-4.186-20.112-6.772-11.802-3.418-25.417-6.795-40.888-10.038v-14.954c15.471 3.247 29.086 6.62 40.888 10.041 8.884 2.586 15.581 4.844 20.112 6.773z" fill="url(#b)"/><path d="M128.44 82.669c-1.215 12.69-1.834 19.049-3.05 31.762-6.968-6.653-15.816-10.031-26.538-10.034-5.53 0-11.556.9-18.084 2.712-4.331 1.185-8.774 2.785-13.37 4.735-2.454 5.654-3.802 10.87-4.09 15.673-.53 9.14 3.58 14.116 12.09 14.686.415.027.862.041 1.34.041 8.107 0 25.137-4.01 50.996-11.066 5.083 3.462 7.47 8.723 7.116 15.736-.376 7.344-4.155 15.849-11.382 25.58-3.735 5.107-9.305 11.683-16.686 19.75-3.05 3.33-6.366 6.773-9.902 10.346a126.693 126.693 0 0 1-8.221 2.542c-11.309 3.045-21.564 4.591-30.758 4.591-8.88 0-16.772-1.443-23.678-4.37.398-8.748.597-13.108.973-21.834 6.188 3.18 15.139 5.195 26.897 6.16 3.651.306 7.139.46 10.466.46 7.387 0 13.97-.76 19.746-2.301 5.923-1.6 10.034-3.88 12.2-6.86 2.719-3.748 4.222-8.461 4.509-14.051.243-4.56-.508-8.265-2.277-10.937-1.64-2.476-3.997-3.752-6.91-3.752-.7 0-1.434.074-2.195.221-8.266 1.58-23.074 7.848-38.523 10.326a28.295 28.295 0 0 1-4.53.356c-6.646 0-13.237-2.147-17.483-4.719-.066-6.662-.022-11.398.155-14.18.685-11.4 3.492-19.861 8.399-25.385a3732.036 3732.036 0 0 1 29.858-25.12c21.107-4.732 31.694-6.948 52.933-11.068zm76.162-1.885l-.884 16.396c-2.841-2.272-7.264-3.433-13.261-3.433-5.574 0-12.507 1.001-20.797 3.038-1.061 13.196-1.592 19.772-2.63 32.966 14.1-3.2 25.77-6.07 34.942-8.745-.442 5.195-.663 7.781-1.105 12.954-9.26 1.71-20.731 4.166-34.39 7.474l-1.768 26.172c-.088 1.776.597 3.136 2.055 4.078.919.58 1.936.874 3.055.874.656 0 1.346-.101 2.073-.305 11.05-2.981 16.576-4.426 27.649-7.256-.221 4.866-.332 7.3-.53 12.166-4.554.395-11.317 1.534-20.312 3.507-11.957 2.63-25.77 6.203-41.396 10.872 3.294-15.343 5.349-31.499 6.189-48.55.862-17.581.155-33.605-2.1-48.003 25.218-6.118 37.86-8.967 63.21-14.205zm127.988 72.663c-12.112 1.774-18.167 2.716-30.257 4.667-2.873-10.146-6.829-21.041-11.824-32.616-15.14 2.412-22.698 3.684-37.793 6.38-7.293 15.496-11.426 27.684-12.377 36.517-12.155 2.96-18.211 4.515-30.323 7.673 5.238-6.029 10.587-13.262 16.046-21.723 15.161-23.169 26.146-48.31 37.13-73.606.133-.57.221-1.205.243-1.862.133-3.684-2.829-7.364-8.862-11.047 13.04-3.136 19.581-4.626 32.643-7.54 6.166 15.014 11.957 28.362 17.327 40.023 12.93 28.189 22.345 45.966 28.047 53.134zm180.05-112.3c2.557 0 5.086.046 7.589.137.398 7.958.574 11.925.95 19.883-8.418-4.037-18.572-6.093-30.458-6.093a107.19 107.19 0 0 0-6.142.174c-7.536.437-12.155 1.338-13.901 2.675-5.238 3.987-7.935 11.857-8.111 23.605-.045 3.531.132 7.519.574 11.904 1.724 17.93 11.537 29.217 29.527 34.26 5.99 1.749 12.898 2.6 20.702 2.6 1.874 0 3.799-.049 5.776-.144-5.128 4.71-7.691 7.079-12.819 11.834-3.04.19-5.99.282-8.84.282-20.741 0-36.406-5.003-46.745-15.427-9.061-9.118-13.415-21.262-13.15-36.32.089-5.875.95-11.312 2.498-16.308 1.436-4.626 3.094-7.651 4.95-9.01 18.587-13.15 29.925-19.97 33.948-20.912 5.746-1.36 13.504-2.431 23.118-2.893 3.55-.164 7.065-.248 10.535-.248zm-142.61 8.27l-.332 13.481c9.128-7.496 18.344-11.705 27.693-12.669a68.858 68.858 0 0 1 4.597-.309c9.138 0 14.887 2.368 17.372 6.971 1.06 1.799 1.657 6.051 1.768 12.802.066 3.31-1.459 7.322-4.465 12.01-3.956 6.182-9.547 11.399-16.797 15.543 4.465 10.826 11.957 22.268 22.5 34.39 7.536 8.615 16.266 17.186 26.212 25.735 4.177 3.44 8.42 6.903 12.752 10.367-.508.152-1.193.263-2.077.33-.568.038-1.152.058-1.749.058-8.865 0-21.072-4.265-35.006-12.97-20.222-12.625-36.644-34.017-51.562-52.892 4.2-1.249 7.934-2.498 11.161-3.747 7.713-3.18 12.333-6.029 13.88-8.615 2.541-4.142 3.867-8.483 3.956-13.042.088-3.88-.707-7.256-2.343-10.127-1.658-2.893-3.846-4.625-6.52-5.239-.65-.181-1.47-.277-2.463-.277-.692 0-1.47.047-2.333.145-10.697 1.141-16.974 7.322-18.653 18.217-.752 4.932-1.194 10.784-1.348 17.446-.398 15.214.773 32.464 3.514 51.753-12.09 2.39-18.123 3.639-30.19 6.225 2.585-18.018 4.088-34.193 4.486-48.487.663-24.285-1.525-40.924-6.52-49.865 12.973-3.004 19.471-4.451 32.467-7.234zm191.485-11.42a13921.96 13921.96 0 0 1-1.79 31.256c3.99.332 8.192.491 12.588.491.545 0 1.092-.002 1.645-.007 10.498-.11 20.665-1.009 30.522-2.72-1.348-10.98-2.011-16.459-3.36-27.42 12.134.044 18.212.132 30.345.373-2.497 20.428-3.735 38.183-3.668 53.22.088 22.489 2.674 37.089 7.823 43.84-9.37-.119-15.618-.168-22.914-.168-3.646 0-7.556.013-12.249.035 2.719-20.69 4.067-36.846 4.045-48.462 0-2.653-.066-4.933-.177-6.817-4.172-.861-10.311-1.342-18.46-1.342-.355 0-.714.002-1.077.005-7.935.022-16.488.436-25.66 1.27.818 21.766 1.216 32.66 2.033 54.426-6.1.876-16.642 2.28-31.627 4.429 3.89-21.044 5.88-40.64 5.99-58.788.11-16.507-1.172-29.855-3.824-40.07 11.935-1.512 17.88-2.214 29.815-3.55zm115.126-13.7c21.791 2.147 32.687 3.399 54.48 6.16-.399 12.45-.597 18.675-.995 31.126-11.692-13.656-27.34-21.11-47.054-22.053a89.438 89.438 0 0 0-3.988-.088c-3.17 0-6.4.167-9.693.506-2.188 4.887-3.248 9.71-3.204 14.49.066 9.073 4.685 15.431 13.703 18.827 7.823 2.96 25.902 4.625 53.816 6.007 5.525 5.172 8.354 11.243 8.465 18.236.11 7.3-3.227 14.664-10.056 22.138-3.536 3.968-8.863 8.79-16.001 14.534a209.214 209.214 0 0 1-9.615 7.212 120.634 120.634 0 0 1-8.398-.155c-22.809-1.227-41.882-7.035-57.132-17.711-.177-8.701-.287-13.042-.486-21.743 6.74 5.239 16.31 10.237 28.732 15.103 12.398 4.866 22.919 7.582 31.494 8.065.773.042 1.515.062 2.225.062 4.884 0 8.246-.99 10.041-2.999 2.564-2.893 3.802-7.167 3.735-12.713-.066-4.537-1.105-8.527-3.138-11.815-2.343-3.79-5.68-6.029-9.747-6.554-8.465-1.119-24.311.133-39.605-2.213-8.863-1.36-17.77-6.773-23.494-11.683-.53-6.752-.796-11.53-.818-14.293-.044-11.31 2.321-18.938 7.095-22.906 11.89-6.311 17.813-9.403 29.638-15.54zm69.088 20.89c32.113 3.332 64.16 6.86 96.207 10.63-2.276 4.868-3.426 7.321-5.702 12.187-5.194-1.204-14.963-2.716-29.35-4.34-1.88 13.152-2.675 26.567-2.365 40.2.42 18.28 3.005 33.494 7.757 45.638-13.747-.57-20.642-.79-34.434-1.12 4.973-11.9 7.183-30.247 6.653-55.082-.2-9.864-.928-20.43-2.144-31.74a53.459 53.459 0 0 0-8.133-1.447 49.362 49.362 0 0 0-4.595-.22c-8.43 0-15.522 2.365-21.308 7.059-1.039-8.701-1.547-13.064-2.586-21.765zm210.647 72.005c.552 13.896-3.16 27.048-11.228 39.565-4.972.964-15.758 4.076-32.51 9.666a145.135 145.135 0 0 1-11.095-1.316c-21.372-3.462-37.683-11.704-48.579-25.119-8.818-10.85-13.415-23.76-13.813-38.623-.221-7.869.818-14.926 3.094-21.129 2.166-5.919 4.884-9.359 8.155-10.367 9.217-2.83 22.676-10.02 32.776-11.005 1.805-.177 3.63-.26 5.457-.26 21.264 0 43.198 11.277 49.222 17.554 11.736 12.077 17.902 25.799 18.52 41.034zm-3.138-42.305a1460.675 1460.675 0 0 1 25.792 2.827c10.63 11.97 20.421 22.798 29.417 32.486 21.615 23.014 37.13 37.987 46.457 44.453.53-3.836.663-8.353.397-13.592-.685-13.15-3.447-28.582-8.265-46.249 11.072 2.434 16.598 3.683 27.626 6.292a132.59 132.59 0 0 0-2.718 9.184c-1.857 7.43-2.962 14.335-3.205 20.627-.95 25.448 1.15 51.225 2.763 76.74-22.5-34.656-55.54-63.853-84.715-92.634 1.945 24.946 2.94 37.418 4.907 62.36-8.664-1.292-12.996-1.928-21.681-3.11 1.657-21.68 2.166-40.135 1.525-55.326a147.667 147.667 0 0 0-.796-10.237c-1.216-11.287-6.918-22.752-17.504-33.82zm131.436 30.337c25.107 6.664 37.617 10.193 62.547 17.733.331 6.554.486 9.82.818 16.374-5.968-7.278-17.416-13.329-34.434-17.8.331 12.998.486 19.508.818 32.508 13.968 3.924 25.394 6.925 34.345 8.856.11 5.106.155 7.648.243 12.755-9.128-2.98-20.444-6.311-33.925-9.884.375 10.367.574 15.562.95 25.951.11 1.777.95 3.531 2.52 5.239 1.569 1.71 3.337 2.785 5.237 3.222 10.874 2.566 16.29 3.901 27.119 6.642.31 4.888.464 7.322.751 12.232-4.53-1.928-11.227-4.188-20.112-6.775-11.802-3.418-25.416-6.794-40.887-10.038 1.746-14.028 2.143-29.59 1.215-46.644-.972-17.623-3.381-34.414-7.205-50.371zM921.5 156.998c8.885-4.648 13.018-14.797 12.443-30.577-.354-9.34-2.52-20.19-6.52-32.441-3.646-11.224-16.266-18.828-37.793-22.205-5.982-.922-11.839-1.381-17.568-1.381h-.4c-5.835 8.416-8.62 18.128-8.288 29.131.287 9.754 3.337 19.508 9.172 29.306 9.437 15.52 22.654 24.572 39.561 27.399 3.087.532 5.86.785 8.3.785.374 0 .737-.005 1.093-.017zm-662.662-37.614c10.675-1.885 16.023-2.783 26.698-4.515-3.867-8.198-7.647-15.52-11.293-21.964-2.454 3.813-7.581 12.625-15.405 26.479z" fill="#F8DA1C"/></g></svg>