<svg width="474" height="119" viewBox="0 0 474 119" xmlns="http://www.w3.org/2000/svg"><title>logo searchstone</title><defs><linearGradient x1="29.542%" y1="-32.707%" x2="67.545%" y2="77.867%" id="a"><stop stop-color="#BB7D0C" offset="-8.722%"/><stop stop-color="#B87A0B" offset="0%"/><stop stop-color="#9F5100" offset="100%"/></linearGradient><radialGradient cx="47.958%" cy="-19.871%" fx="47.958%" fy="-19.871%" r="62.838%" id="b"><stop stop-color="#FBE25F" offset="0%"/><stop stop-color="#F4C131" offset="100%"/></radialGradient></defs><g fill="none" fill-rule="evenodd"><path fill="#2E2917" d="M49.795 35.436l-26.113 2.14L.127 59.43v41.685l2.81 9.44 27.286-1.264 14.486-6.814 8.973 2.687 55.173-17.257h47.564l29.013 6.623 15.775-11.26 53.654-3.1 29.668 3.1 13.479-6.557 6.681 8.978 30.666-2.42 21.432 11.259h22.44l7.964 5.505 24.373-8.154 12.946 15.806 44.26 10.446 4.3-6.578V57.182l-53.146-19.606-11.188 6.014-29.51-13.506-36.751-4.89-37.786-4.522-33.728-10.354-24.098 7.39h-49.246l-24.527 7.485-19.688-4.521-28.722 4.521-5.451 7.875-4.647-5.426-23.535 5.426-5.563 10.522-3.41-8.154-20.89 5.076z"/><path fill="#564A2C" d="M49.795 25.436l-26.113 2.14L.127 49.43v50.861h27.096l15.486-7.814 9.973 2.687 56.173-17.257h47.564l29.013 6.623 15.775-11.26 53.654-3.1 29.668 3.1 13.479-6.557 6.681 8.978 30.666-2.42 21.432 11.259h22.44l7.964 5.505 24.373-8.154 12.946 15.806 48.56 12.737V47.182l-53.146-19.606-11.188 6.014-29.51-13.506-36.751-4.89-37.786-4.522L270.961.318l-24.098 7.39h-49.246l-24.527 7.485-19.688-4.521-28.722 4.521-5.451 7.875-4.647-5.426-23.535 5.426-5.563 10.522-3.41-8.154-20.89 5.076z"/><path d="M16.538 74.66c.9 0 1.788-.07 2.64-.209 4.157-.677 8.112-1.94 11.29-2.955 1.177-.376 2.31-.738 3.245-.999.001.137-.002.289-.01.458-.07 1.301-.365 2.333-.879 3.068-.088.077-.628.509-2.244.946-1.903.514-4.175.775-6.752.775a45.87 45.87 0 0 1-3.83-.17c-3.724-.312-6.124-.862-7.655-1.395 1.392.313 2.818.481 4.195.481m9.11-22.246a35.58 35.58 0 0 1 2.883-.948c2.202-.616 4.227-.928 6.018-.928 2.722.001 4.933.717 6.731 2.186-5.275 1.417-12.922 3.354-15.739 3.354a3.267 3.267 0 0 1-.464-.032 4.598 4.598 0 0 1-.007-.728c.051-.882.244-1.854.577-2.904m20.957-20.8c-.32 0-.642.03-.96.093-8.756 1.715-13.015 2.614-21.703 4.583a5 5 0 0 0-2.11 1.047A1377.988 1377.988 0 0 0 9.638 47.675a4.932 4.932 0 0 0-.499.492c-2.743 3.112-4.313 7.63-4.664 13.428-.078 1.285-.102 3.306-.074 6.179A4.998 4.998 0 0 0 6.806 72c.622.378 1.29.721 1.99 1.026a5 5 0 0 0-5.158 4.775l-.398 8.968a5 5 0 0 0 3.031 4.821c3.41 1.455 7.313 2.194 11.603 2.194 4.147 0 8.803-.694 13.84-2.063a54.316 54.316 0 0 0 3.683-1.142 4.995 4.995 0 0 0 1.916-1.214 160.79 160.79 0 0 0 4.163-4.384c3.187-3.514 5.522-6.305 7.147-8.544 3.546-4.817 5.378-9.141 5.58-13.193.224-4.473-1.477-8.242-4.796-10.65.512-.708.84-1.551.926-2.455l1.248-13.05a4.998 4.998 0 0 0-4.977-5.475m0 5l-1.248 13.049c-2.838-2.737-6.44-4.124-10.806-4.125-2.252 0-4.707.369-7.365 1.113a42.765 42.765 0 0 0-5.44 1.949c-.996 2.314-1.553 4.46-1.667 6.429-.217 3.759 1.456 5.8 4.924 6.032.167.012.347.017.54.017 3.294 0 10.235-1.641 20.776-4.545 2.068 1.423 3.035 3.58 2.892 6.461-.15 3.019-1.693 6.512-4.634 10.506-1.525 2.101-3.789 4.798-6.794 8.112a155.646 155.646 0 0 1-4.033 4.247c-1.095.382-2.21.728-3.348 1.037-4.605 1.252-8.782 1.888-12.527 1.888-3.614 0-6.827-.592-9.639-1.793.16-3.587.24-5.381.398-8.968 2.515 1.306 6.16 2.132 10.948 2.534 1.48.124 2.896.187 4.247.187 3.014 0 5.702-.312 8.056-.948 2.42-.654 4.09-1.589 4.972-2.815 1.108-1.541 1.718-3.475 1.84-5.763.098-1.877-.209-3.399-.93-4.496-.672-1.017-1.636-1.541-2.827-1.541-.282 0-.577.03-.884.089-3.362.649-9.397 3.223-15.682 4.246a11.38 11.38 0 0 1-1.835.144c-2.714 0-5.405-.882-7.138-1.934-.026-2.737-.004-4.68.066-5.828.283-4.679 1.425-8.157 3.424-10.425 4.863-4.163 7.294-6.224 12.156-10.307 8.595-1.947 12.907-2.858 21.558-4.552" fill="#332D1E"/><path d="M67.866 46.571c1.442-.242 2.708-.364 3.786-.364 1.74 0 2.296.325 2.302.328a4.948 4.948 0 0 0 1.747.906 4.919 4.919 0 0 0-.771.162c-2.028.596-4.416 1.232-7.3 1.942l.236-2.974zm9.546-15.685c-.34 0-.682.034-1.021.105-10.452 2.179-15.537 3.331-25.91 5.865a5 5 0 0 0-3.753 5.626c.867 5.578 1.137 11.871.803 18.702-.33 6.705-1.143 13.141-2.421 19.129a5.003 5.003 0 0 0 6.33 5.832c6.005-1.806 11.554-3.274 16.495-4.364 4.182-.923 6.458-1.239 7.63-1.342a5 5 0 0 0 4.56-4.767l.089-2.064.126-2.935a5.003 5.003 0 0 0-6.243-5.056 650.504 650.504 0 0 0-7.661 2.01l.19-2.833A229.11 229.11 0 0 1 76.8 62.637a5 5 0 0 0 4.07-4.495l.45-5.321a5 5 0 0 0-3.62-5.232 5.055 5.055 0 0 0 1.407-.397c1.713-.764 2.836-2.438 2.936-4.312l.36-6.727a5 5 0 0 0-4.992-5.267zm0 5l-.361 6.727c-1.156-.931-2.957-1.406-5.4-1.406-2.27 0-5.096.41-8.475 1.246l-1.07 13.536c5.745-1.313 10.494-2.49 14.233-3.589l-.45 5.321c-3.777.7-8.448 1.706-14.005 3.066-.29 4.298-.433 6.446-.722 10.744-.034.731.247 1.289.84 1.673.376.243.792.365 1.248.365.265 0 .544-.041.837-.124a671.569 671.569 0 0 1 11.257-2.986l-.214 4.999c-1.85.162-4.61.632-8.273 1.44-4.868 1.075-10.49 2.544-16.857 4.458 1.342-6.291 2.182-12.932 2.525-19.927.354-7.224.064-13.797-.857-19.716 10.267-2.508 15.417-3.674 25.744-5.827z" fill="#332D1E"/><path d="M111.26 22.427c-.363 0-.73.04-1.096.122a668.32 668.32 0 0 0-13.379 3.12 5 5 0 0 0-1.435 9.123c.371.228.654.426.868.59-4.06 9.425-8.319 19.094-14.058 27.95-2.095 3.274-4.15 6.082-6.127 8.37a4.999 4.999 0 0 0 5.06 8.102c4.926-1.3 7.335-1.916 12.275-3.137a5 5 0 0 0 3.771-4.322c.2-1.861.993-5.242 3.54-11.062a574.56 574.56 0 0 1 8.803-1.508c1.264 3.22 2.31 6.295 3.118 9.176a5.002 5.002 0 0 0 5.623 3.583c4.914-.805 7.318-1.18 12.246-1.908a5 5 0 0 0 3.195-8.044c-1.188-1.505-4.17-6.206-10.798-20.79-2.17-4.751-4.518-10.215-6.978-16.251a5.001 5.001 0 0 0-4.628-3.114M99.705 51.69c4.345-.771 6.52-1.141 10.873-1.85-1.579-3.368-3.114-6.376-4.607-9.023-.998 1.574-3.08 5.189-6.266 10.873m11.553-24.262c2.512 6.164 4.867 11.643 7.056 16.433 5.261 11.575 9.097 18.87 11.425 21.819a662.375 662.375 0 0 0-12.325 1.92c-1.17-4.173-2.778-8.641-4.815-13.393-6.164.986-9.243 1.51-15.39 2.62-2.969 6.36-4.654 11.365-5.04 14.986a677.287 677.287 0 0 0-12.352 3.157c2.136-2.474 4.317-5.447 6.54-8.92 6.17-9.52 10.647-19.842 15.114-30.224.057-.236.092-.492.102-.767.054-1.507-1.152-3.023-3.61-4.53a669.17 669.17 0 0 1 13.295-3.101" fill="#332D1E"/><path d="M148.69 38.204c.07-.76.154-1.46.252-2.099.373-2.443 1.325-3.039 3.053-3.252.122.342.18.77.168 1.277-.019.901-.267 1.763-.757 2.63-.25.191-.984.684-2.717 1.444m-3.71-20.239c-.352 0-.706.037-1.056.113a686.384 686.384 0 0 0-13.299 2.986 5.001 5.001 0 0 0-3.238 7.292c.895 1.616 2.348 6.092 2.026 17.914-.154 5.671-.752 12.177-1.776 19.34a5.002 5.002 0 0 0 6.006 5.594 676.349 676.349 0 0 1 12.222-2.544 5 5 0 0 0 3.97-5.602 164.533 164.533 0 0 1-.708-5.723c4.297 5.02 9.064 9.818 14.552 13.275 6.326 3.985 12.177 6.092 16.92 6.092.36 0 .718-.013 1.066-.037a9.063 9.063 0 0 0 1.866-.306 5 5 0 0 0 1.775-8.693 488.09 488.09 0 0 1-5.1-4.188c-3.855-3.343-7.263-6.717-10.128-10.03-2.77-3.205-4.979-6.284-6.6-9.194a23.317 23.317 0 0 0 4.71-5.35c1.793-2.823 2.645-5.344 2.604-7.706-.067-3.796-.463-6.009-1.36-7.59-1.365-2.497-4.445-5.416-11.385-5.416h-.06c-.04 0-.08-.008-.12-.007-.736.02-1.496.065-2.26.144-2.21.228-4.403.804-6.564 1.725a5.002 5.002 0 0 0-4.064-2.089m0 5c-.054 2.213-.08 3.32-.136 5.532 3.718-3.07 7.473-4.797 11.278-5.19.65-.068 1.276-.115 1.876-.115h.05c3.667 0 6.008.958 7.018 2.854.437.732.68 2.478.727 5.243.024 1.36-.599 3.006-1.824 4.934-1.61 2.535-3.884 4.678-6.832 6.384 1.814 4.447 4.861 9.138 9.161 14.113 3.063 3.542 6.62 7.058 10.672 10.57a490.865 490.865 0 0 0 5.19 4.261 4.184 4.184 0 0 1-.84.126 9.95 9.95 0 0 1-.72.025c-3.616 0-8.58-1.748-14.255-5.323-8.23-5.185-14.92-13.964-20.995-21.714a63.641 63.641 0 0 0 4.55-1.54c3.138-1.303 5.02-2.474 5.645-3.539 1.04-1.7 1.58-3.48 1.62-5.35.033-1.596-.289-2.984-.964-4.164-.675-1.18-1.56-1.897-2.654-2.144-.264-.08-.6-.119-1.008-.119a8.67 8.67 0 0 0-.939.056c-4.357.476-6.914 3.008-7.599 7.484-.31 2.025-.484 4.424-.552 7.16-.156 6.25.318 13.33 1.436 21.25a672.963 672.963 0 0 0-12.298 2.558c1.06-7.4 1.665-14.036 1.825-19.91.272-9.973-.616-16.8-2.65-20.473a680.64 680.64 0 0 1 13.218-2.969" fill="#332D1E"/><path d="M203.017 14.192c-1.478 0-2.987.224-4.486.296-3.927.188-7.502.738-10.339 1.413-1.094.26-3.653.917-15.569 9.428-.018.012-.035.048-.052.06-1.683 1.236-2.903 3.237-3.839 6.273-.774 2.508-1.19 5.232-1.239 8.086-.129 7.572 2.155 13.802 6.79 18.51 5.111 5.193 12.711 7.827 22.588 7.827 1.262 0 2.584-.042 3.93-.126a5.004 5.004 0 0 0 3.097-1.334c2.085-1.945 3.127-2.914 5.208-4.845a5 5 0 0 0-3.649-8.658c-.714.035-1.415.053-2.085.053-2.71 0-5.082-.292-7.046-.868-5.434-1.538-7.949-4.448-8.453-9.744-.158-1.62-.228-3.077-.21-4.345.045-3.19.628-4.851 1.095-5.52.466-.096 1.417-.246 3.154-.345a39.928 39.928 0 0 1 2.238-.065c4.022 0 7.457.675 10.21 2.005a4.99 4.99 0 0 0 4.933-.33 4.998 4.998 0 0 0 2.237-4.41l-.387-8.164c-.123-2.596-2.213-4.853-4.81-4.948-1.094-.041-2.21-.25-3.316-.25m0 5.377c1.052 0 2.096.019 3.132.057.154 3.267.231 4.9.387 8.167-3.428-1.657-7.556-2.504-12.386-2.504-.82 0-1.66.024-2.522.073-3.066.175-4.954.549-5.663 1.093-2.13 1.637-3.233 4.873-3.302 9.692-.02 1.457.056 3.087.233 4.89.7 7.36 4.701 11.998 12.023 14.069 2.448.718 5.267 1.07 8.453 1.07.757 0 1.534-.02 2.332-.06a2769.482 2769.482 0 0 0-5.217 4.854c-1.244.078-2.45.118-3.616.118-8.444 0-14.816-2.058-19.025-6.333-3.683-3.742-5.459-8.73-5.354-14.915.041-2.41.386-4.644 1.018-6.691.587-1.904 1.257-3.144 2.02-3.703 7.564-5.404 12.186-8.197 13.82-8.586 2.34-.557 5.503-1.002 9.42-1.19a89.514 89.514 0 0 1 4.246-.101" fill="#332D1E"/><path d="M222.956 13.28c-.185 0-.371.01-.557.03-4.91.55-7.309.837-12.214 1.464a4.995 4.995 0 0 0-3.505 2.152 4.993 4.993 0 0 0-.706 4.05c.966 3.768 1.437 8.874 1.398 15.177-.046 7.156-.839 14.986-2.357 23.274a5 5 0 0 0 5.635 5.85c3.767-.546 6.843-.974 9.227-1.306 1.481-.206 2.698-.375 3.653-.513a5 5 0 0 0 4.282-5.136c-.269-7.182-.429-11.7-.653-17.749 1.832-.098 3.603-.38 5.298-.38h.356c1.002 0 1.875.24 2.632.27-.11 4.414-.641 10.418-1.588 17.665-.188 1.431.254 3.082 1.21 4.164.948 1.076 2.314 1.9 3.748 1.9h.028c1.983 0 3.62-.043 5.154-.043 2.718 0 5.178.043 9.076.043h.064c1.885 0 3.61-1.186 4.462-2.87a5.11 5.11 0 0 0-.471-5.334c-.501-.664-2.14-3.737-2.182-15.035-.023-5.917.469-13.078 1.462-21.25a5.017 5.017 0 0 0-1.189-3.889c-.925-1.068-2.26-1.567-3.673-1.596-5.001-.1-7.442-.026-12.441-.026h-.022c-1.427 0-2.786.48-3.736 1.546-.954 1.072-1.4 2.436-1.228 3.861l.776 6.35a74.153 74.153 0 0 1-6.92.371c-.155.002-.31-.006-.465-.005l.438-7.75a5.005 5.005 0 0 0-4.993-5.286m0 5c-.288 5.132-.434 7.698-.725 12.831a62 62 0 0 0 5.796.193c4.27-.042 8.413-.41 12.428-1.114-.55-4.504-.825-6.755-1.37-11.258 4.944.021 7.416.052 12.36.152-1.02 8.39-1.522 15.676-1.498 21.858.035 9.23 1.096 15.222 3.191 17.997a666.26 666.26 0 0 0-14.322-.052c1.11-8.495 1.656-15.129 1.65-19.902a53.625 53.625 0 0 0-.078-3.017c-1.706-.36-4.23-.775-7.575-.775h-.377c-3.232 0-6.715.406-10.45.745.33 8.94.496 13.521.831 22.461-2.49.36-6.782.992-12.882 1.874 1.583-8.642 2.39-16.659 2.438-24.115.041-6.773-.48-12.245-1.555-16.437 4.856-.62 7.284-.897 12.138-1.44" fill="#332D1E"/><path d="M280.566 49.006c-.206 0-.421-.007-.646-.02-2.912-.163-6.704-1.162-11.272-2.967a68.868 68.868 0 0 1-4.512-1.956c4.005.607 8.014.662 11.241.707 1.94.026 3.773.052 4.882.198.058.007.154.02.359.354.344.559.524 1.334.538 2.303.008.637-.048 1.077-.112 1.367a7.93 7.93 0 0 1-.478.014m-9.916-24.814h.137c.479 0 .96-.15 1.43-.127 5.918.28 10.63 2.149 14.345 5.864-5.244-.35-11.37-.95-13.63-1.807-1.963-.746-2.342-1.524-2.353-2.96-.003-.363.021-.97.071-.97m-.812-16.538c-.803 0-1.597.194-2.314.568a1080.119 1080.119 0 0 0-12.112 6.404c-.299.16-.582.35-.843.569-3.186 2.659-4.719 6.997-4.687 13.264.007 1.279.121 3.319.348 6.236a5.002 5.002 0 0 0 1.717 3.394c.456.394 1.114.932 1.939 1.527a5 5 0 0 0-3.767 4.957l.198 8.937a4.998 4.998 0 0 0 2.115 3.973c6.889 4.863 15.593 7.614 25.871 8.177a50.08 50.08 0 0 0 3.808.065 4.995 4.995 0 0 0 2.799-.933 91.391 91.391 0 0 0 4.14-3.133c3.171-2.573 5.494-4.706 7.116-6.533 3.612-3.984 5.425-8.201 5.354-12.498-.068-4.195-1.8-8.012-5.008-11.04a5.007 5.007 0 0 0-.873-.66c.588-.797.939-1.77.973-2.806l.407-12.783a5 5 0 0 0-4.361-5.118c-8.964-1.15-13.346-1.65-22.325-2.542a4.826 4.826 0 0 0-.495-.025m0 5c8.876.883 13.313 1.388 22.184 2.526-.162 5.113-.244 7.669-.408 12.782-4.753-5.613-11.129-8.672-19.16-9.053a35.374 35.374 0 0 0-1.667-.04c-1.277 0-2.577.069-3.902.205-.886 2.01-1.322 3.994-1.306 5.948.03 3.728 1.909 6.34 5.578 7.734 3.192 1.212 10.551 1.9 21.924 2.469 2.246 2.12 3.393 4.619 3.44 7.485.049 3.002-1.311 6.027-4.092 9.095-1.441 1.622-3.61 3.602-6.515 5.96a87.192 87.192 0 0 1-3.913 2.96 45.254 45.254 0 0 1-3.424-.058c-9.286-.508-17.053-2.886-23.261-7.268l-.199-8.937c2.743 2.16 6.639 4.21 11.693 6.207 5.055 1.998 9.334 3.113 12.829 3.31.323.018.632.027.927.027 1.977 0 3.342-.407 4.067-1.23 1.048-1.188 1.553-2.945 1.522-5.22-.025-1.863-.447-3.501-1.276-4.851-.956-1.556-2.313-2.477-3.968-2.695-3.452-.454-9.907.053-16.128-.906-3.613-.557-7.237-2.785-9.568-4.798-.216-2.777-.327-4.735-.333-5.873-.024-4.636.941-7.773 2.891-9.4 4.836-2.59 7.249-3.865 12.065-6.38" fill="#332D1E"/><path d="M297.972 16.224a4.998 4.998 0 0 0-4.965 5.584l1.053 8.947a5 5 0 0 0 8.136 3.28c1.452-1.191 3.252-1.77 5.5-1.77.19 0 .386.005.584.013.263 3.093.424 6.044.482 8.81.199 9.457-.584 16.389-2.328 20.602a4.998 4.998 0 0 0 4.5 6.91c5.602.135 8.335.224 13.926.459a5.001 5.001 0 0 0 4.872-6.804c-1.712-4.413-2.661-10.15-2.821-17.05a96.724 96.724 0 0 1 .353-10.813c3.85.52 5.694.903 6.41 1.072a5.001 5.001 0 0 0 5.682-2.755l2.33-5.008a5 5 0 0 0-3.946-7.073 2951.837 2951.837 0 0 0-39.247-4.377 5.065 5.065 0 0 0-.521-.027m0 5a2906.577 2906.577 0 0 1 39.18 4.37l-2.33 5.005c-2.106-.498-6.084-1.122-11.943-1.785a100.135 100.135 0 0 0-.966 16.507c.174 7.509 1.222 13.754 3.157 18.742a640.982 640.982 0 0 0-14.016-.46c2.024-4.892 2.922-12.427 2.707-22.62-.085-4.05-.377-8.392-.874-13.03a20.773 20.773 0 0 0-3.315-.596 19.83 19.83 0 0 0-1.875-.092c-3.43 0-6.32.973-8.672 2.904l-1.053-8.945" fill="#332D1E"/><path d="M353.909 53.014c-1.945-3.304-2.936-6.454-3.03-9.627-.074-2.486.329-4.705 1.225-6.718 1.214.084 2.446.224 3.684.419 6.505 1.026 10.56 3.055 11.42 5.713 1.47 4.55 2.282 8.576 2.408 11.967.096 2.575-.132 5.755-1.59 7.324a19.939 19.939 0 0 1-1.474-.198c-5.45-.918-9.585-3.823-12.643-8.88m2.257-30.822h-.001c-.92 0-1.833-.184-2.713-.097-3.4.335-7.067 1.729-10.304 3.06-1.508.62-2.934 1.148-4.038 1.492-2.89.886-5.093 3.322-6.534 7.289-1.14 3.137-1.665 6.664-1.561 10.51.195 7.217 2.459 13.556 6.729 18.855 5.16 6.403 12.856 10.472 22.876 12.102 1.588.258 3.243.456 4.919.59a5.011 5.011 0 0 0 1.998-.246c8.576-2.885 11.667-3.618 12.598-3.8a5 5 0 0 0 3.26-2.215c3.818-5.978 5.619-12.417 5.35-19.14-.297-7.502-3.303-14.042-8.933-19.887-3.481-3.653-13.651-8.513-23.646-8.513m12.947 44.955c.148 0 .294-.002.437-.007 3.622-1.908 5.304-6.082 5.063-12.558-.143-3.832-1.021-8.29-2.648-13.32-1.491-4.61-6.626-7.92-15.398-9.304-2.431-.384-4.81-.766-7.137-.766h-.175c-2.38 4-3.507 7.64-3.374 12.152.119 4.008 1.36 8.11 3.734 12.136 3.844 6.372 9.226 10.138 16.106 11.297 1.267.213 2.398.37 3.392.37m-12.948-40.411c8.659 0 17.587 4.629 20.046 7.21 4.774 4.956 7.29 10.595 7.539 16.846.227 5.704-1.287 11.11-4.57 16.248-2.023.393-6.42 1.674-13.238 3.969a56.843 56.843 0 0 1-4.52-.545c-8.705-1.416-15.347-4.8-19.785-10.307-3.592-4.458-5.46-9.757-5.624-15.86-.087-3.232.334-6.127 1.263-8.682.88-2.425 1.987-3.842 3.319-4.251 3.75-1.166 9.238-4.116 13.348-4.521a22.503 22.503 0 0 1 2.222-.107" fill="#332D1E"/><path d="M382.469 28.426a5.001 5.001 0 0 0-3.624 8.443c3.45 3.633 5.398 7.324 5.788 10.972.152 1.423.246 2.654.297 3.875.25 6.053.044 13.499-.612 22.132a4.999 4.999 0 0 0 4.299 5.332c3.528.489 5.25.738 8.769 1.268a4.998 4.998 0 0 0 5.729-5.334c-.383-4.908-.675-8.64-.961-12.322 8.903 8.716 17.794 17.776 24.276 27.847a5 5 0 0 0 9.195-3.02l-.273-4.233c-.575-8.84-1.17-17.981-.844-26.775.08-2.175.47-4.68 1.159-7.441a46.56 46.56 0 0 1 .996-3.392 5.002 5.002 0 0 0-3.584-6.456 644.211 644.211 0 0 0-11.324-2.602 5.001 5.001 0 0 0-5.909 6.187c1.15 4.257 2 8.185 2.542 11.745-2.77-2.74-6.033-6.123-9.774-10.14a795.75 795.75 0 0 1-11.884-13.235 5.003 5.003 0 0 0-3.172-1.663c-4.244-.496-6.32-.724-10.576-1.162a5.214 5.214 0 0 0-.513-.026m.002 5c4.208.432 6.309.663 10.506 1.154a807.47 807.47 0 0 0 11.978 13.34c8.804 9.452 15.124 15.6 18.919 18.255.214-1.573.266-3.433.158-5.584-.272-5.396-1.396-11.731-3.36-18.99 4.507 1 6.757 1.517 11.25 2.586a51.504 51.504 0 0 0-1.107 3.773c-.76 3.053-1.208 5.888-1.304 8.466-.387 10.452.468 21.035 1.123 31.507-9.16-14.23-22.616-26.218-34.498-38.03.795 10.239 1.194 15.359 1.994 25.6-3.527-.53-5.292-.786-8.827-1.275.678-8.903.88-16.475.623-22.72a64.27 64.27 0 0 0-.322-4.198c-.495-4.632-2.821-9.344-7.133-13.884" fill="#332D1E"/><path d="M453.015 62.105l-.06-2.464c2.925 1.335 4.318 2.597 4.962 3.391.147.181.305.35.472.505a291.57 291.57 0 0 1-5.374-1.432m-17.019-21.23a4.998 4.998 0 0 0-4.865 6.157c1.487 6.25 2.43 12.912 2.805 19.8.363 6.692.207 12.838-.465 18.27a5.001 5.001 0 0 0 3.931 5.505c5.936 1.251 11.415 2.607 16.286 4.03 4.145 1.21 6.437 2.068 7.63 2.576a5.008 5.008 0 0 0 4.84-.515 5.004 5.004 0 0 0 2.108-4.388l-.15-2.474-.154-2.548a5.001 5.001 0 0 0-3.756-4.544 632.452 632.452 0 0 0-10.48-2.59l-.1-2.769c2.521.733 4.866 1.455 7.014 2.16a4.996 4.996 0 0 0 4.53-.732 4.997 4.997 0 0 0 2.027-4.116l-.02-1.068-.08-4.164a4.999 4.999 0 0 0-3.907-4.782 5 5 0 0 0 3.602-5.053l-.059-1.18-.277-5.54a4.999 4.999 0 0 0-3.536-4.533c-10.252-3.124-15.282-4.563-25.632-7.333a5.006 5.006 0 0 0-1.292-.17m0 5c10.223 2.737 15.318 4.194 25.466 7.286l.337 6.72c-2.429-2.99-7.089-5.468-14.018-7.303l.326 13.346c5.687 1.614 10.347 2.846 13.99 3.64l.101 5.23c-3.722-1.22-8.325-2.59-13.818-4.059l.388 10.658c.041.734.384 1.45 1.026 2.152.641.7 1.353 1.142 2.134 1.32a626.103 626.103 0 0 1 11.043 2.726l.304 5.022c-1.843-.784-4.57-1.72-8.186-2.775-4.806-1.404-10.353-2.794-16.655-4.122.713-5.766.875-12.15.494-19.155-.393-7.234-1.374-14.132-2.933-20.686" fill="#332D1E"/><path d="M379.18 69.976a30.327 30.327 0 0 0 2.706-5.216 26.61 26.61 0 0 0 1.456-5.042v-.002c.288-1.565.43-3.153.43-4.767v-6.093c0 1.614-.142 3.204-.43 4.77v.001a26.61 26.61 0 0 1-1.457 5.04 30.365 30.365 0 0 1-2.706 5.217c-2.025.393-6.417 1.662-13.239 3.939v6.094c6.822-2.278 11.214-3.546 13.24-3.94v-.001zm-56.305-37.937c5.86.661 9.837 1.277 11.952 1.768v-6.093c-2.115-.49-6.093-1.108-11.952-1.769v.001a99.326 99.326 0 0 0-.99 14.052v6.093c0-4.755.332-9.443.99-14.052zm24.354 6.506a18.801 18.801 0 0 1 1.921-3.612V28.84a18.823 18.823 0 0 0-1.92 3.612v6.093zm0 0v-6.092zm-106.839.81c-1.699-.35-4.199-.546-7.517-.546-.145 0-.29 0-.439.002-3.23.008-6.714.178-10.449.518v-6.094l.243-.022v-4.99c.297-5.09.441-7.637.73-12.738v6.093c-.267 4.717-.41 7.249-.665 11.629 3.619-.32 7-.482 10.141-.49l.44-.001c3.317 0 5.817.195 7.516.546v.001c.045.768.072 1.697.072 2.777v6.093a48.2 48.2 0 0 0-.072-2.778zm-96.326-1.213c.14-.764.338-1.466.594-2.11V29.94a11.116 11.116 0 0 0-.594 2.11v.003c-.023.124-.044.25-.064.378-.306 2.01-.486 4.395-.549 7.11a89.784 89.784 0 0 0-.03 2.398v6.093c0-.813.01-1.611.03-2.397.063-2.715.243-5.1.55-7.11.02-.13.04-.255.063-.381v-.002zm.84-8.766l.077-3.144V20.14l-.135 5.494V29.5c-.066.144-.129.29-.188.44v6.094a8.322 8.322 0 0 1 .847-1.613v-6.093a7.982 7.982 0 0 0-.601 1.05zm8.645-4.315v6.093c1.089.251 1.98.956 2.655 2.135.633 1.112.957 2.41.957 3.891v-6.093c0-1.482-.324-2.779-.957-3.89-.675-1.18-1.566-1.886-2.655-2.136a3.79 3.79 0 0 0-1.003-.113c-.282 0-.599.02-.95.06-2.758.294-4.795 1.411-6.09 3.32v6.093c1.295-1.908 3.332-3.026 6.09-3.32a8.24 8.24 0 0 1 .95-.06c.404 0 .738.04 1.003.113v-6.093zm12.154 10.421c.058-.313.087-.614.087-.902v-6.093c0 .288-.029.59-.087.904a7.691 7.691 0 0 1-.428 1.44v6.093c.201-.507.345-.987.428-1.44v-.002zm18.023-8.747a8.657 8.657 0 0 1 .863-1.655 6.233 6.233 0 0 1 1.378-1.475c.711-.545 2.592-.91 5.661-1.09a45.509 45.509 0 0 1 2.5-.07c4.841 0 8.975.838 12.404 2.482v6.093c-3.429-1.644-7.563-2.483-12.404-2.483-.813 0-1.646.024-2.5.072-3.069.178-4.95.545-5.66 1.09-.522.396-.98.888-1.379 1.473a8.67 8.67 0 0 0-.863 1.656 13.493 13.493 0 0 0-.707 2.54v-6.093c.173-.943.409-1.79.707-2.54zM92.169 74.72c.051-.473.124-.97.22-1.49v-.002c.411-2.232 1.233-4.897 2.464-7.993a97.122 97.122 0 0 1 2.356-5.396v-6.093a97.293 97.293 0 0 0-2.356 5.396c-1.232 3.097-2.054 5.763-2.465 7.995v.003a20.072 20.072 0 0 0-.22 1.487 656.32 656.32 0 0 0-12.347 3.128v6.093c4.932-1.286 7.398-1.921 12.348-3.127v-.001zm18.405-23.25v-4.656c-1.575-3.341-3.114-6.324-4.599-8.951v6.094c1.285 2.271 2.61 4.81 3.963 7.616-3.447.556-6.01.986-9.328 1.57 2.678-4.727 4.464-7.785 5.365-9.187v-6.093c-.999 1.554-3.087 5.145-6.273 10.791v4.648l-2.493.443v6.094a691.84 691.84 0 0 1 15.39-2.6v-6.093l-2.025.324zm-48.258 6.116v-4.707c.423-5.376.64-8.056 1.071-13.434v-.001c3.376-.83 6.2-1.238 8.47-1.238 2.441 0 4.242.473 5.4 1.399v6.093c-1.158-.926-2.959-1.398-5.4-1.398-2.27 0-5.094.407-8.47 1.238-.392 4.885-.606 7.544-.96 12.021 5.415-1.308 9.973-2.282 13.668-2.965v6.093c-3.77.697-8.442 1.698-14.004 3.047V57.64l.225-.054zM33.75 82.562c1.44-1.456 2.79-2.859 4.032-4.216 3.006-3.288 5.274-5.968 6.795-8.049.346-.465.673-.925.98-1.377 1.175-1.731 2.066-3.36 2.675-4.892.381-.956.651-1.872.813-2.751v-.002a10.757 10.757 0 0 0 .181-1.947v6.093a10.735 10.735 0 0 1-.18 1.945v.002c-.163.88-.432 1.798-.813 2.754-.61 1.531-1.501 3.16-2.676 4.89a40.29 40.29 0 0 1-.98 1.38c-1.521 2.08-3.79 4.76-6.795 8.047a150.43 150.43 0 0 1-4.032 4.216 51.383 51.383 0 0 1-3.348 1.037c-4.605 1.24-8.78 1.871-12.525 1.871-3.616 0-6.83-.588-9.642-1.782v-6.093c2.812 1.193 6.026 1.781 9.642 1.781 3.744 0 7.92-.63 12.525-1.87a51.563 51.563 0 0 0 3.348-1.036zM46.602 33.69v6.093c-.495 5.173-.747 7.763-1.242 12.944v-6.093c.495-5.18.747-7.772 1.242-12.944zM45.36 46.634v6.093c-2.838-2.71-6.44-4.088-10.807-4.088-2.252 0-4.706.366-7.364 1.105-1.764.482-3.573 1.134-5.445 1.93V45.58c1.872-.795 3.681-1.447 5.445-1.93 2.658-.738 5.112-1.105 7.364-1.104 4.366 0 7.97 1.377 10.807 4.088zM21.744 45.58v6.093c-.108.251-.212.5-.309.745v-6.094c.097-.246.201-.494.31-.744zm-.31.744v6.093c-.532 1.34-.908 2.618-1.132 3.836V50.16c.224-1.217.6-2.495 1.133-3.835zm-1.132 3.835v6.093a15.266 15.266 0 0 0-.223 1.808c-.012.213-.018.421-.018.623V52.59c0-.202.006-.41.018-.623.036-.587.11-1.19.223-1.808zM9.405 64.563v6.093a216.38 216.38 0 0 1-.012-2.175V62.39c0 .656.004 1.381.012 2.173zm29.304 2.8v6.094c0-1.555-.313-2.836-.945-3.792-.668-1.01-1.628-1.53-2.814-1.53-.286 0-.584.03-.894.09-3.366.645-9.396 3.199-15.687 4.209-.609.099-1.228.145-1.845.145-2.706 0-5.39-.876-7.119-1.923v-6.093c1.73 1.047 4.413 1.923 7.12 1.923a11.4 11.4 0 0 0 1.844-.146c6.291-1.01 12.321-3.564 15.687-4.207.31-.061.608-.091.894-.091 1.186 0 2.146.52 2.814 1.529.632.957.945 2.237.945 3.793zm38.907-34.44v6.092l-.36 6.682v-6.093l.36-6.682zm-24.74 19.581v6.093c0-4.938-.334-9.539-1-13.793v-6.093c.666 4.254 1 8.855 1 13.793zm23.67-3.19v6.093l-.45 5.28v-6.094l.45-5.279zM62.09 57.64v6.093l-.72 10.666v-6.093l.72-10.666zm-.72 10.666v6.093a2.587 2.587 0 0 0-.003.123v-6.094l.003-.122zm14.184-1.063v6.093c-.09 1.984-.135 2.975-.216 4.958V72.2c.081-1.983.126-2.975.216-4.958zM75.34 72.2v6.093c-1.854.161-4.608.626-8.27 1.43-4.87 1.072-10.495 2.528-16.858 4.43V78.06c6.363-1.903 11.988-3.359 16.857-4.43 3.663-.805 6.417-1.269 8.271-1.43zm26.237-40.152v6.093c0-1.468-1.206-2.937-3.611-4.405v-6.094c2.405 1.47 3.61 2.937 3.61 4.406zm28.16 30.487v6.093a724.199 724.199 0 0 0-12.322 1.903v-6.093a724.199 724.199 0 0 1 12.321-1.903zm-12.322 1.902v6.093c-1.17-4.135-2.78-8.575-4.815-13.292v-6.093c2.034 4.716 3.645 9.156 4.815 13.292zm65.605-35.162v6.093c-.214 1.169-.333 2.486-.355 3.952l-.002.432v-6.094c0-.146 0-.29.002-.432.022-1.465.14-2.782.355-3.951zm-17.744 1.556v6.093c-.304.763-.74 1.586-1.304 2.467-.085.133-.172.265-.26.396v-6.093c.088-.131.175-.263.26-.397.564-.881 1-1.703 1.304-2.466zm-1.565 2.863v6.092c-1.593 2.347-3.783 4.34-6.579 5.938v-6.093c2.796-1.6 4.986-3.592 6.58-5.938zm-29.248 6.386v6.093c0-8.104-.905-13.772-2.702-16.993v-6.093c1.797 3.22 2.702 8.89 2.702 16.993zm71.242 12.96v6.092a1348.796 1348.796 0 0 0-5.22 4.824v-6.093c2.088-1.939 3.132-2.903 5.22-4.824zm-5.22 4.823v6.093c-1.239.077-2.44.116-3.6.116-8.447 0-14.826-2.04-19.035-6.288-3.584-3.61-5.36-8.382-5.36-14.277v-6.093c0 5.894 1.776 10.667 5.36 14.276 4.21 4.249 10.588 6.288 19.034 6.288 1.161 0 2.362-.038 3.601-.115zm-55.602 2.769v6.093c-4.923.974-7.38 1.483-12.294 2.537v-6.093a655.217 655.217 0 0 1 12.294-2.537zm37.278 7.727v6.093a3.99 3.99 0 0 1-.846.134 10.32 10.32 0 0 1-.712.024c-3.61 0-8.58-1.737-14.255-5.285-8.235-5.145-14.922-13.864-20.997-21.555v-6.094c6.075 7.692 12.762 16.41 20.997 21.556 5.674 3.548 10.645 5.285 14.255 5.285.243 0 .481-.008.712-.024.36-.027.64-.071.846-.134zm58.293-41.047v6.093c-.549-4.475-.819-6.708-1.368-11.175v-6.093c.55 4.466.82 6.7 1.368 11.175zm-28.077 5.154v6.093c0-6.36-.523-11.536-1.56-15.534v-6.093c1.037 3.997 1.56 9.173 1.56 15.534zm39.066-16.177v6.093c-.99 8.114-1.495 15.193-1.495 21.22v-6.094c0-6.027.504-13.105 1.495-21.219zm1.692 39.555v6.093a705.821 705.821 0 0 0-14.319-.053V55.79c1.911-.009 3.503-.013 4.988-.013 2.971 0 5.515.019 9.331.067zm-30.32-.429v6.093c-2.485.358-6.778.93-12.88 1.805V57.22c6.102-.875 10.395-1.447 12.88-1.804zm44.072-39.135v6.093c-.098.22-.19.438-.277.656v-6.093c.087-.219.18-.437.277-.656zm-.277.656v6.093a14.809 14.809 0 0 0-.813 2.793v-6.094a14.8 14.8 0 0 1 .813-2.792zm-.813 2.792v6.093a12.928 12.928 0 0 0-.215 2.34v-6.093c0-.777.071-1.557.215-2.34zm26.227-7.316v6.093l-.405 12.685v-6.093l.405-12.685zm-.405 12.685v6.093c-4.76-5.565-11.133-8.602-19.16-8.986a36.392 36.392 0 0 0-1.625-.036c-1.29 0-2.606.068-3.947.206V16.28a38.528 38.528 0 0 1 5.571-.17c8.028.385 14.4 3.422 19.161 8.987zm-36.405 6.298v6.093c-.216-2.751-.324-4.698-.333-5.824V25.57c.01 1.125.117 3.073.333 5.824zm30.943 13.32v5.923c-.028-1.85-.45-3.476-1.279-4.816-.954-1.545-2.313-2.456-3.969-2.67-3.447-.456-9.9.053-16.128-.903-3.609-.554-7.236-2.76-9.567-4.76v-6.095c2.331 2.001 5.958 4.208 9.567 4.761 6.228.956 12.681.447 16.128.903 1.656.214 3.015 1.125 3.97 2.671.827 1.34 1.25 2.965 1.277 4.814l.001.172zm-30.844 5.626v6.093c-.072-3.546-.117-5.315-.198-8.86V41.48c.081 3.546.126 5.315.198 8.861zm41.212-10.46v6.093c0 .58-.053 1.162-.16 1.744v-6.093a9.64 9.64 0 0 0 .16-1.744zm-.16 1.744v6.093a10.874 10.874 0 0 1-.599 2.059v-6.093c.274-.688.473-1.374.599-2.06zm-.6 2.059v6.093a14.345 14.345 0 0 1-1.477 2.743v-6.093a14.375 14.375 0 0 0 1.478-2.743zm-1.478 2.742v6.093a20.84 20.84 0 0 1-1.858 2.334c-1.44 1.617-3.608 3.582-6.515 5.923a85.934 85.934 0 0 1-3.916 2.94V57.62a84.48 84.48 0 0 0 3.916-2.939c2.906-2.34 5.075-4.305 6.515-5.922a20.93 20.93 0 0 0 1.858-2.334zm-12.289 11.196v6.093a49.086 49.086 0 0 1-3.42-.062c-9.288-.5-17.055-2.868-23.265-7.218v-6.093c6.21 4.35 13.977 6.717 23.265 7.217a48.059 48.059 0 0 0 3.42.063zm30.888-32.534v6.093a21.75 21.75 0 0 0-3.312-.589 19.755 19.755 0 0 0-1.87-.091c-3.434 0-6.322.965-8.678 2.878v-6.094c2.356-1.912 5.244-2.877 8.677-2.877.606 0 1.23.03 1.871.09 1.098.108 2.205.304 3.312.59zm-13.86 2.197v6.094c-.423-3.546-.63-5.324-1.053-8.87v-6.093c.423 3.546.63 5.323 1.053 8.87zm38.124-4.537v6.093l-2.322 4.967v-6.093l2.322-4.967zm12.105 5.94v6.093l-.104.152V28.84l.104-.152zm-3.047 7.332v6.093a21.133 21.133 0 0 0-.339 3.83v-6.095c0-1.323.113-2.599.339-3.828zm-32.418 4.866v6.093c0-.93-.01-1.883-.03-2.863-.082-4.02-.379-8.325-.874-12.934v-6.094c.495 4.61.793 8.915.874 12.935.02.979.03 1.933.03 2.863zm60.849 11.786v6.093c0-.375-.007-.759-.022-1.15-.143-3.807-1.025-8.229-2.654-13.222-1.486-4.574-6.625-7.673-15.39-9.049a46.886 46.886 0 0 0-7.156-.563h-.161v-6.093h.161c2.334 0 4.719.187 7.156.562 8.765 1.376 13.904 4.476 15.39 9.05 1.629 4.993 2.51 9.415 2.654 13.22.014.393.022.777.022 1.152zm15.396 1.291v6.093c0-1.932-.036-3.762-.109-5.488a60.176 60.176 0 0 0-.324-4.172c-.495-4.6-2.817-9.272-7.128-13.783V30.52c4.311 4.511 6.633 9.183 7.128 13.784.135 1.223.261 2.626.324 4.171.073 1.726.11 3.556.11 5.49zm41.885-12.76v6.093a54.23 54.23 0 0 0-1.107 3.743 52.488 52.488 0 0 0-.704 3.233v-6.094c.192-1.047.428-2.125.704-3.232.324-1.26.693-2.51 1.107-3.743zm-1.81 6.975v6.093c-.335 1.82-.539 3.547-.602 5.174a144.832 144.832 0 0 0-.097 5.4V58.75c0-1.803.03-3.603.097-5.399.063-1.626.267-3.354.601-5.173zm-6.02 11.347v6.093c0-.646-.018-1.325-.054-2.037-.279-5.36-1.404-11.649-3.366-18.848V38.64c1.962 7.2 3.087 13.49 3.366 18.85.036.71.054 1.39.054 2.036zm-99.018 1.402v6.093a665.87 665.87 0 0 0-14.022-.455V60.47c5.616.134 8.424.224 14.022.456zm40.87 6.896v6.093a59.063 59.063 0 0 1-4.519-.535c-8.703-1.412-15.345-4.771-19.782-10.238-3.59-4.421-5.463-9.683-5.625-15.739a29.517 29.517 0 0 1-.012-.837v-6.094c0 .277.004.556.012.837.162 6.057 2.034 11.318 5.625 15.74 4.437 5.467 11.08 8.826 19.782 10.237 1.458.232 2.97.411 4.518.536zm32.192 4.467v6.092a578.758 578.758 0 0 0-8.829-1.267v-6.093c3.537.481 5.301.74 8.83 1.267zm32.5 12.336v6.093c-9.163-14.122-22.618-26.021-34.498-37.75v-6.094c11.88 11.729 25.335 23.628 34.497 37.75zm31.166-27.844v6.093c-2.43-2.965-7.092-5.431-14.022-7.253v-6.094c6.93 1.823 11.592 4.288 14.022 7.254zm-22.67 13.682v6.093c0-2.276-.067-4.628-.199-7.053-.396-7.182-1.377-14.025-2.934-20.528v-6.093c1.557 6.503 2.538 13.345 2.934 20.528.132 2.425.198 4.776.198 7.053zm23.066 1.12v6.093c-3.717-1.214-8.325-2.572-13.815-4.028v-6.094c5.49 1.456 10.098 2.814 13.815 4.029zm1.08 17.687v6.093c-1.845-.786-4.572-1.706-8.19-2.76-4.806-1.393-10.35-2.769-16.65-4.091v-6.094c6.3 1.323 11.844 2.698 16.65 4.092 3.618 1.054 6.345 1.974 8.19 2.76z" fill="url(#a)"/><g transform="translate(8 9)" stroke="#ECDD52" fill="url(#b)"><path d="M38.602 24.69c-.495 5.172-.747 7.763-1.242 12.944-2.838-2.71-6.44-4.088-10.807-4.089-2.252 0-4.706.367-7.364 1.105-1.764.483-3.573 1.135-5.445 1.93-.999 2.304-1.548 4.43-1.665 6.387-.216 3.725 1.458 5.753 4.923 5.985.17.011.351.017.546.017 3.301 0 10.236-1.634 20.766-4.51 2.07 1.411 3.042 3.555 2.898 6.413-.153 2.993-1.692 6.46-4.635 10.425-1.52 2.081-3.789 4.761-6.795 8.05a151.825 151.825 0 0 1-4.032 4.215 51.562 51.562 0 0 1-3.348 1.036c-4.605 1.241-8.78 1.871-12.525 1.871-3.616 0-6.83-.588-9.642-1.78.162-3.566.243-5.343.396-8.899 2.52 1.296 6.165 2.117 10.953 2.51 1.487.125 2.907.188 4.262.188 3.008 0 5.69-.31 8.041-.938 2.412-.652 4.086-1.58 4.968-2.796 1.107-1.527 1.72-3.448 1.836-5.726.1-1.858-.207-3.368-.927-4.457-.668-1.009-1.628-1.529-2.814-1.529-.285 0-.584.03-.894.09-3.366.644-9.396 3.198-15.687 4.208-.609.1-1.228.145-1.845.145-2.706 0-5.39-.875-7.119-1.923-.027-2.715-.009-4.645.063-5.779.28-4.646 1.422-8.094 3.42-10.345 4.87-4.136 7.3-6.18 12.16-10.237 8.594-1.929 12.905-2.832 21.554-4.51zm31.014-.768l-.36 6.682c-1.157-.926-2.958-1.399-5.4-1.399-2.27 0-5.093.408-8.469 1.238-.432 5.378-.648 8.058-1.07 13.435 5.741-1.304 10.493-2.474 14.228-3.564l-.45 5.28c-3.77.696-8.442 1.697-14.004 3.045l-.72 10.666c-.036.724.243 1.278.837 1.662.374.236.788.356 1.244.356.267 0 .548-.04.844-.124 4.5-1.215 6.75-1.804 11.26-2.957a913.03 913.03 0 0 0-.217 4.958c-1.854.161-4.608.625-8.27 1.43-4.87 1.071-10.495 2.527-16.858 4.43 1.341-6.253 2.178-12.837 2.52-19.786.351-7.165.063-13.695-.855-19.563 10.27-2.493 15.417-3.654 25.74-5.789zm52.12 29.613a714.312 714.312 0 0 0-12.322 1.902c-1.17-4.135-2.78-8.575-4.815-13.292a691.84 691.84 0 0 0-15.39 2.6c-2.97 6.315-4.653 11.282-5.04 14.882a652.097 652.097 0 0 0-12.348 3.127c2.133-2.457 4.311-5.405 6.534-8.853 6.174-9.442 10.647-19.688 15.12-29.997.054-.232.09-.491.1-.76.053-1.5-1.153-3-3.61-4.501a691.644 691.644 0 0 1 13.293-3.073c2.511 6.119 4.87 11.559 7.056 16.31 5.265 11.489 9.1 18.734 11.421 21.655zm73.319-45.766c1.04 0 2.07.019 3.09.056.162 3.243.234 4.86.387 8.103-3.428-1.645-7.563-2.483-12.403-2.483a43.615 43.615 0 0 0-2.501.07c-3.07.179-4.95.546-5.661 1.09-2.133 1.626-3.231 4.833-3.303 9.62a43.34 43.34 0 0 0 .234 4.852c.702 7.307 4.698 11.907 12.024 13.962 2.439.713 5.252 1.06 8.43 1.06.763 0 1.547-.02 2.352-.06-2.088 1.92-3.132 2.886-5.22 4.824a58.042 58.042 0 0 1-3.6.115c-8.446 0-14.825-2.04-19.035-6.287-3.69-3.716-5.463-8.665-5.355-14.802.036-2.394.387-4.61 1.017-6.646.585-1.885 1.26-3.118 2.016-3.672 7.569-5.36 12.186-8.138 13.824-8.522 2.34-.554 5.499-.991 9.414-1.18a92.723 92.723 0 0 1 4.29-.1zm-58.074 3.37l-.135 5.494c3.717-3.055 7.47-4.77 11.277-5.163a28.019 28.019 0 0 1 1.872-.126c3.721 0 6.062.965 7.074 2.841.432.733.675 2.466.72 5.217.027 1.35-.594 2.984-1.818 4.895-1.61 2.52-3.888 4.645-6.84 6.334 1.818 4.412 4.87 9.075 9.162 14.015 3.07 3.511 6.624 7.004 10.674 10.488a466.803 466.803 0 0 0 5.193 4.225 4.123 4.123 0 0 1-.846.134 10.32 10.32 0 0 1-.712.024c-3.61 0-8.58-1.738-14.255-5.286-8.235-5.145-14.922-13.863-20.997-21.555a60.574 60.574 0 0 0 4.545-1.527c3.141-1.296 5.022-2.457 5.652-3.51 1.035-1.689 1.575-3.458 1.611-5.316.036-1.58-.288-2.957-.954-4.127-.675-1.179-1.566-1.885-2.655-2.135a3.793 3.793 0 0 0-1.003-.113c-.282 0-.599.02-.95.06-4.356.464-6.912 2.983-7.596 7.423-.306 2.01-.486 4.395-.549 7.11-.162 6.2.315 13.23 1.431 21.091-4.923.974-7.38 1.483-12.294 2.537 1.053-7.343 1.665-13.935 1.827-19.76.27-9.897-.62-16.678-2.655-20.322a681.095 681.095 0 0 1 13.221-2.948zm77.976-4.654c-.288 5.101-.432 7.647-.729 12.738a62.06 62.06 0 0 0 5.796.197c4.275-.045 8.415-.41 12.43-1.108-.55-4.475-.82-6.708-1.369-11.175 4.941.018 7.416.054 12.357.152-1.017 8.325-1.52 15.561-1.494 21.69.036 9.164 1.09 15.114 3.186 17.865a690.482 690.482 0 0 0-14.319-.054c1.107-8.432 1.656-15.016 1.647-19.75 0-1.08-.027-2.01-.072-2.778-1.699-.35-4.199-.547-7.517-.547l-.439.002c-3.23.01-6.714.178-10.449.518.333 8.87.495 13.31.828 22.18-2.484.357-6.777.93-12.879 1.805 1.584-8.576 2.394-16.562 2.44-23.958.044-6.727-.478-12.167-1.558-16.33 4.86-.616 7.281-.902 12.141-1.447zM261.838.902c8.874.875 13.311 1.385 22.185 2.51l-.405 12.685c-4.76-5.565-11.133-8.603-19.16-8.987a36.392 36.392 0 0 0-1.625-.036c-1.29 0-2.606.068-3.947.206-.89 1.992-1.323 3.957-1.305 5.905.027 3.698 1.908 6.289 5.58 7.673 3.186 1.206 10.548 1.885 21.915 2.448 2.25 2.108 3.402 4.582 3.447 7.432.045 2.975-1.314 5.976-4.095 9.022-1.44 1.617-3.609 3.582-6.516 5.923a85.201 85.201 0 0 1-3.915 2.939 49.086 49.086 0 0 1-3.42-.063c-9.288-.5-17.055-2.867-23.265-7.218-.072-3.546-.117-5.315-.198-8.861 2.745 2.135 6.642 4.172 11.7 6.155 5.05 1.983 9.333 3.09 12.825 3.287.315.017.617.025.906.025 1.99 0 3.358-.403 4.09-1.222 1.043-1.179 1.547-2.921 1.52-5.181-.027-1.849-.45-3.475-1.278-4.815-.954-1.545-2.313-2.457-3.969-2.671-3.447-.456-9.9.054-16.128-.902-3.609-.554-7.236-2.76-9.567-4.761-.216-2.752-.324-4.699-.333-5.825-.018-4.609.945-7.718 2.89-9.335 4.841-2.572 7.253-3.832 12.068-6.333zm28.134 8.513a2878.85 2878.85 0 0 1 39.177 4.332l-2.322 4.967c-2.115-.49-6.093-1.107-11.952-1.769a99.81 99.81 0 0 0-.963 16.383c.171 7.45 1.224 13.65 3.16 18.6a665.866 665.866 0 0 0-14.023-.457c2.025-4.85 2.925-12.327 2.71-22.448-.082-4.02-.379-8.326-.874-12.935a21.754 21.754 0 0 0-3.312-.59c-.64-.06-1.265-.09-1.87-.09-3.434 0-6.322.964-8.678 2.877-.423-3.546-.63-5.324-1.053-8.87zm85.779 29.345c.225 5.663-1.287 11.023-4.572 16.124-2.025.393-6.417 1.66-13.239 3.939a59.058 59.058 0 0 1-4.518-.536c-8.703-1.411-15.345-4.77-19.782-10.237-3.591-4.422-5.463-9.683-5.625-15.74-.09-3.207.333-6.083 1.26-8.611.882-2.412 1.989-3.814 3.321-4.225 3.753-1.153 9.234-4.083 13.347-4.485a22.813 22.813 0 0 1 2.222-.106c8.659 0 17.591 4.596 20.044 7.154 4.779 4.922 7.29 10.514 7.542 16.723zm-1.278-17.24c4.203.428 6.31.66 10.503 1.151a814.718 814.718 0 0 0 11.98 13.24c8.801 9.378 15.12 15.48 18.917 18.115.216-1.563.27-3.404.162-5.539-.279-5.359-1.404-11.648-3.366-18.848 4.51.992 6.76 1.501 11.25 2.564a54.066 54.066 0 0 0-1.107 3.743c-.756 3.028-1.206 5.842-1.305 8.406-.387 10.371.468 20.876 1.125 31.274-9.162-14.123-22.617-26.022-34.497-37.75.792 10.165 1.197 15.248 1.998 25.413a578.758 578.758 0 0 0-8.829-1.268c.675-8.835.882-16.356.621-22.547a60.225 60.225 0 0 0-.324-4.172c-.495-4.6-2.817-9.272-7.128-13.783zm53.523 12.362c10.224 2.716 15.318 4.154 25.47 7.227.135 2.671.198 4.002.333 6.673-2.43-2.966-7.092-5.432-14.022-7.254.135 5.297.198 7.95.333 13.248 5.688 1.6 10.341 2.822 13.986 3.61.045 2.08.063 3.116.1 5.197-3.718-1.214-8.326-2.572-13.816-4.028.153 4.225.234 6.342.387 10.576.045.724.387 1.44 1.026 2.135.64.697 1.36 1.135 2.133 1.313a588.348 588.348 0 0 1 11.043 2.707c.126 1.992.19 2.984.306 4.985-1.845-.786-4.572-1.707-8.19-2.76-4.806-1.394-10.35-2.77-16.65-4.092.711-5.717.873-12.059.495-19.009-.396-7.182-1.377-14.025-2.934-20.528zm-66.447 21.1c3.618-1.894 5.301-6.03 5.067-12.461-.144-3.806-1.026-8.228-2.655-13.221-1.485-4.574-6.624-7.673-15.39-9.05a46.863 46.863 0 0 0-7.154-.562h-.163c-2.376 3.43-3.51 7.388-3.375 11.872.117 3.975 1.359 7.95 3.735 11.943 3.843 6.325 9.225 10.014 16.11 11.166 1.257.217 2.386.32 3.38.32.152 0 .3-.002.445-.007zM91.702 39.652a662.995 662.995 0 0 1 10.872-1.84c-1.575-3.34-3.114-6.324-4.599-8.95-.999 1.554-3.087 5.145-6.273 10.79z"/></g></g></svg>