<svg width="1186" height="285" viewBox="0 0 1186 285" xmlns="http://www.w3.org/2000/svg"><title>searchstone</title><defs><linearGradient x1="40.023%" y1="137.286%" x2="40.884%" y2="-4.823%" id="a"><stop stop-color="#020671" offset="0%"/><stop stop-color="#343128" offset="100%"/></linearGradient><linearGradient x1="50.583%" y1="0%" x2="50.583%" y2="59.552%" id="b"><stop stop-color="#B56500" offset="0%"/><stop stop-color="#EA9321" offset="100%"/></linearGradient></defs><g fill="none" fill-rule="evenodd"><path fill="#3A0EC3" d="M136.281 86.951l-64.126 5.252L.39 124.352l21.554 118.75 29.059 25.87 50.973-4.73 21.815-12.786 22.034 6.594 135.49-42.346h116.803l71.245 16.251 38.74-27.627 104.188-6.016 27.57-1.593 72.855 7.61 33.1-16.092 16.408 22.031 75.306-5.94 52.63 27.627h55.104l20.106 11.147 59.306-17.647 25.374 32.595 97.304 26.462 23.41-20.27 13.782-118.199v-21.691l-139.342-32.15-27.473 14.758-72.467-33.14-90.251-12.001-92.79-11.095-82.826-25.405-59.177 18.132H499.288L439.056 61.82 390.71 50.724 320.175 61.82 306.79 81.143l-11.41-13.316-57.796 13.316-13.66 25.817-8.374-20.009-51.3 12.456z"/><path fill="url(#a)" d="M136.281 62.413l-64.126 5.252L.672 121.29l24.765 118.414 55.414 6.388 38.03-19.174 24.49 6.594 137.945-42.346h116.803l71.245 16.252 38.74-27.627 131.758-7.61 72.855 7.61 33.1-16.092 16.408 22.031 75.306-5.94 52.63 27.628h55.104l19.56 13.509 59.852-20.01 31.79 38.787 108.674 22.671 20.343-141.085-140.279-53.625-27.473 14.757-72.467-33.14-90.251-12-92.79-11.096L679.399.781 620.22 18.913H499.288l-60.232 18.368-48.346-11.095-70.535 11.095-13.386 19.324-11.41-13.316-57.796 13.316-13.66 25.817-8.374-20.009-51.3 12.456z"/><path d="M54.613 183.2c2.21 0 4.39-.172 6.48-.514 10.211-1.66 19.924-4.76 27.728-7.25 2.89-.923 5.673-1.811 7.969-2.452.002.336-.005.71-.027 1.124-.17 3.192-.894 5.725-2.156 7.528-.217.19-1.543 1.25-5.511 2.322-4.673 1.26-10.253 1.901-16.58 1.901-2.953 0-6.116-.14-9.406-.417-9.145-.765-15.039-2.115-18.799-3.423 3.419.768 6.92 1.18 10.302 1.18m22.369-54.586a87.422 87.422 0 0 1 7.082-2.327c5.408-1.511 10.38-2.277 14.779-2.277 6.684.003 12.114 1.76 16.529 5.364-12.954 3.477-31.733 8.23-38.65 8.23a8.03 8.03 0 0 1-.501-.012 7.856 7.856 0 0 1-.639-.066c-.042-.41-.064-.994-.017-1.787.125-2.164.6-4.549 1.417-7.125m51.464-51.04c-.786 0-1.577.074-2.36.23-21.5 4.207-31.958 6.413-53.293 11.245a12.28 12.28 0 0 0-5.182 2.569 3383.248 3383.248 0 0 0-29.942 25.367c-.437.373-.847.778-1.226 1.207-6.736 7.636-10.591 18.723-11.453 32.95-.192 3.153-.25 8.112-.182 15.162a12.263 12.263 0 0 0 5.906 10.37 40.83 40.83 0 0 0 4.887 2.517 12.287 12.287 0 0 0-6.542 1.637 12.271 12.271 0 0 0-6.124 10.08l-.978 22.005a12.269 12.269 0 0 0 7.443 11.83c8.374 3.57 17.959 5.383 28.494 5.383 10.184 0 21.617-1.702 33.984-5.062a133.46 133.46 0 0 0 9.047-2.802 12.267 12.267 0 0 0 4.705-2.979 394.674 394.674 0 0 0 10.223-10.757c7.826-8.623 13.56-15.471 17.551-20.965 8.708-11.82 13.207-22.43 13.703-32.373.55-10.976-3.627-20.224-11.778-26.133a12.247 12.247 0 0 0 2.274-6.024l3.065-32.022a12.26 12.26 0 0 0-3.978-10.257 12.28 12.28 0 0 0-8.244-3.177m954.603 142.38a12.272 12.272 0 0 1-7.712 7.47 12.281 12.281 0 0 1-14.155-5.016c-15.918-24.712-37.751-46.944-59.614-68.33.702 9.034 1.419 18.191 2.36 30.235a12.265 12.265 0 0 1-12.24 13.223c-.609 0-1.22-.044-1.83-.135-8.64-1.3-12.87-1.911-21.533-3.111-6.427-.889-11.05-6.62-10.557-13.084.411-5.41.75-10.632 1.018-15.654a91.888 91.888 0 0 1-3.285 5.554 12.277 12.277 0 0 1-8.005 5.438c-2.286.444-9.877 2.243-30.937 9.324a12.315 12.315 0 0 1-4.907.604 151.66 151.66 0 0 1-12.08-1.45c-24.605-4-43.504-13.984-56.176-29.696-10.485-13.003-16.045-28.557-16.524-46.264-.223-8.235.73-15.873 2.836-22.8-2.592-.48-6.459-1.117-12.047-1.873a237.155 237.155 0 0 0-.867 26.533c.393 16.934 2.723 31.008 6.927 41.837a12.27 12.27 0 0 1-11.448 16.705c-.17 0-.344-.002-.516-.01-13.73-.576-20.441-.795-34.195-1.123a12.272 12.272 0 0 1-11.053-16.958c4.282-10.338 6.205-27.345 5.716-50.553-.142-6.785-.537-14.026-1.183-21.618-.486-.02-.965-.032-1.432-.032-5.523 0-9.943 1.42-13.509 4.343a12.273 12.273 0 0 1-6.867 2.748c3.325 5.558 5.1 11.758 5.208 18.338.174 10.544-4.278 20.891-13.148 30.667-3.983 4.483-9.688 9.717-17.475 16.03a224.412 224.412 0 0 1-10.167 7.688 12.272 12.272 0 0 1-6.873 2.29 123.077 123.077 0 0 1-9.351-.16c-19.009-1.04-35.825-5.126-50.196-12.177-.18.523-.396 1.036-.648 1.534-2.09 4.132-6.329 7.042-10.955 7.042h-.157c-9.573 0-15.614-.105-22.29-.105-3.765 0-7.788.105-12.657.105h-.07c-3.52 0-6.873-2.022-9.203-4.662-2.348-2.655-3.43-6.706-2.971-10.217 2.325-17.783 3.631-32.515 3.9-43.349-1.86-.073-4.001-.662-6.464-.662h-.874c-4.163 0-8.512.694-13.008.935.55 14.84.943 25.929 1.603 43.552.236 6.27-4.302 11.707-10.517 12.602-2.343.339-5.332.754-8.969 1.26-5.856.814-13.41 1.864-22.66 3.201a12.293 12.293 0 0 1-12.197-5.68c-1.306 1.215-2.708 2.52-4.383 4.082a12.292 12.292 0 0 1-7.608 3.273c-3.303.207-6.55.31-9.648.31-20.19 0-36.507-4.48-48.648-13.33a287.802 287.802 0 0 0 7.721 6.933c4.07 3.387 8.284 6.844 12.525 10.277a12.26 12.26 0 0 1 4.3 11.989 12.274 12.274 0 0 1-8.66 9.342c-1.352.385-2.85.63-4.582.75-.854.06-1.736.091-2.62.091-11.645 0-26.013-5.17-41.548-14.948-13.477-8.483-25.183-20.256-35.735-32.574.481 4.559 1.06 9.243 1.739 14.043.91 6.441-3.367 12.47-9.75 13.746-12.07 2.414-17.96 3.639-30.013 6.242a12.298 12.298 0 0 1-8.614-1.298c-11.553 1.708-17.46 2.631-29.25 4.561-.67.11-1.339.165-1.997.165a12.281 12.281 0 0 1-11.812-8.957c-1.987-7.07-4.553-14.612-7.657-22.516a1411.947 1411.947 0 0 0-21.617 3.7c-6.255 14.282-8.205 22.578-8.693 27.144a12.273 12.273 0 0 1-9.26 10.606c-12.132 2.996-18.048 4.507-30.144 7.697a12.262 12.262 0 0 1-7.765-.5 12.236 12.236 0 0 1-5.81 2.059c-2.88.252-8.469 1.028-18.739 3.293-12.133 2.674-25.76 6.276-40.506 10.708a12.296 12.296 0 0 1-11.854-2.726 12.27 12.27 0 0 1-3.691-11.584c1.71-8.01 3.083-16.346 4.108-24.938-1.517 2.637-3.323 5.377-5.418 8.22-3.745 5.155-9.305 11.773-16.684 19.905a382.047 382.047 0 0 1-9.904 10.421 122.06 122.06 0 0 1-8.222 2.545c-11.308 3.072-21.566 4.633-30.762 4.633-8.875 0-16.765-1.453-23.67-4.4l.977-22.006c6.176 3.205 15.127 5.232 26.885 6.218 3.634.305 7.111.46 10.43.46 7.4 0 14.001-.766 19.782-2.327 5.94-1.605 10.041-3.9 12.21-6.907 2.72-3.782 4.219-8.527 4.516-14.142.243-4.605-.51-8.34-2.284-11.032-1.648-2.495-4.015-3.781-6.94-3.781-.692 0-1.417.074-2.17.218-8.257 1.593-23.077 7.909-38.51 10.42a27.967 27.967 0 0 1-4.507.352c-6.665 0-13.273-2.164-17.529-4.745-.064-6.716-.01-11.484.162-14.3.695-11.482 3.5-20.016 8.409-25.582a3443.27 3443.27 0 0 1 29.851-25.29c21.107-4.778 31.696-7.014 52.94-11.17-1.225 12.806-1.837 19.21-3.065 32.02-6.969-6.717-15.817-10.12-26.536-10.123-5.53 0-11.559.906-18.086 2.731-4.317 1.208-8.772 2.8-13.36 4.783-2.445 5.678-3.813 10.944-4.093 15.775-.533 9.224 3.576 14.232 12.092 14.801.41.03.852.042 1.324.042 8.091 0 25.136-4.027 51.022-11.152a16.74 16.74 0 0 1 3.268 2.917c.26-13.505-.498-26.053-2.263-37.395a12.268 12.268 0 0 1 9.217-13.805c25.472-6.218 37.96-9.045 63.627-14.392a12.277 12.277 0 0 1 10.505 2.702 12.263 12.263 0 0 1 4.263 9.965l-.886 16.506c-.246 4.599-3.004 8.706-7.21 10.58a12.42 12.42 0 0 1-3.455.975c1.59.452 3.099 1.224 4.42 2.302a12.262 12.262 0 0 1 4.47 10.536l-1.106 13.057a12.271 12.271 0 0 1-9.995 11.03c-7.428 1.376-15.802 3.15-24.986 5.292l-.467 6.952c6.053-1.63 11.056-2.937 18.813-4.932a12.297 12.297 0 0 1 10.79 2.346 12.264 12.264 0 0 1 2.12 2.205 220.17 220.17 0 0 0 6.892-10.159c14.093-21.73 24.552-45.456 34.522-68.583a25.182 25.182 0 0 0-2.132-1.448 12.262 12.262 0 0 1-5.714-12.367 12.274 12.274 0 0 1 9.238-10.016c13.18-3.19 19.626-4.694 32.855-7.658.899-.201 1.8-.3 2.691-.3 4.9 0 9.45 2.945 11.365 7.642 6.041 14.81 11.805 28.218 17.136 39.876 6.168 13.56 11.05 23.638 14.894 31.127.615-7.106 1.01-13.833 1.181-20.138.791-29.009-2.777-39.992-4.975-43.957a12.261 12.261 0 0 1-.481-10.922 12.28 12.28 0 0 1 8.433-6.971c13.11-3.055 19.52-4.493 32.658-7.327.86-.187 1.729-.278 2.59-.278a12.29 12.29 0 0 1 9.98 5.126c5.307-2.26 10.69-3.673 16.12-4.232a72.345 72.345 0 0 1 5.547-.354c.098-.002.197.017.295.017h.15c17.042 0 24.606 7.163 27.955 13.288 1.378 2.424 2.274 5.453 2.793 9.654 1.437-2.179 3.064-3.919 4.92-5.28.042-.032.084-.12.128-.15 29.262-20.884 35.546-22.496 38.233-23.134 6.967-1.656 15.746-3.006 25.39-3.467 3.68-.177 7.386-.726 11.013-.726h.003c2.716 0 5.456.51 8.143.61 2.136.079 4.133.752 5.855 1.853a12.266 12.266 0 0 1 3.602-1.035c12.048-1.538 17.937-2.242 29.994-3.592a12.288 12.288 0 0 1 9.806 3.286c2.625 2.483 4.025 6 3.82 9.606l-1.075 19.02c.38-.003.761.017 1.145.012 5.753-.057 11.436-.336 16.993-.913-.584-4.792-1.135-9.236-1.906-15.58-.424-3.496.673-6.843 3.016-9.473 2.33-2.618 5.67-3.794 9.174-3.794h.052c12.276 0 18.27-.184 30.551.064 2.719.056 5.32.82 7.412 2.407l.013-.01a12.245 12.245 0 0 1 2.07-1.397 2653.164 2653.164 0 0 1 29.744-15.714 12.295 12.295 0 0 1 6.898-1.332c22.05 2.19 32.81 3.415 54.823 6.237 6.274.805 10.91 6.24 10.71 12.559l-.077 2.414a12.276 12.276 0 0 1 3.696-.174c31.89 3.334 64.317 6.949 96.379 10.737 3.91.464 7.36 2.77 9.28 6.206a12.254 12.254 0 0 1 1.554 5.887c.801-.315 1.619-.644 2.446-.984 7.95-3.266 16.957-6.686 25.303-7.508 2.162-.214 4.404.238 6.663.238h.002c22.745 0 45.859 10.24 55.929 18.875a12.29 12.29 0 0 1 9.923-3.515 1572.741 1572.741 0 0 1 25.971 2.852 12.29 12.29 0 0 1 7.79 4.08c10.896 12.367 20.456 23.007 29.183 32.476 9.187 9.857 17.2 18.16 24.002 24.881-1.328-8.735-3.416-18.374-6.242-28.82a12.262 12.262 0 0 1 2.971-11.677 12.286 12.286 0 0 1 11.54-3.504c11.195 2.483 16.652 3.735 27.808 6.385a12.285 12.285 0 0 1 6.382 3.835 12.293 12.293 0 0 1 3.955.392c25.417 6.797 37.77 10.328 62.945 17.993a12.268 12.268 0 0 1 8.683 11.123l.68 13.594.145 2.896a12.267 12.267 0 0 1-8.845 12.399 12.268 12.268 0 0 1 9.592 11.734l.199 10.217.049 2.62a12.26 12.26 0 0 1-4.978 10.1 12.27 12.27 0 0 1-11.124 1.794 535.428 535.428 0 0 0-17.227-5.297l.248 6.792c9.963 2.382 15.319 3.707 25.736 6.357a12.274 12.274 0 0 1 9.223 11.15l.379 6.253.368 6.07a12.275 12.275 0 0 1-17.065 12.031c-2.927-1.246-8.555-3.354-18.734-6.323-11.962-3.49-25.417-6.817-39.994-9.886a12.24 12.24 0 0 1-5.078-2.376zM523.163 80.305a12.26 12.26 0 0 1-7.317-1.065c-6.76-3.263-15.195-4.92-25.072-4.92-1.776 0-3.625.055-5.496.16-4.265.243-6.6.611-7.745.85-1.147 1.638-2.579 5.714-2.69 13.542-.043 3.111.129 6.689.517 10.661 1.237 12.995 7.413 20.136 20.758 23.91 4.822 1.413 10.645 2.13 17.302 2.13a105.2 105.2 0 0 0 5.12-.13 12.297 12.297 0 0 1 2.094.073c1.66-12.887 2.534-25.206 2.607-36.803.018-2.907-.008-5.71-.078-8.408zm-86.479 56.437a203.2 203.2 0 0 1-5.026-5.591c-6.802-7.864-12.227-15.42-16.207-22.56 3.78-3.175 7.073-6.715 9.855-10.597-.18 15.224 3.641 28.221 11.378 38.748zm446.409-6.657c-4.777-8.107-7.21-15.837-7.441-23.623-.182-6.1.808-11.545 3.008-16.484 2.981.206 6.007.55 9.047 1.028 15.974 2.518 25.932 7.496 28.044 14.019 3.612 11.164 5.604 21.043 5.913 29.364.236 6.318-.324 14.121-3.904 17.971a49 49 0 0 1-3.62-.485c-13.383-2.253-23.538-9.381-31.047-21.79z" fill="#000" opacity=".26"/><path d="M945.149 171.706c2.703-4.193 4.918-8.457 6.646-12.8a65.257 65.257 0 0 0 3.577-12.37v-.005a64.506 64.506 0 0 0 1.058-11.7v-14.95c0 3.96-.352 7.862-1.059 11.705v.004a65.257 65.257 0 0 1-3.577 12.364v.003c-1.728 4.34-3.943 8.607-6.646 12.8-4.974.964-15.759 4.078-32.51 9.665v14.953c16.752-5.59 27.538-8.7 32.51-9.668v-.001zM806.883 78.617c14.388 1.622 24.157 3.134 29.35 4.339V68.005c-5.193-1.205-14.962-2.719-29.35-4.34v.001a243.537 243.537 0 0 0-2.43 34.48v14.95c0-11.667.814-23.17 2.43-34.479zM866.69 94.58a46.122 46.122 0 0 1 4.717-8.863v-14.95a46.175 46.175 0 0 0-4.718 8.862v.003l.001-.003V94.58zm0 .001v-14.95 14.95zm-262.365 1.987c-4.172-.86-10.311-1.34-18.46-1.34-.355 0-.714.002-1.077.005-7.935.02-16.488.437-25.66 1.27V81.55l.597-.053V69.253c.729-12.492 1.083-18.74 1.79-31.256v14.95c-.654 11.574-1.006 17.788-1.631 28.536 8.886-.787 17.188-1.182 24.904-1.204.363-.002.722-.002 1.078-.002 8.148 0 14.287.478 18.46 1.34v.004c.11 1.884.176 4.162.176 6.813v14.95c0-2.65-.066-4.93-.177-6.816zM367.778 93.59c.344-1.872.83-3.596 1.458-5.174V73.466c-.629 1.578-1.115 3.305-1.46 5.18v.004c-.055.305-.106.615-.155.927-.752 4.932-1.194 10.785-1.348 17.45-.052 1.928-.077 3.888-.077 5.88v14.954c0-1.995.025-3.955.077-5.884.154-6.662.596-12.514 1.348-17.446.049-.317.1-.626.157-.935v-.005zm2.062-21.508l.19-7.715V49.417l-.332 13.481v9.487c-.162.352-.316.712-.462 1.08v14.953a20.415 20.415 0 0 1 2.08-3.958V69.51c-.546.8-1.038 1.658-1.476 2.573zm21.23-10.588v14.95c2.674.616 4.862 2.346 6.52 5.24 1.554 2.728 2.35 5.91 2.35 9.547v-14.95c0-3.637-.796-6.82-2.35-9.548-1.658-2.893-3.846-4.626-6.52-5.24-.65-.18-1.471-.277-2.463-.277-.693 0-1.471.047-2.333.145-6.773.724-11.775 3.465-14.958 8.147v14.953c3.183-4.682 8.185-7.425 14.958-8.146.862-.101 1.64-.148 2.333-.148.992 0 1.812.098 2.463.278V61.495zm29.847 25.57c.142-.769.213-1.506.213-2.214v-14.95c0 .706-.071 1.447-.214 2.218v.002c-.204 1.113-.557 2.29-1.05 3.532v14.951c.494-1.244.847-2.422 1.051-3.536v-.002zm44.257-21.463c.604-1.513 1.31-2.868 2.121-4.062.977-1.439 2.105-2.644 3.384-3.618 1.746-1.337 6.365-2.235 13.902-2.675 2.097-.115 4.142-.174 6.139-.174 11.888 0 22.04 2.059 30.46 6.093v14.95c-8.42-4.033-18.572-6.092-30.46-6.092-1.997 0-4.042.059-6.14.177-7.536.436-12.155 1.337-13.901 2.672-1.28.974-2.406 2.18-3.383 3.616-.81 1.195-1.518 2.55-2.121 4.063-.732 1.843-1.312 3.919-1.737 6.233V71.834c.425-2.313 1.004-4.391 1.736-6.231zM240.339 183.343c.126-1.159.305-2.377.54-3.654v-.006c1.01-5.476 3.028-12.016 6.052-19.614 1.635-4.106 3.563-8.52 5.785-13.24v-14.951c-2.222 4.72-4.15 9.135-5.786 13.24-3.025 7.6-5.043 14.141-6.052 19.62v.007a49.215 49.215 0 0 0-.54 3.65c-12.155 2.96-18.21 4.516-30.322 7.674v14.95c12.112-3.155 18.167-4.713 30.323-7.672v-.004zm45.197-57.048v-11.427c-3.867-8.198-7.647-15.517-11.293-21.963v14.953c3.154 5.573 6.407 11.804 9.731 18.688a1527.083 1527.083 0 0 0-22.907 3.851c6.577-11.598 10.963-19.1 13.176-22.541v-14.95c-2.454 3.812-7.581 12.624-15.405 26.478v11.405c-1.913.338-3.939.698-6.122 1.088v14.953c15.095-2.697 22.654-3.968 37.793-6.38V125.5c-1.751.278-3.4.542-4.973.795zM167.03 141.3v-11.55c1.038-13.192 1.569-19.769 2.63-32.963v-.003c8.29-2.037 15.222-3.038 20.797-3.038 5.997 0 10.42 1.16 13.26 3.433v14.95c-2.84-2.272-7.263-3.43-13.26-3.43-5.575 0-12.507.999-20.797 3.038-.964 11.986-1.49 18.51-2.357 29.497 13.296-3.21 24.49-5.599 33.564-7.275v14.951c-9.26 1.71-20.731 4.167-34.39 7.477v-14.954l.553-.133zm-70.15 61.29c3.536-3.574 6.85-7.016 9.9-10.346 7.383-8.068 12.952-14.644 16.687-19.75a98.802 98.802 0 0 0 2.406-3.381c2.886-4.247 5.073-8.244 6.571-12.003.935-2.345 1.598-4.593 1.996-6.75v-.005a26.376 26.376 0 0 0 .444-4.778v14.951c0 .44-.012.886-.034 1.337a26.322 26.322 0 0 1-.41 3.435v.005c-.397 2.159-1.06 4.412-1.996 6.757-1.498 3.758-3.685 7.757-6.57 12.002a98.86 98.86 0 0 1-2.407 3.383c-3.735 5.106-9.304 11.682-16.686 19.748-3.05 3.332-6.365 6.772-9.9 10.344a126.254 126.254 0 0 1-8.222 2.546c-11.309 3.042-21.564 4.59-30.758 4.59-8.88 0-16.772-1.442-23.678-4.372v-14.951c6.906 2.927 14.798 4.37 23.678 4.37 9.194 0 19.45-1.546 30.758-4.59 2.784-.766 5.524-1.6 8.22-2.543zm31.56-119.922v14.95c-1.215 12.694-1.834 19.05-3.05 31.763V114.43c1.216-12.713 1.835-19.071 3.05-31.762zm-3.05 31.761v14.951c-6.968-6.65-15.816-10.031-26.538-10.031-5.53 0-11.556.898-18.084 2.711-4.331 1.183-8.774 2.783-13.37 4.734v-14.951c4.596-1.95 9.039-3.55 13.37-4.736 6.528-1.81 12.554-2.711 18.084-2.709 10.722 0 19.57 3.379 26.539 10.031zm-57.993-2.586v14.95c-.265.616-.52 1.225-.759 1.829v-14.954c.239-.603.494-1.212.76-1.825zm-.76 1.825v14.951c-1.309 3.288-2.232 6.424-2.782 9.413V123.08c.55-2.987 1.473-6.122 2.782-9.41zm-2.782 9.411v14.95a37.432 37.432 0 0 0-.548 4.437c-.029.523-.044 1.033-.044 1.529v-14.95c0-.497.015-1.007.044-1.53.089-1.44.27-2.92.548-4.436zm-26.759 35.342v14.951c-.02-1.94-.03-3.72-.03-5.334v-14.951c0 1.612.01 3.39.03 5.334zm71.962 6.874v14.951c0-3.815-.768-6.959-2.32-9.305-1.64-2.475-3.998-3.751-6.91-3.751-.703 0-1.435.073-2.196.22-8.266 1.58-23.074 7.848-38.523 10.326a28.295 28.295 0 0 1-4.53.356c-6.645 0-13.237-2.15-17.482-4.719v-14.95c4.245 2.568 10.837 4.718 17.482 4.718 1.515 0 3.035-.113 4.53-.358 15.45-2.476 30.257-8.746 38.523-10.323.761-.15 1.493-.224 2.195-.224 2.913 0 5.27 1.279 6.91 3.752 1.553 2.348 2.321 5.49 2.321 9.307zm95.544-84.512v14.95l-.884 16.397V97.18l.884-16.396zm-60.755 48.05v14.95c0-12.116-.82-23.406-2.456-33.845V94.99c1.636 10.438 2.456 21.728 2.456 33.845zm58.125-7.828v14.95c-.442 5.198-.663 7.784-1.105 12.957V133.96c.442-5.173.663-7.76 1.105-12.954zm-35.495 20.429v14.95l-1.768 26.173v-14.951l1.768-26.172zm-1.768 26.172v14.95a6.342 6.342 0 0 0-.007.302v-14.953c0-.098.002-.199.007-.3zm34.832-2.609v14.951c-.221 4.868-.332 7.3-.53 12.166v-14.951c.198-4.866.309-7.3.53-12.166zm-.53 12.166v14.95c-4.554.395-11.317 1.536-20.312 3.51-11.957 2.63-25.77 6.202-41.396 10.87v-14.951c15.626-4.67 29.44-8.243 41.396-10.873 8.995-1.973 15.758-3.111 20.311-3.506zm64.428-98.524v14.95c0-3.602-2.961-7.206-8.867-10.808V67.828c5.906 3.605 8.867 7.207 8.867 10.812zm69.151 74.806v14.951c-12.112 1.777-18.167 2.72-30.257 4.67v-14.951c12.09-1.95 18.145-2.893 30.257-4.67zm-30.257 4.67v14.95c-2.873-10.146-6.829-21.041-11.824-32.615V125.5c4.995 11.572 8.951 22.466 11.824 32.615zm161.105-86.282v14.95c-.525 2.87-.817 6.101-.871 9.698-.003.349-.005.702-.005 1.06V82.59c0-.358.002-.712.005-1.06.054-3.595.346-6.827.871-9.695zm-43.573 3.818v14.951c-.746 1.872-1.817 3.892-3.202 6.054-.209.326-.422.65-.64.971v-14.95c.218-.322.431-.646.64-.975 1.385-2.161 2.456-4.178 3.202-6.05zm-3.843 7.024v14.951c-3.912 5.76-9.29 10.647-16.156 14.57V97.246c6.866-3.924 12.244-8.812 16.156-14.569zM344.2 98.348v14.95c0-19.885-2.223-33.793-6.636-41.696V56.65c4.413 7.901 6.636 21.812 6.636 41.697zm174.948 31.798v14.951a3311.266 3311.266 0 0 0-12.819 11.837v-14.95c5.128-4.758 7.691-7.124 12.819-11.838zm-12.819 11.837v14.95c-3.043.19-5.992.285-8.843.285-20.74 0-36.406-5.005-46.742-15.429-8.8-8.858-13.162-20.568-13.162-35.033v-14.95c0 14.462 4.361 26.174 13.162 35.03 10.336 10.426 26.001 15.43 46.742 15.43 2.851 0 5.8-.094 8.843-.283zm-136.541 6.795v14.95c-12.09 2.39-18.123 3.64-30.19 6.226v-14.951c12.067-2.586 18.1-3.835 30.19-6.225zm91.543 18.96v14.95c-.508.156-1.194.266-2.078.33-.567.039-1.151.059-1.748.059-8.865 0-21.072-4.263-35.006-12.969-20.223-12.624-36.644-34.019-51.562-52.89v-14.954c14.918 18.874 31.34 40.266 51.562 52.894 13.934 8.706 26.14 12.968 35.006 12.968.597 0 1.181-.02 1.748-.06.884-.065 1.57-.173 2.078-.328zm143.15-100.72V81.97c-1.348-10.98-2.011-16.46-3.36-27.42V39.596c1.349 10.959 2.012 16.44 3.36 27.421zm-68.95 12.647v14.951c0-15.608-1.284-28.306-3.83-38.117V41.55c2.546 9.807 3.83 22.508 3.83 38.116zm95.936-39.695v14.95c-2.434 19.91-3.672 37.281-3.672 52.07V92.037c0-14.79 1.238-32.157 3.672-52.067zm4.155 97.059v14.95c-9.371-.114-15.619-.164-22.914-.164-3.647 0-7.557.013-12.25.035v-14.954c4.693-.022 8.603-.031 12.25-.031 7.295 0 13.543.046 22.914.164zm-74.46-1.052v14.95c-6.1.88-16.642 2.28-31.626 4.43v-14.954c14.984-2.147 25.527-3.55 31.627-4.426zm108.23-96.03V54.9c-.24.537-.466 1.074-.68 1.61V41.556c.214-.537.44-1.072.68-1.61zm-.68 1.61v14.95a36.315 36.315 0 0 0-1.997 6.854V48.407a36.293 36.293 0 0 1 1.997-6.85zm-1.997 6.851v14.95a31.698 31.698 0 0 0-.528 5.743V54.15c0-1.907.175-3.82.528-5.742zm64.406-17.951v14.95l-.994 31.127V61.583l.994-31.126zm-.994 31.125v14.951c-11.692-13.655-27.34-21.107-47.054-22.05a89.438 89.438 0 0 0-3.988-.088c-3.17 0-6.4.167-9.693.506V39.947a93.312 93.312 0 0 1 13.68-.417c19.715.945 35.363 8.397 47.055 22.052zm-89.4 15.453v14.951c-.53-6.75-.796-11.527-.818-14.29V62.745c.022 2.76.288 7.54.818 14.29zm75.987 32.687v14.95c0-.137 0-.279-.003-.419-.066-4.537-1.105-8.527-3.138-11.815-2.343-3.79-5.68-6.026-9.747-6.554-8.465-1.116-24.311.133-39.605-2.213-8.863-1.36-17.77-6.773-23.494-11.683V77.035c5.724 4.91 14.631 10.326 23.494 11.682 15.294 2.346 31.14 1.097 39.605 2.216 4.067.525 7.404 2.76 9.747 6.554 2.033 3.288 3.072 7.276 3.138 11.813.003.142.003.282.003.422zm-75.744 13.805v14.95c-.177-8.7-.287-13.041-.486-21.742v-14.951c.199 8.7.31 13.042.486 21.743zm101.205-25.668v14.95c0 1.427-.13 2.852-.393 4.28v-14.95c.262-1.431.393-2.857.393-4.28zm-.394 4.28v14.95a26.666 26.666 0 0 1-1.471 5.052v-14.95a26.666 26.666 0 0 0 1.47-5.053zm-1.472 5.051v14.951c-.891 2.236-2.1 4.48-3.63 6.73v-14.95c1.53-2.253 2.739-4.495 3.63-6.73zm-3.63 6.73v14.951c-1.291 1.905-2.814 3.811-4.562 5.728-3.537 3.967-8.863 8.789-16.002 14.533a211.015 211.015 0 0 1-9.614 7.212V141.39a207.446 207.446 0 0 0 9.614-7.212c7.139-5.742 12.465-10.564 16.002-14.531 1.748-1.917 3.27-3.826 4.562-5.728zM706.5 141.391v14.951a120.634 120.634 0 0 1-8.398-.152c-22.809-1.227-41.882-7.038-57.132-17.712v-14.95c15.25 10.673 34.323 16.482 57.132 17.708a118.11 118.11 0 0 0 8.398.155zm75.852-79.83v14.95a53.45 53.45 0 0 0-8.133-1.445 48.55 48.55 0 0 0-4.595-.223c-8.43 0-15.522 2.368-21.308 7.062V66.95c5.786-4.691 12.878-7.06 21.308-7.06 1.488 0 3.02.075 4.595.222 2.696.265 5.415.746 8.133 1.447zm-34.036 5.392v14.95c-1.039-8.7-1.547-13.063-2.586-21.764V45.188c1.039 8.7 1.547 13.064 2.586 21.765zm93.621-11.135v14.95c-2.276 4.869-3.426 7.323-5.702 12.188v-14.95l5.702-12.188zm29.726 14.576v14.95l-.255.374V70.767c.083-.125.17-.25.255-.373zm-7.483 17.992v14.951a51.817 51.817 0 0 0-.832 9.396V97.779c0-3.246.277-6.377.832-9.393zm-79.607 11.939v14.95c0-2.279-.025-4.62-.076-7.024-.2-9.862-.929-20.428-2.144-31.738V61.56c1.215 11.312 1.945 21.875 2.144 31.74.051 2.402.076 4.743.076 7.025zm149.424 28.921v14.951c0-.92-.017-1.862-.052-2.824-.353-9.34-2.52-20.19-6.52-32.442-3.646-11.223-16.266-18.827-37.793-22.204-5.984-.922-11.841-1.381-17.57-1.381h-.398V70.395c.133-.003.265-.003.398-.003 5.729 0 11.586.462 17.57 1.382 21.527 3.376 34.147 10.983 37.793 22.207 4 12.251 6.167 23.102 6.52 32.439.035.964.052 1.906.052 2.826zm37.81 3.168v14.95c0-4.74-.089-9.23-.268-13.466a147.546 147.546 0 0 0-.796-10.237c-1.215-11.287-6.917-22.751-17.504-33.82V74.887c10.587 11.07 16.289 22.533 17.504 33.823.332 3.001.641 6.444.796 10.235.18 4.235.268 8.725.268 13.469zm102.856-31.31v14.95a132.99 132.99 0 0 0-2.718 9.185 128.714 128.714 0 0 0-1.729 7.933v-14.954a129.04 129.04 0 0 1 1.729-7.93 132.59 132.59 0 0 1 2.718-9.185zm-4.447 17.115v14.951c-.82 4.466-1.321 8.704-1.476 12.696a355.112 355.112 0 0 0-.238 13.248v-14.953c0-4.425.073-8.841.238-13.248.155-3.99.656-8.23 1.476-12.694zm-14.78 27.843v14.95c0-1.585-.045-3.25-.133-4.998-.686-13.152-3.448-28.584-8.266-46.249V94.812c4.818 17.667 7.58 33.099 8.266 46.251.088 1.745.132 3.411.132 4.999zm-243.159 3.44v14.95c-13.747-.57-20.642-.787-34.434-1.116v-14.954c13.792.33 20.687.55 34.434 1.12zm100.362 16.92v14.952a145.149 145.149 0 0 1-11.095-1.313c-21.372-3.465-37.683-11.707-48.579-25.122-8.818-10.848-13.415-23.76-13.813-38.62-.02-.692-.03-1.377-.03-2.054V99.312c0 .68.01 1.364.03 2.054.398 14.862 4.995 27.772 13.813 38.622 10.896 13.415 27.207 21.657 48.579 25.12 3.58.569 7.293 1.008 11.095 1.315zm79.056 10.96v14.952c-8.664-1.294-12.995-1.93-21.681-3.112v-14.95c8.686 1.182 13.017 1.817 21.681 3.11zm79.808 30.271v14.951c-22.5-34.652-55.54-63.85-84.715-92.63v-14.953c29.174 28.78 62.216 57.978 84.715 92.632zm76.536-68.322v14.95c-5.967-7.275-17.416-13.326-34.433-17.797v-14.953c17.017 4.473 28.466 10.522 34.433 17.8zm-55.673 33.572v14.95c0-5.584-.162-11.356-.486-17.306-.972-17.623-3.381-34.414-7.205-50.371v-14.951c3.824 15.957 6.233 32.745 7.205 50.371.324 5.95.486 11.72.486 17.307zm56.646 2.748v14.95c-9.128-2.978-20.444-6.31-33.925-9.883v-14.953c13.481 3.572 24.797 6.905 33.925 9.886zm2.652 43.4v14.951c-4.53-1.928-11.228-4.186-20.112-6.772-11.802-3.418-25.417-6.795-40.888-10.038v-14.954c15.471 3.247 29.086 6.62 40.888 10.041 8.884 2.586 15.581 4.844 20.112 6.773z" fill="url(#b)"/><path d="M128.44 82.669c-1.215 12.69-1.834 19.049-3.05 31.762-6.968-6.653-15.816-10.031-26.538-10.034-5.53 0-11.556.9-18.084 2.712-4.331 1.185-8.774 2.785-13.37 4.735-2.454 5.654-3.802 10.87-4.09 15.673-.53 9.14 3.58 14.116 12.09 14.686.415.027.862.041 1.34.041 8.107 0 25.137-4.01 50.996-11.066 5.083 3.462 7.47 8.723 7.116 15.736-.376 7.344-4.155 15.849-11.382 25.58-3.735 5.107-9.305 11.683-16.686 19.75-3.05 3.33-6.366 6.773-9.902 10.346a126.693 126.693 0 0 1-8.221 2.542c-11.309 3.045-21.564 4.591-30.758 4.591-8.88 0-16.772-1.443-23.678-4.37.398-8.748.597-13.108.973-21.834 6.188 3.18 15.139 5.195 26.897 6.16 3.651.306 7.139.46 10.466.46 7.387 0 13.97-.76 19.746-2.301 5.923-1.6 10.034-3.88 12.2-6.86 2.719-3.748 4.222-8.461 4.509-14.051.243-4.56-.508-8.265-2.277-10.937-1.64-2.476-3.997-3.752-6.91-3.752-.7 0-1.434.074-2.195.221-8.266 1.58-23.074 7.848-38.523 10.326a28.295 28.295 0 0 1-4.53.356c-6.646 0-13.237-2.147-17.483-4.719-.066-6.662-.022-11.398.155-14.18.685-11.4 3.492-19.861 8.399-25.385a3732.036 3732.036 0 0 1 29.858-25.12c21.107-4.732 31.694-6.948 52.933-11.068zm76.162-1.885l-.884 16.396c-2.841-2.272-7.264-3.433-13.261-3.433-5.574 0-12.507 1.001-20.797 3.038-1.061 13.196-1.592 19.772-2.63 32.966 14.1-3.2 25.77-6.07 34.942-8.745-.442 5.195-.663 7.781-1.105 12.954-9.26 1.71-20.731 4.166-34.39 7.474l-1.768 26.172c-.088 1.776.597 3.136 2.055 4.078.919.58 1.936.874 3.055.874.656 0 1.346-.101 2.073-.305 11.05-2.981 16.576-4.426 27.649-7.256-.221 4.866-.332 7.3-.53 12.166-4.554.395-11.317 1.534-20.312 3.507-11.957 2.63-25.77 6.203-41.396 10.872 3.294-15.343 5.349-31.499 6.189-48.55.862-17.581.155-33.605-2.1-48.003 25.218-6.118 37.86-8.967 63.21-14.205zm127.988 72.663c-12.112 1.774-18.167 2.716-30.257 4.667-2.873-10.146-6.829-21.041-11.824-32.616-15.14 2.412-22.698 3.684-37.793 6.38-7.293 15.496-11.426 27.684-12.377 36.517-12.155 2.96-18.211 4.515-30.323 7.673 5.238-6.029 10.587-13.262 16.046-21.723 15.161-23.169 26.146-48.31 37.13-73.606.133-.57.221-1.205.243-1.862.133-3.684-2.829-7.364-8.862-11.047 13.04-3.136 19.581-4.626 32.643-7.54 6.166 15.014 11.957 28.362 17.327 40.023 12.93 28.189 22.345 45.966 28.047 53.134zm180.05-112.3c2.557 0 5.086.046 7.589.137.398 7.958.574 11.925.95 19.883-8.418-4.037-18.572-6.093-30.458-6.093a107.19 107.19 0 0 0-6.142.174c-7.536.437-12.155 1.338-13.901 2.675-5.238 3.987-7.935 11.857-8.111 23.605-.045 3.531.132 7.519.574 11.904 1.724 17.93 11.537 29.217 29.527 34.26 5.99 1.749 12.898 2.6 20.702 2.6 1.874 0 3.799-.049 5.776-.144-5.128 4.71-7.691 7.079-12.819 11.834-3.04.19-5.99.282-8.84.282-20.741 0-36.406-5.003-46.745-15.427-9.061-9.118-13.415-21.262-13.15-36.32.089-5.875.95-11.312 2.498-16.308 1.436-4.626 3.094-7.651 4.95-9.01 18.587-13.15 29.925-19.97 33.948-20.912 5.746-1.36 13.504-2.431 23.118-2.893 3.55-.164 7.065-.248 10.535-.248zm-142.61 8.27l-.332 13.481c9.128-7.496 18.344-11.705 27.693-12.669a68.858 68.858 0 0 1 4.597-.309c9.138 0 14.887 2.368 17.372 6.971 1.06 1.799 1.657 6.051 1.768 12.802.066 3.31-1.459 7.322-4.465 12.01-3.956 6.182-9.547 11.399-16.797 15.543 4.465 10.826 11.957 22.268 22.5 34.39 7.536 8.615 16.266 17.186 26.212 25.735 4.177 3.44 8.42 6.903 12.752 10.367-.508.152-1.193.263-2.077.33-.568.038-1.152.058-1.749.058-8.865 0-21.072-4.265-35.006-12.97-20.222-12.625-36.644-34.017-51.562-52.892 4.2-1.249 7.934-2.498 11.161-3.747 7.713-3.18 12.333-6.029 13.88-8.615 2.541-4.142 3.867-8.483 3.956-13.042.088-3.88-.707-7.256-2.343-10.127-1.658-2.893-3.846-4.625-6.52-5.239-.65-.181-1.47-.277-2.463-.277-.692 0-1.47.047-2.333.145-10.697 1.141-16.974 7.322-18.653 18.217-.752 4.932-1.194 10.784-1.348 17.446-.398 15.214.773 32.464 3.514 51.753-12.09 2.39-18.123 3.639-30.19 6.225 2.585-18.018 4.088-34.193 4.486-48.487.663-24.285-1.525-40.924-6.52-49.865 12.973-3.004 19.471-4.451 32.467-7.234zm191.485-11.42a13921.96 13921.96 0 0 1-1.79 31.256c3.99.332 8.192.491 12.588.491.545 0 1.092-.002 1.645-.007 10.498-.11 20.665-1.009 30.522-2.72-1.348-10.98-2.011-16.459-3.36-27.42 12.134.044 18.212.132 30.345.373-2.497 20.428-3.735 38.183-3.668 53.22.088 22.489 2.674 37.089 7.823 43.84-9.37-.119-15.618-.168-22.914-.168-3.646 0-7.556.013-12.249.035 2.719-20.69 4.067-36.846 4.045-48.462 0-2.653-.066-4.933-.177-6.817-4.172-.861-10.311-1.342-18.46-1.342-.355 0-.714.002-1.077.005-7.935.022-16.488.436-25.66 1.27.818 21.766 1.216 32.66 2.033 54.426-6.1.876-16.642 2.28-31.627 4.429 3.89-21.044 5.88-40.64 5.99-58.788.11-16.507-1.172-29.855-3.824-40.07 11.935-1.512 17.88-2.214 29.815-3.55zm115.126-13.7c21.791 2.147 32.687 3.399 54.48 6.16-.399 12.45-.597 18.675-.995 31.126-11.692-13.656-27.34-21.11-47.054-22.053a89.438 89.438 0 0 0-3.988-.088c-3.17 0-6.4.167-9.693.506-2.188 4.887-3.248 9.71-3.204 14.49.066 9.073 4.685 15.431 13.703 18.827 7.823 2.96 25.902 4.625 53.816 6.007 5.525 5.172 8.354 11.243 8.465 18.236.11 7.3-3.227 14.664-10.056 22.138-3.536 3.968-8.863 8.79-16.001 14.534a209.214 209.214 0 0 1-9.615 7.212 120.634 120.634 0 0 1-8.398-.155c-22.809-1.227-41.882-7.035-57.132-17.711-.177-8.701-.287-13.042-.486-21.743 6.74 5.239 16.31 10.237 28.732 15.103 12.398 4.866 22.919 7.582 31.494 8.065.773.042 1.515.062 2.225.062 4.884 0 8.246-.99 10.041-2.999 2.564-2.893 3.802-7.167 3.735-12.713-.066-4.537-1.105-8.527-3.138-11.815-2.343-3.79-5.68-6.029-9.747-6.554-8.465-1.119-24.311.133-39.605-2.213-8.863-1.36-17.77-6.773-23.494-11.683-.53-6.752-.796-11.53-.818-14.293-.044-11.31 2.321-18.938 7.095-22.906 11.89-6.311 17.813-9.403 29.638-15.54zm69.088 20.89c32.113 3.332 64.16 6.86 96.207 10.63-2.276 4.868-3.426 7.321-5.702 12.187-5.194-1.204-14.963-2.716-29.35-4.34-1.88 13.152-2.675 26.567-2.365 40.2.42 18.28 3.005 33.494 7.757 45.638-13.747-.57-20.642-.79-34.434-1.12 4.973-11.9 7.183-30.247 6.653-55.082-.2-9.864-.928-20.43-2.144-31.74a53.459 53.459 0 0 0-8.133-1.447 49.362 49.362 0 0 0-4.595-.22c-8.43 0-15.522 2.365-21.308 7.059-1.039-8.701-1.547-13.064-2.586-21.765zm210.647 72.005c.552 13.896-3.16 27.048-11.228 39.565-4.972.964-15.758 4.076-32.51 9.666a145.135 145.135 0 0 1-11.095-1.316c-21.372-3.462-37.683-11.704-48.579-25.119-8.818-10.85-13.415-23.76-13.813-38.623-.221-7.869.818-14.926 3.094-21.129 2.166-5.919 4.884-9.359 8.155-10.367 9.217-2.83 22.676-10.02 32.776-11.005 1.805-.177 3.63-.26 5.457-.26 21.264 0 43.198 11.277 49.222 17.554 11.736 12.077 17.902 25.799 18.52 41.034zm-3.138-42.305a1460.675 1460.675 0 0 1 25.792 2.827c10.63 11.97 20.421 22.798 29.417 32.486 21.615 23.014 37.13 37.987 46.457 44.453.53-3.836.663-8.353.397-13.592-.685-13.15-3.447-28.582-8.265-46.249 11.072 2.434 16.598 3.683 27.626 6.292a132.59 132.59 0 0 0-2.718 9.184c-1.857 7.43-2.962 14.335-3.205 20.627-.95 25.448 1.15 51.225 2.763 76.74-22.5-34.656-55.54-63.853-84.715-92.634 1.945 24.946 2.94 37.418 4.907 62.36-8.664-1.292-12.996-1.928-21.681-3.11 1.657-21.68 2.166-40.135 1.525-55.326a147.667 147.667 0 0 0-.796-10.237c-1.216-11.287-6.918-22.752-17.504-33.82zm131.436 30.337c25.107 6.664 37.617 10.193 62.547 17.733.331 6.554.486 9.82.818 16.374-5.968-7.278-17.416-13.329-34.434-17.8.331 12.998.486 19.508.818 32.508 13.968 3.924 25.394 6.925 34.345 8.856.11 5.106.155 7.648.243 12.755-9.128-2.98-20.444-6.311-33.925-9.884.375 10.367.574 15.562.95 25.951.11 1.777.95 3.531 2.52 5.239 1.569 1.71 3.337 2.785 5.237 3.222 10.874 2.566 16.29 3.901 27.119 6.642.31 4.888.464 7.322.751 12.232-4.53-1.928-11.227-4.188-20.112-6.775-11.802-3.418-25.416-6.794-40.887-10.038 1.746-14.028 2.143-29.59 1.215-46.644-.972-17.623-3.381-34.414-7.205-50.371zM921.5 156.998c8.885-4.648 13.018-14.797 12.443-30.577-.354-9.34-2.52-20.19-6.52-32.441-3.646-11.224-16.266-18.828-37.793-22.205-5.982-.922-11.839-1.381-17.568-1.381h-.4c-5.835 8.416-8.62 18.128-8.288 29.131.287 9.754 3.337 19.508 9.172 29.306 9.437 15.52 22.654 24.572 39.561 27.399 3.087.532 5.86.785 8.3.785.374 0 .737-.005 1.093-.017zm-662.662-37.614c10.675-1.885 16.023-2.783 26.698-4.515-3.867-8.198-7.647-15.52-11.293-21.964-2.454 3.813-7.581 12.625-15.405 26.479z" fill="#F8DA1C"/><path fill="#FFF" opacity=".071" d="M398.709 193.354l1.07 21.521 68.181 15.951v-22.425z"/><path d="M469.375 209.263v21.66l38.543-27.79v-21.98l-38.543 28.11zM84.027 248.824l12.578 14.754 25.372-12.969-3.133-20.757-34.817 18.972zM144 236.973v18.78l138.406-42.648v-18.62L144 236.972zm570-52.774v17.363l31.938-17.363L744.261 166 714 184.2zm51 6v18.363l72.984-7.992.43-17.363L765 190.199zm127 19.793l-2 19.363 54.984 1.008-2.57-20.363-50.414-.008zM966 222l2 18.363L1024.61 223l-2-17.973L966 222zm92.996 21.879l-5.453 12.473 92.047 24.984 19.098-16.229-105.692-21.228z" fill="#000" opacity=".301"/></g></svg>