<svg width="228" height="256" viewBox="0 0 228 256" xmlns="http://www.w3.org/2000/svg"><title>shield</title><defs><linearGradient x1="17.659%" y1="25.62%" x2="111.64%" y2="102.362%" id="a"><stop stop-color="#9E9690" offset="0%"/><stop stop-color="#403C38" offset="100%"/></linearGradient><linearGradient x1="43.955%" y1="70.038%" x2="26.674%" y2="16.573%" id="b"><stop stop-color="#645F5A" offset="0%"/><stop stop-color="#9D9890" offset="100%"/></linearGradient></defs><g fill="none" fill-rule="evenodd" opacity=".698"><path d="M5.137 65.8S-11.76 216.001 120.742 251.96c3.037-1.217 6.585 1.402 6.585 1.402l10.627-9.65.108-55.844-43.042-92.96 10.802-25.144L90.057 24.81" fill="#212322"/><path d="M.698 63.73s-16.896 150.203 115.605 186.161l14.687-13.302.585-51.498-43.547-79.493-30.463-20.513 23.365 7.556 16.33-29.174-11.642-40.725L.698 63.73z" stroke="#000" stroke-width="4" fill="url(#a)" transform="translate(3 3)"/><path d="M133.809 10.034l12.343-5.665s41.735 21.15 69.684 25.837c7.376 109.595-59.191 173.047-59.191 173.047l-9.027-.843-3.12-18.73 4.178-6.67L127.387 60.78l9.794-11.215 2.564-17.155-5.936-22.375z" fill="#212322"/><path d="M143.467.306s40.186 20.853 78.07 27.206c9.073 134.805-68.218 172.204-68.218 172.204l-6.485-17.888 5.019-8.354-10.55-55.713 3.006-7.082-5.705-7.173-8.726-46.083 7.873-6.376 1.759-10.19 4.799-13.345-.842-27.206z" stroke="#000" stroke-width="4" fill="url(#b)" transform="translate(3 3)"/><path d="M95.913 50.168s-41.086 22.19-66.226 31.3c-9.339 113.209 93.416 151.337 93.416 151.337l11.738-7.77-.146-9.75-11.114 10.52s-48.648-16.963-74.134-71.05c-.887-1.881 14.651 3.975 14.651 3.975s-18.32-12.423-18.847-13.79c-6.387-16.558-10.58-36.189-10.95-59.349C78.28 68.44 96.847 56.86 96.847 56.86l-.935-6.692z" fill="#3F3C39"/><path fill="#FFF" opacity=".453" d="M94.258 58.678L53.939 77.59l28.43 15.186-16.767-13.15 27.502-16.111zM35.5 85.234l11.7-3.518 30.35 20.792z"/><path d="M92.008 47.169L26.474 76.18s-5.383 25.038 5.99 79.088c-16.329-40.463-11.373-82.916-11.373-82.916L92.008 47.17z" fill="#FFF" opacity=".453"/><path d="M149.472 22.575s37.153 22.417 59.967 25.119c9.372 85.529-34.424 118.16-54.749 134.474 20.384-19.252 32.633-39.74 39.883-58.617 1.038-2.703-5.106-2.684-5.106-2.684s9.822-11.608 10.584-14.648c1.583-6.316 3.126-26.145 3.126-26.145l-3.126 3.004 3.899-12.705-.773-18.05-33.14-11.573s-1.832 4.91-3.245 6.944c-.565.813 0 3.257 0 3.257L164.74 37.04l-13.586-6.542-1.683-7.923z" fill="#4D4C49"/><path fill="#FFF" opacity=".453" d="M172.83 44.237l-1.742 1.994 30.051 12.777 1.064-5.662zM180.701 121.94l1.743 3.921 14.701-18.808-3.918.934zM149.252 32.62l13.696 7 4.229 25.66zM135.314 61.259l7.797 8.906v34.366zM146.057 121.762l9.202-13.824-6.051 15.113 6.051 48.447z"/><path fill="#D8D8D8" opacity=".687" d="M79.673 104.432l8.954 6.82 20.748 39.618 12.654 70.985 10.984-8.046v-26.455l-44.386-78.121z"/><path d="M149.589 8.057v10.971c13.68 12.41 58.833 27.491 58.833 27.491l-46.173-27.491 54.342 17.795s5.33 12.22 2.27 48.46c6.18-10.362 3.06-53.002 3.06-53.002s-24.444-3.197-72.332-24.224z" fill="#D8D8D8"/></g></svg>