<svg width="264" height="246" viewBox="0 0 264 246" xmlns="http://www.w3.org/2000/svg" xmlns:xlink="http://www.w3.org/1999/xlink"><title>swords</title><defs><path d="M263.44 243.184c14.496 0 19.74 13.205 19.74 13.205.484.991-.017 1.795-1.128 1.795h-36.99c-1.107 0-1.643-.817-1.147-1.81 0 0 5.03-13.19 19.525-13.19z" id="a"/><mask id="e" x="-3" y="-3" width="45.635" height="21"><path fill="#fff" d="M240.73 240.184h45.635v21H240.73z"/><use xlink:href="#a"/></mask><path d="M28.346 238.184c14.497 0 19.74 13.205 19.74 13.205.485.991-.017 1.795-1.128 1.795H9.968c-1.107 0-1.643-.817-1.147-1.81 0 0 5.03-13.19 19.525-13.19z" id="b"/><mask id="f" x="-3" y="-3" width="45.635" height="21"><path fill="#fff" d="M5.636 235.184h45.635v21H5.636z"/><use xlink:href="#b"/></mask><path d="M156.587 45.71h10.824v24.562s11.905 152.632 11.905 162.246c0 11.77-11.905 39.174-31.405 55.619-21.5-21.217-28.124-41.024-28.124-55.619 0-14.594 6.624-162.246 6.624-162.246V45.71h10.417c.468-13.244.691-39.644-3.417-63.01 0 0 17.8 4.769 28.3-3.204-7.835 17.882-6.371 50.707-5.124 66.214z" id="c"/><mask id="g" x="0" y="0" width="59.529" height="308.641" fill="#fff"><use xlink:href="#c"/></mask><linearGradient x1="0%" y1="100%" y2="0%" id="h"><stop stop-color="#D0D0C7" offset="0%"/><stop stop-color="#A3A296" offset="100%"/></linearGradient><linearGradient x1="5.695%" y1="50%" y2="0%" id="i"><stop stop-color="#D0D0C7" offset="0%"/><stop stop-color="#A3A296" offset="45.015%"/><stop stop-color="#5F5B56" offset="100%"/></linearGradient><path d="M144.32 34.329h10.823v23s11.905 166.738 11.905 177.241c0 12.857-11.905 42.794-31.405 60.759-21.5-23.178-28.123-44.816-28.123-60.759 0-15.943 6.623-177.241 6.623-177.241v-23h10.417c.468-12.402.692-37.121-3.417-59 0 0 17.801 4.465 28.301-3-7.835 16.744-6.372 47.48-5.124 62z" id="d"/><mask id="j" x="0" y="0" width="59.529" height="323" fill="#fff"><use xlink:href="#d"/></mask><linearGradient x1="95.719%" y1="53.506%" x2="8.219%" y2="50%" id="k"><stop stop-color="#D0D0C7" offset="0%"/><stop stop-color="#A3A296" offset="45.015%"/><stop stop-color="#5F5B56" offset="100%"/></linearGradient></defs><g transform="translate(-14 -20)" fill="none" fill-rule="evenodd" opacity=".698"><g transform="rotate(134 263.547 250.684)"><use fill="#544F49" xlink:href="#a"/><use stroke="#000" mask="url(#e)" stroke-width="6" xlink:href="#a"/></g><g transform="scale(1 -1) rotate(-46 -550.342 0)"><use fill="#68615A" xlink:href="#b"/><use stroke="#000" mask="url(#f)" stroke-width="6" xlink:href="#b"/></g><use stroke="#000" mask="url(#g)" stroke-width="8" fill="#504B47" transform="scale(1 -1) rotate(-46 -165.7 0)" xlink:href="#c"/><path fill="#A3A296" d="M92.158 161.093l11.039 11.43 16.351-15.79 2.823-24.815z"/><rect stroke="#000" stroke-width="3" fill="url(#h)" transform="scale(1 -1) rotate(-46 -512.658 0)" x="19.47" y="225.077" width="41" height="19" rx="2"/><rect stroke="#000" stroke-width="3" fill="url(#i)" transform="scale(1 -1) rotate(-46 -338.825 0)" x="39.548" y="174.032" width="108" height="19" rx="3"/><path fill="#FFF" d="M58.217 152.434l65.566 70.813-67.706-68.688-2.243-2.275 8.905-9.386 69.518 71.769-68.861-67.234z"/><path d="M50.476 228.81s-1.356-1.772-6.223-6.31c19.194-13.759 32.13-32.669 32.13-32.669l5.097 5.437-31.004 33.542zM131.663 143.989l-19.01-.52L204.21 43.68s31.586-15.041 50.447-11.773L131.663 143.989z" fill="#A3A296"/><path d="M164.059 90.795l43.656-47.203S219.736 35.789 250.82 33l-38.3 33.193 10.223-15.845s3.65-8.12-7.789-3.159c-11.44 4.961-50.894 43.606-50.894 43.606z" fill="#FFF" opacity=".379"/><use stroke="#000" mask="url(#j)" stroke-width="8" fill="#504B47" transform="rotate(134 137.284 133.829)" xlink:href="#d"/><path fill="#A3A296" d="M187.383 182.014l-10.998 11.389-11.404-11.013 1.333-20.723z"/><rect stroke="#000" stroke-width="3" fill="#8B827A" transform="rotate(134 252.03 239.577)" x="231.53" y="230.077" width="41" height="19" rx="2"/><rect stroke="#000" stroke-width="3" fill="url(#k)" transform="rotate(134 198.452 188.532)" x="144.452" y="179.032" width="108" height="19" rx="3"/><path d="M158.68 154.962l1.45 19.95L45.984 79.337s-19.072-33.07-17.626-52.879L158.68 154.962zM206.089 202.651s1.292-.767 4.406-3.88c14.193 18.548 31.819 32.958 31.819 32.958l-3.833 3.126-32.392-32.204z" fill="#A3A296"/><path fill="#FFF" opacity=".559" d="M166.619 225.64l69.658-66.791-67.496 68.894-2.236 2.282-9.54-8.74 70.545-70.76-66.022 70.024z"/></g></svg>